<ttFont>
<head>
    <!-- Most of this table will be recalculated by the compiler -->
    <tableVersion value="1.0"/>
    <fontRevision value="1.0"/>
    <checkSumAdjustment value="0x3b72c728"/>
    <magicNumber value="0x5f0f3cf5"/>
    <flags value="00000000 00011011"/>
    <unitsPerEm value="1000"/>
    <created value="Sat Dec  6 13:43:38 2025"/>
    <modified value="Sat Dec  6 13:48:46 2025"/>
    <xMin value="-58"/>
    <yMin value="-250"/>
    <xMax value="939"/>
    <yMax value="758"/>
    <macStyle value="00000000 00000000"/>
    <lowestRecPPEM value="6"/>
    <fontDirectionHint value="2"/>
    <indexToLocFormat value="0"/>
    <glyphDataFormat value="0"/>
  </head>
    <TTGlyph name="A" xMin="26" yMin="0" xMax="598" yMax="694">
      <contour>
        <pt x="598" y="0" on="1"/>
        <pt x="511" y="0" on="1"/>
        <pt x="440" y="202" on="1"/>
        <pt x="172" y="202" on="1"/>
        <pt x="102" y="0" on="1"/>
        <pt x="26" y="0" on="1"/>
        <pt x="269" y="694" on="1"/>
        <pt x="355" y="694" on="1"/>
      </contour>
      <contour>
        <pt x="351" y="465" on="1"/>
        <pt x="338" y="503" on="0"/>
        <pt x="312" y="586" on="0"/>
        <pt x="307" y="617" on="1"/>
        <pt x="306" y="617" on="1"/>
        <pt x="303" y="600" on="0"/>
        <pt x="280" y="523" on="0"/>
        <pt x="247" y="423" on="0"/>
        <pt x="209" y="311" on="0"/>
        <pt x="191" y="258" on="1"/>
        <pt x="421" y="258" on="1"/>
      </contour>
    </TTGlyph>
    <TTGlyph name="AE" xMin="26" yMin="0" xMax="769" yMax="694">
      <contour>
        <pt x="102" y="0" on="1"/>
        <pt x="26" y="0" on="1"/>
        <pt x="291" y="694" on="1"/>
        <pt x="756" y="694" on="1"/>
        <pt x="756" y="629" on="1"/>
        <pt x="613" y="629" on="1"/>
        <pt x="604" y="629" on="0"/>
        <pt x="586" y="630" on="0"/>
        <pt x="577" y="630" on="1"/>
        <pt x="476" y="630" on="1"/>
        <pt x="476" y="391" on="1"/>
        <pt x="730" y="391" on="1"/>
        <pt x="730" y="330" on="1"/>
        <pt x="476" y="330" on="1"/>
        <pt x="476" y="67" on="1"/>
        <pt x="480" y="67" on="0"/>
        <pt x="493" y="68" on="0"/>
        <pt x="517" y="68" on="0"/>
        <pt x="555" y="68" on="0"/>
        <pt x="583" y="68" on="1"/>
        <pt x="769" y="69" on="1"/>
        <pt x="769" y="0" on="1"/>
        <pt x="393" y="0" on="1"/>
        <pt x="393" y="222" on="1"/>
        <pt x="187" y="222" on="1"/>
      </contour>
      <contour>
        <pt x="209" y="278" on="1"/>
        <pt x="393" y="278" on="1"/>
        <pt x="393" y="630" on="1"/>
        <pt x="343" y="630" on="1"/>
      </contour>
    </TTGlyph>
    <TTGlyph name="B" xMin="89" yMin="0" xMax="573" yMax="694">
      <contour>
        <pt x="312" y="694" on="1"/>
        <pt x="363" y="694" on="0"/>
        <pt x="450" y="665" on="0"/>
        <pt x="512" y="617" on="0"/>
        <pt x="547" y="554" on="0"/>
        <pt x="547" y="520" on="1"/>
        <pt x="547" y="504" on="0"/>
        <pt x="535" y="461" on="0"/>
        <pt x="501" y="418" on="0"/>
        <pt x="440" y="377" on="0"/>
        <pt x="391" y="363" on="1"/>
        <pt x="435" y="355" on="0"/>
        <pt x="503" y="319" on="0"/>
        <pt x="549" y="272" on="0"/>
        <pt x="573" y="217" on="0"/>
        <pt x="573" y="188" on="1"/>
        <pt x="573" y="151" on="0"/>
        <pt x="538" y="83" on="0"/>
        <pt x="475" y="31" on="0"/>
        <pt x="389" y="0" on="0"/>
        <pt x="338" y="0" on="1"/>
        <pt x="89" y="0" on="1"/>
        <pt x="89" y="694" on="1"/>
      </contour>
      <contour>
        <pt x="276" y="391" on="1"/>
        <pt x="324" y="391" on="0"/>
        <pt x="397" y="414" on="0"/>
        <pt x="445" y="451" on="0"/>
        <pt x="469" y="497" on="0"/>
        <pt x="469" y="519" on="1"/>
        <pt x="469" y="544" on="0"/>
        <pt x="440" y="587" on="0"/>
        <pt x="391" y="619" on="0"/>
        <pt x="324" y="638" on="0"/>
        <pt x="285" y="638" on="1"/>
        <pt x="170" y="638" on="1"/>
        <pt x="170" y="391" on="1"/>
      </contour>
      <contour>
        <pt x="310" y="56" on="1"/>
        <pt x="352" y="56" on="0"/>
        <pt x="420" y="78" on="0"/>
        <pt x="468" y="116" on="0"/>
        <pt x="494" y="164" on="0"/>
        <pt x="494" y="189" on="1"/>
        <pt x="494" y="217" on="0"/>
        <pt x="465" y="268" on="0"/>
        <pt x="413" y="307" on="0"/>
        <pt x="344" y="330" on="0"/>
        <pt x="303" y="330" on="1"/>
        <pt x="170" y="330" on="1"/>
        <pt x="170" y="56" on="1"/>
      </contour>
    </TTGlyph>
    <TTGlyph name="C" xMin="62" yMin="-7" xMax="553" yMax="702">
      <contour>
        <pt x="553" y="47" on="1"/>
        <pt x="525" y="29" on="0"/>
        <pt x="483" y="8" on="0"/>
        <pt x="442" y="-3" on="0"/>
        <pt x="395" y="-7" on="0"/>
        <pt x="363" y="-7" on="1"/>
        <pt x="303" y="-7" on="0"/>
        <pt x="194" y="48" on="0"/>
        <pt x="111" y="143" on="0"/>
        <pt x="62" y="272" on="0"/>
        <pt x="62" y="346" on="1"/>
        <pt x="62" y="413" on="0"/>
        <pt x="105" y="541" on="0"/>
        <pt x="186" y="641" on="0"/>
        <pt x="301" y="702" on="0"/>
        <pt x="373" y="702" on="1"/>
        <pt x="419" y="702" on="0"/>
        <pt x="507" y="685" on="0"/>
        <pt x="543" y="667" on="1"/>
        <pt x="529" y="588" on="1"/>
        <pt x="491" y="612" on="0"/>
        <pt x="420" y="638" on="0"/>
        <pt x="372" y="638" on="1"/>
        <pt x="319" y="638" on="0"/>
        <pt x="235" y="588" on="0"/>
        <pt x="177" y="506" on="0"/>
        <pt x="146" y="401" on="0"/>
        <pt x="146" y="346" on="1"/>
        <pt x="146" y="294" on="0"/>
        <pt x="176" y="191" on="0"/>
        <pt x="233" y="109" on="0"/>
        <pt x="316" y="57" on="0"/>
        <pt x="368" y="57" on="1"/>
        <pt x="398" y="57" on="0"/>
        <pt x="443" y="62" on="0"/>
        <pt x="482" y="76" on="0"/>
        <pt x="522" y="98" on="0"/>
        <pt x="547" y="115" on="1"/>
      </contour>
    </TTGlyph>
    <TTGlyph name="D" xMin="89" yMin="0" xMax="625" yMax="694">
      <contour>
        <pt x="335" y="694" on="1"/>
        <pt x="397" y="694" on="0"/>
        <pt x="503" y="638" on="0"/>
        <pt x="581" y="542" on="0"/>
        <pt x="625" y="413" on="0"/>
        <pt x="625" y="341" on="1"/>
        <pt x="625" y="271" on="0"/>
        <pt x="581" y="147" on="0"/>
        <pt x="503" y="54" on="0"/>
        <pt x="397" y="0" on="0"/>
        <pt x="335" y="0" on="1"/>
        <pt x="89" y="0" on="1"/>
        <pt x="89" y="694" on="1"/>
      </contour>
      <contour>
        <pt x="313" y="56" on="1"/>
        <pt x="364" y="56" on="0"/>
        <pt x="448" y="98" on="0"/>
        <pt x="509" y="174" on="0"/>
        <pt x="543" y="278" on="0"/>
        <pt x="543" y="341" on="1"/>
        <pt x="543" y="406" on="0"/>
        <pt x="509" y="515" on="0"/>
        <pt x="448" y="594" on="0"/>
        <pt x="363" y="638" on="0"/>
        <pt x="313" y="638" on="1"/>
        <pt x="171" y="638" on="1"/>
        <pt x="171" y="56" on="1"/>
      </contour>
    </TTGlyph>
    <TTGlyph name="E" xMin="88" yMin="0" xMax="521" yMax="692">
      <contour>
        <pt x="521" y="69" on="1"/>
        <pt x="521" y="0" on="1"/>
        <pt x="88" y="0" on="1"/>
        <pt x="88" y="692" on="1"/>
        <pt x="508" y="692" on="1"/>
        <pt x="508" y="627" on="1"/>
        <pt x="337" y="627" on="1"/>
        <pt x="328" y="627" on="0"/>
        <pt x="310" y="628" on="0"/>
        <pt x="301" y="628" on="1"/>
        <pt x="172" y="628" on="1"/>
        <pt x="172" y="390" on="1"/>
        <pt x="482" y="390" on="1"/>
        <pt x="482" y="329" on="1"/>
        <pt x="172" y="329" on="1"/>
        <pt x="172" y="67" on="1"/>
        <pt x="186" y="68" on="0"/>
        <pt x="246" y="68" on="0"/>
        <pt x="306" y="68" on="1"/>
      </contour>
    </TTGlyph>
    <TTGlyph name="F" xMin="88" yMin="0" xMax="495" yMax="692">
      <contour>
        <pt x="172" y="316" on="1"/>
        <pt x="172" y="0" on="1"/>
        <pt x="88" y="0" on="1"/>
        <pt x="88" y="692" on="1"/>
        <pt x="495" y="692" on="1"/>
        <pt x="495" y="627" on="1"/>
        <pt x="330" y="627" on="1"/>
        <pt x="321" y="627" on="0"/>
        <pt x="303" y="628" on="0"/>
        <pt x="294" y="628" on="1"/>
        <pt x="172" y="628" on="1"/>
        <pt x="172" y="377" on="1"/>
        <pt x="456" y="377" on="1"/>
        <pt x="456" y="316" on="1"/>
      </contour>
    </TTGlyph>
    <TTGlyph name="G" xMin="62" yMin="-8" xMax="564" yMax="702">
      <contour>
        <pt x="564" y="41" on="1"/>
        <pt x="517" y="18" on="0"/>
        <pt x="420" y="-8" on="0"/>
        <pt x="367" y="-8" on="1"/>
        <pt x="297" y="-8" on="0"/>
        <pt x="184" y="54" on="0"/>
        <pt x="105" y="155" on="0"/>
        <pt x="62" y="282" on="0"/>
        <pt x="62" y="346" on="1"/>
        <pt x="62" y="414" on="0"/>
        <pt x="105" y="542" on="0"/>
        <pt x="185" y="641" on="0"/>
        <pt x="300" y="702" on="0"/>
        <pt x="373" y="702" on="1"/>
        <pt x="401" y="702" on="0"/>
        <pt x="446" y="697" on="0"/>
        <pt x="488" y="685" on="0"/>
        <pt x="530" y="667" on="0"/>
        <pt x="555" y="654" on="1"/>
        <pt x="542" y="574" on="1"/>
        <pt x="522" y="589" on="0"/>
        <pt x="485" y="613" on="0"/>
        <pt x="444" y="629" on="0"/>
        <pt x="398" y="638" on="0"/>
        <pt x="369" y="638" on="1"/>
        <pt x="318" y="638" on="0"/>
        <pt x="236" y="587" on="0"/>
        <pt x="177" y="505" on="0"/>
        <pt x="146" y="402" on="0"/>
        <pt x="146" y="349" on="1"/>
        <pt x="146" y="296" on="0"/>
        <pt x="176" y="191" on="0"/>
        <pt x="234" y="108" on="0"/>
        <pt x="317" y="57" on="0"/>
        <pt x="369" y="57" on="1"/>
        <pt x="399" y="57" on="0"/>
        <pt x="459" y="68" on="0"/>
        <pt x="488" y="76" on="1"/>
        <pt x="488" y="232" on="1"/>
        <pt x="365" y="232" on="1"/>
        <pt x="365" y="294" on="1"/>
        <pt x="564" y="294" on="1"/>
      </contour>
    </TTGlyph>
    <TTGlyph name="Gamma" xMin="88" yMin="0" xMax="469" yMax="692">
      <contour>
        <pt x="172" y="628" on="1"/>
        <pt x="172" y="0" on="1"/>
        <pt x="88" y="0" on="1"/>
        <pt x="88" y="692" on="1"/>
        <pt x="469" y="692" on="1"/>
        <pt x="469" y="627" on="1"/>
        <pt x="317" y="627" on="1"/>
        <pt x="308" y="627" on="0"/>
        <pt x="290" y="628" on="0"/>
        <pt x="281" y="628" on="1"/>
      </contour>
    </TTGlyph>
    <TTGlyph name="H" xMin="88" yMin="0" xMax="574" yMax="694">
      <contour>
        <pt x="574" y="0" on="1"/>
        <pt x="490" y="0" on="1"/>
        <pt x="490" y="330" on="1"/>
        <pt x="172" y="330" on="1"/>
        <pt x="172" y="0" on="1"/>
        <pt x="88" y="0" on="1"/>
        <pt x="88" y="694" on="1"/>
        <pt x="172" y="694" on="1"/>
        <pt x="172" y="391" on="1"/>
        <pt x="490" y="391" on="1"/>
        <pt x="490" y="694" on="1"/>
        <pt x="574" y="694" on="1"/>
      </contour>
    </TTGlyph>
    <TTGlyph name="I" xMin="87" yMin="0" xMax="171" yMax="694">
      <contour>
        <pt x="171" y="0" on="1"/>
        <pt x="87" y="0" on="1"/>
        <pt x="87" y="694" on="1"/>
        <pt x="171" y="694" on="1"/>
      </contour>
    </TTGlyph>
    <TTGlyph name="J" xMin="39" yMin="-16" xMax="365" yMax="694">
      <contour>
        <pt x="365" y="149" on="1"/>
        <pt x="365" y="67" on="0"/>
        <pt x="273" y="-16" on="0"/>
        <pt x="200" y="-16" on="1"/>
        <pt x="168" y="-16" on="0"/>
        <pt x="86" y="1" on="0"/>
        <pt x="39" y="26" on="1"/>
        <pt x="52" y="99" on="1"/>
        <pt x="72" y="76" on="0"/>
        <pt x="135" y="45" on="0"/>
        <pt x="173" y="45" on="1"/>
        <pt x="207" y="45" on="0"/>
        <pt x="250" y="65" on="0"/>
        <pt x="274" y="96" on="0"/>
        <pt x="283" y="134" on="0"/>
        <pt x="283" y="152" on="1"/>
        <pt x="283" y="694" on="1"/>
        <pt x="365" y="694" on="1"/>
      </contour>
    </TTGlyph>
    <TTGlyph name="K" xMin="88" yMin="0" xMax="611" yMax="694">
      <contour>
        <pt x="611" y="0" on="1"/>
        <pt x="518" y="0" on="1"/>
        <pt x="293" y="358" on="1"/>
        <pt x="172" y="225" on="1"/>
        <pt x="172" y="0" on="1"/>
        <pt x="88" y="0" on="1"/>
        <pt x="88" y="694" on="1"/>
        <pt x="172" y="694" on="1"/>
        <pt x="172" y="331" on="1"/>
        <pt x="502" y="694" on="1"/>
        <pt x="598" y="694" on="1"/>
        <pt x="349" y="419" on="1"/>
      </contour>
    </TTGlyph>
    <TTGlyph name="L" xMin="88" yMin="0" xMax="469" yMax="694">
      <contour>
        <pt x="469" y="65" on="1"/>
        <pt x="469" y="0" on="1"/>
        <pt x="88" y="0" on="1"/>
        <pt x="88" y="694" on="1"/>
        <pt x="172" y="694" on="1"/>
        <pt x="172" y="64" on="1"/>
        <pt x="225" y="64" on="1"/>
        <pt x="234" y="64" on="0"/>
        <pt x="252" y="65" on="0"/>
        <pt x="261" y="65" on="1"/>
      </contour>
    </TTGlyph>
    <TTGlyph name="Lambda" xMin="26" yMin="0" xMax="545" yMax="694">
      <contour>
        <pt x="545" y="0" on="1"/>
        <pt x="457" y="0" on="1"/>
        <pt x="366" y="295" on="1"/>
        <pt x="361" y="312" on="0"/>
        <pt x="345" y="365" on="0"/>
        <pt x="326" y="428" on="0"/>
        <pt x="307" y="494" on="0"/>
        <pt x="292" y="555" on="0"/>
        <pt x="281" y="603" on="0"/>
        <pt x="279" y="616" on="1"/>
        <pt x="278" y="615" on="1"/>
        <pt x="277" y="602" on="0"/>
        <pt x="269" y="566" on="0"/>
        <pt x="259" y="527" on="0"/>
        <pt x="249" y="490" on="0"/>
        <pt x="244" y="475" on="1"/>
        <pt x="198" y="317" on="1"/>
        <pt x="101" y="0" on="1"/>
        <pt x="26" y="0" on="1"/>
        <pt x="243" y="694" on="1"/>
        <pt x="328" y="694" on="1"/>
      </contour>
    </TTGlyph>
    <TTGlyph name="M" xMin="90" yMin="0" xMax="729" yMax="694">
      <contour>
        <pt x="613" y="694" on="1"/>
        <pt x="729" y="694" on="1"/>
        <pt x="729" y="0" on="1"/>
        <pt x="650" y="0" on="1"/>
        <pt x="650" y="615" on="1"/>
        <pt x="649" y="615" on="1"/>
        <pt x="647" y="604" on="0"/>
        <pt x="636" y="568" on="0"/>
        <pt x="624" y="529" on="0"/>
        <pt x="612" y="493" on="0"/>
        <pt x="608" y="482" on="1"/>
        <pt x="604" y="469" on="0"/>
        <pt x="591" y="431" on="0"/>
        <pt x="578" y="393" on="0"/>
        <pt x="567" y="360" on="0"/>
        <pt x="564" y="351" on="1"/>
        <pt x="445" y="16" on="1"/>
        <pt x="371" y="16" on="1"/>
        <pt x="239" y="393" on="1"/>
        <pt x="216" y="459" on="0"/>
        <pt x="189" y="544" on="0"/>
        <pt x="174" y="593" on="0"/>
        <pt x="169" y="613" on="0"/>
        <pt x="169" y="613" on="1"/>
        <pt x="168" y="613" on="1"/>
        <pt x="168" y="0" on="1"/>
        <pt x="90" y="0" on="1"/>
        <pt x="90" y="694" on="1"/>
        <pt x="207" y="694" on="1"/>
        <pt x="355" y="274" on="1"/>
        <pt x="363" y="253" on="0"/>
        <pt x="377" y="208" on="0"/>
        <pt x="384" y="185" on="1"/>
        <pt x="396" y="147" on="0"/>
        <pt x="407" y="108" on="0"/>
        <pt x="409" y="93" on="1"/>
        <pt x="410" y="93" on="1"/>
        <pt x="412" y="105" on="0"/>
        <pt x="423" y="144" on="0"/>
        <pt x="436" y="185" on="0"/>
        <pt x="448" y="222" on="0"/>
        <pt x="451" y="232" on="1"/>
        <pt x="499" y="373" on="1"/>
      </contour>
    </TTGlyph>
    <TTGlyph name="N" xMin="88" yMin="0" xMax="574" yMax="694">
      <contour>
        <pt x="443" y="192" on="1"/>
        <pt x="458" y="159" on="0"/>
        <pt x="477" y="119" on="0"/>
        <pt x="487" y="96" on="0"/>
        <pt x="492" y="83" on="0"/>
        <pt x="495" y="76" on="1"/>
        <pt x="496" y="77" on="1"/>
        <pt x="496" y="694" on="1"/>
        <pt x="574" y="694" on="1"/>
        <pt x="574" y="0" on="1"/>
        <pt x="451" y="0" on="1"/>
        <pt x="433" y="37" on="1"/>
        <pt x="219" y="502" on="1"/>
        <pt x="204" y="535" on="0"/>
        <pt x="186" y="575" on="0"/>
        <pt x="175" y="598" on="0"/>
        <pt x="170" y="611" on="0"/>
        <pt x="167" y="618" on="1"/>
        <pt x="166" y="617" on="1"/>
        <pt x="166" y="0" on="1"/>
        <pt x="88" y="0" on="1"/>
        <pt x="88" y="694" on="1"/>
        <pt x="211" y="694" on="1"/>
        <pt x="229" y="657" on="1"/>
      </contour>
    </TTGlyph>
    <TTGlyph name="O" xMin="52" yMin="-16" xMax="640" yMax="710">
      <contour>
        <pt x="640" y="346" on="1"/>
        <pt x="640" y="268" on="0"/>
        <pt x="592" y="135" on="0"/>
        <pt x="511" y="38" on="0"/>
        <pt x="404" y="-16" on="0"/>
        <pt x="346" y="-16" on="1"/>
        <pt x="288" y="-16" on="0"/>
        <pt x="181" y="38" on="0"/>
        <pt x="100" y="135" on="0"/>
        <pt x="52" y="268" on="0"/>
        <pt x="52" y="346" on="1"/>
        <pt x="52" y="424" on="0"/>
        <pt x="100" y="557" on="0"/>
        <pt x="181" y="654" on="0"/>
        <pt x="287" y="710" on="0"/>
        <pt x="346" y="710" on="1"/>
        <pt x="405" y="710" on="0"/>
        <pt x="511" y="655" on="0"/>
        <pt x="592" y="557" on="0"/>
        <pt x="640" y="424" on="0"/>
      </contour>
      <contour>
        <pt x="346" y="47" on="1"/>
        <pt x="387" y="47" on="0"/>
        <pt x="463" y="91" on="0"/>
        <pt x="521" y="172" on="0"/>
        <pt x="556" y="288" on="0"/>
        <pt x="556" y="359" on="1"/>
        <pt x="556" y="428" on="0"/>
        <pt x="520" y="535" on="0"/>
        <pt x="460" y="609" on="0"/>
        <pt x="385" y="647" on="0"/>
        <pt x="346" y="647" on="1"/>
        <pt x="307" y="647" on="0"/>
        <pt x="232" y="609" on="0"/>
        <pt x="172" y="535" on="0"/>
        <pt x="136" y="428" on="0"/>
        <pt x="136" y="359" on="1"/>
        <pt x="136" y="288" on="0"/>
        <pt x="171" y="173" on="0"/>
        <pt x="229" y="91" on="0"/>
        <pt x="305" y="47" on="0"/>
      </contour>
    </TTGlyph>
    <TTGlyph name="OE" xMin="25" yMin="-16" xMax="873" yMax="710">
      <contour>
        <pt x="525" y="630" on="1"/>
        <pt x="525" y="391" on="1"/>
        <pt x="834" y="391" on="1"/>
        <pt x="834" y="330" on="1"/>
        <pt x="525" y="330" on="1"/>
        <pt x="525" y="67" on="1"/>
        <pt x="873" y="69" on="1"/>
        <pt x="873" y="0" on="1"/>
        <pt x="488" y="0" on="1"/>
        <pt x="477" y="0" on="0"/>
        <pt x="449" y="-2" on="0"/>
        <pt x="419" y="-7" on="1"/>
        <pt x="388" y="-12" on="0"/>
        <pt x="355" y="-16" on="0"/>
        <pt x="338" y="-16" on="1"/>
        <pt x="276" y="-16" on="0"/>
        <pt x="162" y="39" on="0"/>
        <pt x="76" y="135" on="0"/>
        <pt x="25" y="268" on="0"/>
        <pt x="25" y="346" on="1"/>
        <pt x="25" y="423" on="0"/>
        <pt x="75" y="556" on="0"/>
        <pt x="161" y="654" on="0"/>
        <pt x="275" y="710" on="0"/>
        <pt x="338" y="710" on="1"/>
        <pt x="349" y="710" on="0"/>
        <pt x="380" y="707" on="0"/>
        <pt x="417" y="701" on="1"/>
        <pt x="448" y="696" on="0"/>
        <pt x="478" y="694" on="0"/>
        <pt x="488" y="694" on="1"/>
        <pt x="860" y="694" on="1"/>
        <pt x="860" y="629" on="1"/>
      </contour>
      <contour>
        <pt x="340" y="45" on="1"/>
        <pt x="370" y="45" on="0"/>
        <pt x="406" y="58" on="0"/>
        <pt x="427" y="80" on="0"/>
        <pt x="436" y="113" on="0"/>
        <pt x="439" y="132" on="1"/>
        <pt x="442" y="156" on="0"/>
        <pt x="443" y="263" on="0"/>
        <pt x="443" y="348" on="1"/>
        <pt x="443" y="380" on="0"/>
        <pt x="443" y="444" on="0"/>
        <pt x="442" y="501" on="0"/>
        <pt x="441" y="546" on="0"/>
        <pt x="439" y="558" on="1"/>
        <pt x="436" y="579" on="0"/>
        <pt x="427" y="613" on="0"/>
        <pt x="406" y="637" on="0"/>
        <pt x="370" y="649" on="0"/>
        <pt x="340" y="649" on="1"/>
        <pt x="293" y="649" on="0"/>
        <pt x="208" y="605" on="0"/>
        <pt x="144" y="528" on="0"/>
        <pt x="107" y="422" on="0"/>
        <pt x="107" y="359" on="1"/>
        <pt x="107" y="295" on="0"/>
        <pt x="143" y="181" on="0"/>
        <pt x="205" y="95" on="0"/>
        <pt x="291" y="45" on="0"/>
      </contour>
    </TTGlyph>
    <TTGlyph name="Oslash" xMin="52" yMin="-64" xMax="678" yMax="758">
      <contour>
        <pt x="554" y="636" on="1"/>
        <pt x="566" y="625" on="0"/>
        <pt x="607" y="579" on="0"/>
        <pt x="648" y="508" on="0"/>
        <pt x="678" y="410" on="0"/>
        <pt x="678" y="346" on="1"/>
        <pt x="678" y="268" on="0"/>
        <pt x="627" y="136" on="0"/>
        <pt x="541" y="39" on="0"/>
        <pt x="428" y="-16" on="0"/>
        <pt x="365" y="-16" on="1"/>
        <pt x="338" y="-16" on="0"/>
        <pt x="276" y="-3" on="0"/>
        <pt x="244" y="13" on="1"/>
        <pt x="235" y="18" on="0"/>
        <pt x="230" y="19" on="0"/>
        <pt x="229" y="19" on="1"/>
        <pt x="228" y="19" on="0"/>
        <pt x="226" y="16" on="0"/>
        <pt x="221" y="8" on="1"/>
        <pt x="183" y="-64" on="1"/>
        <pt x="127" y="-34" on="1"/>
        <pt x="176" y="58" on="1"/>
        <pt x="116" y="110" on="0"/>
        <pt x="52" y="261" on="0"/>
        <pt x="52" y="346" on="1"/>
        <pt x="52" y="423" on="0"/>
        <pt x="102" y="556" on="0"/>
        <pt x="188" y="654" on="0"/>
        <pt x="302" y="710" on="0"/>
        <pt x="365" y="710" on="1"/>
        <pt x="410" y="710" on="0"/>
        <pt x="481" y="685" on="0"/>
        <pt x="502" y="673" on="1"/>
        <pt x="547" y="758" on="1"/>
        <pt x="603" y="728" on="1"/>
      </contour>
      <contour>
        <pt x="472" y="617" on="1"/>
        <pt x="454" y="628" on="0"/>
        <pt x="399" y="649" on="0"/>
        <pt x="365" y="649" on="1"/>
        <pt x="322" y="649" on="0"/>
        <pt x="239" y="609" on="0"/>
        <pt x="175" y="532" on="0"/>
        <pt x="136" y="419" on="0"/>
        <pt x="136" y="346" on="1"/>
        <pt x="136" y="329" on="0"/>
        <pt x="140" y="277" on="0"/>
        <pt x="154" y="216" on="0"/>
        <pt x="183" y="151" on="0"/>
        <pt x="208" y="120" on="1"/>
      </contour>
      <contour>
        <pt x="258" y="77" on="1"/>
        <pt x="283" y="62" on="0"/>
        <pt x="336" y="45" on="0"/>
        <pt x="365" y="45" on="1"/>
        <pt x="407" y="45" on="0"/>
        <pt x="490" y="83" on="0"/>
        <pt x="554" y="159" on="0"/>
        <pt x="594" y="271" on="0"/>
        <pt x="594" y="346" on="1"/>
        <pt x="594" y="366" on="0"/>
        <pt x="589" y="420" on="0"/>
        <pt x="574" y="481" on="0"/>
        <pt x="545" y="544" on="0"/>
        <pt x="521" y="573" on="1"/>
      </contour>
    </TTGlyph>
    <TTGlyph name="P" xMin="89" yMin="0" xMax="547" yMax="694">
      <contour>
        <pt x="173" y="289" on="1"/>
        <pt x="173" y="0" on="1"/>
        <pt x="89" y="0" on="1"/>
        <pt x="89" y="694" on="1"/>
        <pt x="323" y="694" on="1"/>
        <pt x="372" y="694" on="0"/>
        <pt x="454" y="661" on="0"/>
        <pt x="514" y="606" on="0"/>
        <pt x="547" y="533" on="0"/>
        <pt x="547" y="492" on="1"/>
        <pt x="547" y="451" on="0"/>
        <pt x="513" y="377" on="0"/>
        <pt x="453" y="322" on="0"/>
        <pt x="374" y="289" on="0"/>
        <pt x="329" y="289" on="1"/>
      </contour>
      <contour>
        <pt x="171" y="638" on="1"/>
        <pt x="171" y="347" on="1"/>
        <pt x="301" y="347" on="1"/>
        <pt x="346" y="347" on="0"/>
        <pt x="409" y="373" on="0"/>
        <pt x="450" y="415" on="0"/>
        <pt x="468" y="467" on="0"/>
        <pt x="468" y="492" on="1"/>
        <pt x="468" y="519" on="0"/>
        <pt x="448" y="572" on="0"/>
        <pt x="408" y="613" on="0"/>
        <pt x="345" y="638" on="0"/>
        <pt x="301" y="638" on="1"/>
      </contour>
    </TTGlyph>
    <TTGlyph name="Phi" xMin="52" yMin="0" xMax="626" yMax="694">
      <contour>
        <pt x="378" y="588" on="1"/>
        <pt x="435" y="581" on="0"/>
        <pt x="527" y="536" on="0"/>
        <pt x="591" y="470" on="0"/>
        <pt x="626" y="390" on="0"/>
        <pt x="626" y="347" on="1"/>
        <pt x="626" y="304" on="0"/>
        <pt x="591" y="224" on="0"/>
        <pt x="527" y="158" on="0"/>
        <pt x="435" y="113" on="0"/>
        <pt x="378" y="106" on="1"/>
        <pt x="378" y="0" on="1"/>
        <pt x="297" y="0" on="1"/>
        <pt x="297" y="107" on="1"/>
        <pt x="244" y="113" on="0"/>
        <pt x="154" y="156" on="0"/>
        <pt x="89" y="221" on="0"/>
        <pt x="52" y="303" on="0"/>
        <pt x="52" y="347" on="1"/>
        <pt x="52" y="391" on="0"/>
        <pt x="89" y="473" on="0"/>
        <pt x="154" y="538" on="0"/>
        <pt x="244" y="581" on="0"/>
        <pt x="297" y="587" on="1"/>
        <pt x="297" y="694" on="1"/>
        <pt x="378" y="694" on="1"/>
      </contour>
      <contour>
        <pt x="297" y="526" on="1"/>
        <pt x="255" y="519" on="0"/>
        <pt x="194" y="484" on="0"/>
        <pt x="154" y="436" on="0"/>
        <pt x="134" y="377" on="0"/>
        <pt x="134" y="347" on="1"/>
        <pt x="134" y="317" on="0"/>
        <pt x="154" y="258" on="0"/>
        <pt x="194" y="210" on="0"/>
        <pt x="255" y="175" on="0"/>
        <pt x="297" y="168" on="1"/>
      </contour>
      <contour>
        <pt x="378" y="168" on="1"/>
        <pt x="423" y="175" on="0"/>
        <pt x="486" y="211" on="0"/>
        <pt x="526" y="261" on="0"/>
        <pt x="544" y="319" on="0"/>
        <pt x="544" y="347" on="1"/>
        <pt x="544" y="375" on="0"/>
        <pt x="526" y="433" on="0"/>
        <pt x="486" y="483" on="0"/>
        <pt x="423" y="519" on="0"/>
        <pt x="378" y="526" on="1"/>
      </contour>
    </TTGlyph>
    <TTGlyph name="Pi" xMin="88" yMin="0" xMax="574" yMax="692">
      <contour>
        <pt x="574" y="0" on="1"/>
        <pt x="490" y="0" on="1"/>
        <pt x="490" y="631" on="1"/>
        <pt x="172" y="631" on="1"/>
        <pt x="172" y="0" on="1"/>
        <pt x="88" y="0" on="1"/>
        <pt x="88" y="692" on="1"/>
        <pt x="574" y="692" on="1"/>
      </contour>
    </TTGlyph>
    <TTGlyph name="Psi" xMin="52" yMin="0" xMax="678" yMax="694">
      <contour>
        <pt x="404" y="171" on="1"/>
        <pt x="447" y="183" on="0"/>
        <pt x="498" y="240" on="0"/>
        <pt x="525" y="310" on="0"/>
        <pt x="533" y="386" on="0"/>
        <pt x="533" y="417" on="1"/>
        <pt x="533" y="458" on="0"/>
        <pt x="536" y="536" on="0"/>
        <pt x="545" y="565" on="1"/>
        <pt x="551" y="583" on="0"/>
        <pt x="566" y="603" on="0"/>
        <pt x="582" y="612" on="0"/>
        <pt x="600" y="613" on="0"/>
        <pt x="608" y="613" on="1"/>
        <pt x="678" y="613" on="1"/>
        <pt x="678" y="552" on="1"/>
        <pt x="646" y="550" on="0"/>
        <pt x="614" y="493" on="0"/>
        <pt x="614" y="423" on="1"/>
        <pt x="614" y="369" on="0"/>
        <pt x="596" y="265" on="0"/>
        <pt x="550" y="179" on="0"/>
        <pt x="468" y="118" on="0"/>
        <pt x="404" y="107" on="1"/>
        <pt x="404" y="0" on="1"/>
        <pt x="323" y="0" on="1"/>
        <pt x="323" y="107" on="1"/>
        <pt x="265" y="116" on="0"/>
        <pt x="186" y="172" on="0"/>
        <pt x="138" y="254" on="0"/>
        <pt x="116" y="355" on="0"/>
        <pt x="116" y="408" on="1"/>
        <pt x="116" y="438" on="0"/>
        <pt x="112" y="490" on="0"/>
        <pt x="98" y="528" on="0"/>
        <pt x="73" y="551" on="0"/>
        <pt x="52" y="552" on="1"/>
        <pt x="52" y="613" on="1"/>
        <pt x="122" y="613" on="1"/>
        <pt x="144" y="613" on="0"/>
        <pt x="173" y="597" on="0"/>
        <pt x="190" y="553" on="0"/>
        <pt x="197" y="478" on="0"/>
        <pt x="197" y="419" on="1"/>
        <pt x="197" y="394" on="0"/>
        <pt x="203" y="320" on="0"/>
        <pt x="227" y="246" on="0"/>
        <pt x="278" y="184" on="0"/>
        <pt x="323" y="171" on="1"/>
        <pt x="323" y="694" on="1"/>
        <pt x="404" y="694" on="1"/>
      </contour>
    </TTGlyph>
    <TTGlyph name="Q" xMin="52" yMin="-125" xMax="640" yMax="710">
      <contour>
        <pt x="614" y="-125" on="1"/>
        <pt x="516" y="-125" on="1"/>
        <pt x="432" y="0" on="1"/>
        <pt x="416" y="-6" on="0"/>
        <pt x="372" y="-16" on="0"/>
        <pt x="346" y="-16" on="1"/>
        <pt x="288" y="-16" on="0"/>
        <pt x="181" y="38" on="0"/>
        <pt x="100" y="135" on="0"/>
        <pt x="52" y="268" on="0"/>
        <pt x="52" y="346" on="1"/>
        <pt x="52" y="424" on="0"/>
        <pt x="100" y="557" on="0"/>
        <pt x="181" y="654" on="0"/>
        <pt x="287" y="710" on="0"/>
        <pt x="346" y="710" on="1"/>
        <pt x="405" y="710" on="0"/>
        <pt x="511" y="655" on="0"/>
        <pt x="592" y="557" on="0"/>
        <pt x="640" y="424" on="0"/>
        <pt x="640" y="346" on="1"/>
        <pt x="640" y="318" on="0"/>
        <pt x="631" y="242" on="0"/>
        <pt x="601" y="159" on="0"/>
        <pt x="546" y="74" on="0"/>
        <pt x="500" y="37" on="1"/>
      </contour>
      <contour>
        <pt x="303" y="194" on="1"/>
        <pt x="389" y="194" on="1"/>
        <pt x="461" y="93" on="1"/>
        <pt x="494" y="124" on="0"/>
        <pt x="532" y="193" on="0"/>
        <pt x="552" y="260" on="0"/>
        <pt x="558" y="322" on="0"/>
        <pt x="558" y="346" on="1"/>
        <pt x="558" y="415" on="0"/>
        <pt x="523" y="526" on="0"/>
        <pt x="464" y="605" on="0"/>
        <pt x="387" y="647" on="0"/>
        <pt x="346" y="647" on="1"/>
        <pt x="305" y="647" on="0"/>
        <pt x="229" y="605" on="0"/>
        <pt x="170" y="527" on="0"/>
        <pt x="134" y="415" on="0"/>
        <pt x="134" y="346" on="1"/>
        <pt x="134" y="276" on="0"/>
        <pt x="170" y="165" on="0"/>
        <pt x="229" y="88" on="0"/>
        <pt x="306" y="47" on="0"/>
        <pt x="346" y="47" on="1"/>
        <pt x="373" y="47" on="0"/>
        <pt x="395" y="55" on="1"/>
      </contour>
    </TTGlyph>
    <TTGlyph name="R" xMin="89" yMin="0" xMax="579" yMax="694">
      <contour>
        <pt x="579" y="0" on="1"/>
        <pt x="495" y="0" on="1"/>
        <pt x="318" y="317" on="1"/>
        <pt x="171" y="317" on="1"/>
        <pt x="171" y="0" on="1"/>
        <pt x="89" y="0" on="1"/>
        <pt x="89" y="694" on="1"/>
        <pt x="313" y="694" on="1"/>
        <pt x="367" y="694" on="0"/>
        <pt x="456" y="663" on="0"/>
        <pt x="519" y="611" on="0"/>
        <pt x="553" y="544" on="0"/>
        <pt x="553" y="508" on="1"/>
        <pt x="553" y="501" on="0"/>
        <pt x="548" y="458" on="0"/>
        <pt x="518" y="404" on="0"/>
        <pt x="455" y="347" on="0"/>
        <pt x="396" y="327" on="1"/>
        <pt x="394" y="326" on="1"/>
      </contour>
      <contour>
        <pt x="302" y="378" on="1"/>
        <pt x="352" y="378" on="0"/>
        <pt x="418" y="403" on="0"/>
        <pt x="457" y="442" on="0"/>
        <pt x="474" y="488" on="0"/>
        <pt x="474" y="508" on="1"/>
        <pt x="474" y="530" on="0"/>
        <pt x="456" y="576" on="0"/>
        <pt x="415" y="614" on="0"/>
        <pt x="350" y="638" on="0"/>
        <pt x="302" y="638" on="1"/>
        <pt x="171" y="638" on="1"/>
        <pt x="171" y="378" on="1"/>
      </contour>
    </TTGlyph>
    <TTGlyph name="S" xMin="42" yMin="-16" xMax="469" yMax="710">
      <contour>
        <pt x="423" y="581" on="1"/>
        <pt x="401" y="601" on="0"/>
        <pt x="359" y="626" on="0"/>
        <pt x="318" y="640" on="0"/>
        <pt x="281" y="644" on="0"/>
        <pt x="264" y="644" on="1"/>
        <pt x="231" y="644" on="0"/>
        <pt x="180" y="623" on="0"/>
        <pt x="146" y="590" on="0"/>
        <pt x="128" y="548" on="0"/>
        <pt x="128" y="527" on="1"/>
        <pt x="128" y="507" on="0"/>
        <pt x="141" y="474" on="0"/>
        <pt x="154" y="457" on="1"/>
        <pt x="173" y="434" on="0"/>
        <pt x="221" y="415" on="0"/>
        <pt x="256" y="406" on="1"/>
        <pt x="287" y="398" on="0"/>
        <pt x="333" y="384" on="0"/>
        <pt x="369" y="368" on="0"/>
        <pt x="400" y="346" on="0"/>
        <pt x="415" y="329" on="1"/>
        <pt x="447" y="294" on="0"/>
        <pt x="469" y="221" on="0"/>
        <pt x="469" y="191" on="1"/>
        <pt x="469" y="150" on="0"/>
        <pt x="438" y="75" on="0"/>
        <pt x="382" y="18" on="0"/>
        <pt x="304" y="-16" on="0"/>
        <pt x="258" y="-16" on="1"/>
        <pt x="241" y="-16" on="0"/>
        <pt x="192" y="-11" on="0"/>
        <pt x="135" y="4" on="0"/>
        <pt x="73" y="32" on="0"/>
        <pt x="42" y="54" on="1"/>
        <pt x="56" y="133" on="1"/>
        <pt x="87" y="105" on="0"/>
        <pt x="149" y="72" on="0"/>
        <pt x="203" y="56" on="0"/>
        <pt x="246" y="52" on="0"/>
        <pt x="257" y="52" on="1"/>
        <pt x="290" y="52" on="0"/>
        <pt x="340" y="75" on="0"/>
        <pt x="375" y="112" on="0"/>
        <pt x="393" y="158" on="0"/>
        <pt x="393" y="182" on="1"/>
        <pt x="393" y="218" on="0"/>
        <pt x="352" y="286" on="0"/>
        <pt x="310" y="303" on="1"/>
        <pt x="307" y="304" on="0"/>
        <pt x="292" y="309" on="0"/>
        <pt x="271" y="315" on="0"/>
        <pt x="250" y="321" on="0"/>
        <pt x="241" y="323" on="1"/>
        <pt x="220" y="328" on="0"/>
        <pt x="182" y="339" on="0"/>
        <pt x="148" y="354" on="0"/>
        <pt x="117" y="377" on="0"/>
        <pt x="102" y="393" on="1"/>
        <pt x="73" y="426" on="0"/>
        <pt x="52" y="489" on="0"/>
        <pt x="52" y="518" on="1"/>
        <pt x="52" y="554" on="0"/>
        <pt x="82" y="623" on="0"/>
        <pt x="137" y="677" on="0"/>
        <pt x="216" y="710" on="0"/>
        <pt x="264" y="710" on="1"/>
        <pt x="325" y="710" on="0"/>
        <pt x="404" y="681" on="0"/>
        <pt x="437" y="661" on="1"/>
      </contour>
    </TTGlyph>
    <TTGlyph name="Sigma" xMin="52" yMin="0" xMax="626" yMax="694">
      <contour>
        <pt x="186" y="68" on="1"/>
        <pt x="365" y="68" on="1"/>
        <pt x="374" y="68" on="0"/>
        <pt x="392" y="69" on="0"/>
        <pt x="401" y="69" on="1"/>
        <pt x="626" y="69" on="1"/>
        <pt x="626" y="0" on="1"/>
        <pt x="52" y="0" on="1"/>
        <pt x="268" y="337" on="1"/>
        <pt x="52" y="630" on="1"/>
        <pt x="52" y="694" on="1"/>
        <pt x="626" y="694" on="1"/>
        <pt x="626" y="629" on="1"/>
        <pt x="383" y="629" on="1"/>
        <pt x="374" y="629" on="0"/>
        <pt x="356" y="630" on="0"/>
        <pt x="347" y="630" on="1"/>
        <pt x="156" y="630" on="1"/>
        <pt x="365" y="347" on="1"/>
      </contour>
    </TTGlyph>
    <TTGlyph name="T" xMin="34" yMin="0" xMax="606" yMax="691">
      <contour>
        <pt x="362" y="0" on="1"/>
        <pt x="278" y="0" on="1"/>
        <pt x="278" y="627" on="1"/>
        <pt x="195" y="627" on="1"/>
        <pt x="186" y="627" on="0"/>
        <pt x="168" y="626" on="0"/>
        <pt x="159" y="626" on="1"/>
        <pt x="34" y="626" on="1"/>
        <pt x="34" y="691" on="1"/>
        <pt x="606" y="691" on="1"/>
        <pt x="606" y="626" on="1"/>
        <pt x="481" y="626" on="1"/>
        <pt x="472" y="626" on="0"/>
        <pt x="454" y="627" on="0"/>
        <pt x="445" y="627" on="1"/>
        <pt x="362" y="627" on="1"/>
      </contour>
    </TTGlyph>
    <TTGlyph name="Theta" xMin="52" yMin="-16" xMax="678" yMax="710">
      <contour>
        <pt x="678" y="346" on="1"/>
        <pt x="678" y="268" on="0"/>
        <pt x="627" y="136" on="0"/>
        <pt x="541" y="39" on="0"/>
        <pt x="428" y="-16" on="0"/>
        <pt x="365" y="-16" on="1"/>
        <pt x="303" y="-16" on="0"/>
        <pt x="189" y="39" on="0"/>
        <pt x="103" y="135" on="0"/>
        <pt x="52" y="268" on="0"/>
        <pt x="52" y="346" on="1"/>
        <pt x="52" y="423" on="0"/>
        <pt x="102" y="556" on="0"/>
        <pt x="188" y="654" on="0"/>
        <pt x="302" y="710" on="0"/>
        <pt x="365" y="710" on="1"/>
        <pt x="428" y="710" on="0"/>
        <pt x="542" y="654" on="0"/>
        <pt x="628" y="556" on="0"/>
        <pt x="678" y="423" on="0"/>
      </contour>
      <contour>
        <pt x="365" y="46" on="1"/>
        <pt x="410" y="46" on="0"/>
        <pt x="493" y="88" on="0"/>
        <pt x="558" y="166" on="0"/>
        <pt x="597" y="277" on="0"/>
        <pt x="597" y="346" on="1"/>
        <pt x="597" y="414" on="0"/>
        <pt x="559" y="526" on="0"/>
        <pt x="495" y="606" on="0"/>
        <pt x="411" y="649" on="0"/>
        <pt x="365" y="649" on="1"/>
        <pt x="319" y="649" on="0"/>
        <pt x="235" y="606" on="0"/>
        <pt x="171" y="526" on="0"/>
        <pt x="133" y="415" on="0"/>
        <pt x="133" y="346" on="1"/>
        <pt x="133" y="277" on="0"/>
        <pt x="172" y="166" on="0"/>
        <pt x="237" y="88" on="0"/>
        <pt x="320" y="46" on="0"/>
      </contour>
      <contour>
        <pt x="544" y="387" on="1"/>
        <pt x="544" y="308" on="1"/>
        <pt x="186" y="308" on="1"/>
        <pt x="186" y="387" on="1"/>
      </contour>
    </TTGlyph>
    <TTGlyph name="U" xMin="88" yMin="-16" xMax="555" yMax="694">
      <contour>
        <pt x="555" y="233" on="1"/>
        <pt x="555" y="179" on="0"/>
        <pt x="517" y="88" on="0"/>
        <pt x="454" y="21" on="0"/>
        <pt x="370" y="-16" on="0"/>
        <pt x="323" y="-16" on="1"/>
        <pt x="277" y="-16" on="0"/>
        <pt x="191" y="21" on="0"/>
        <pt x="127" y="88" on="0"/>
        <pt x="88" y="179" on="0"/>
        <pt x="88" y="233" on="1"/>
        <pt x="88" y="694" on="1"/>
        <pt x="172" y="694" on="1"/>
        <pt x="172" y="231" on="1"/>
        <pt x="172" y="183" on="0"/>
        <pt x="198" y="111" on="0"/>
        <pt x="241" y="63" on="0"/>
        <pt x="296" y="40" on="0"/>
        <pt x="324" y="40" on="1"/>
        <pt x="352" y="40" on="0"/>
        <pt x="407" y="63" on="0"/>
        <pt x="451" y="110" on="0"/>
        <pt x="479" y="182" on="0"/>
        <pt x="479" y="232" on="1"/>
        <pt x="479" y="694" on="1"/>
        <pt x="555" y="694" on="1"/>
      </contour>
    </TTGlyph>
    <TTGlyph name="Upsilon" xMin="52" yMin="0" xMax="678" yMax="710">
      <contour>
        <pt x="407" y="0" on="1"/>
        <pt x="323" y="0" on="1"/>
        <pt x="323" y="397" on="1"/>
        <pt x="323" y="520" on="0"/>
        <pt x="270" y="647" on="0"/>
        <pt x="204" y="647" on="1"/>
        <pt x="172" y="647" on="0"/>
        <pt x="130" y="597" on="0"/>
        <pt x="128" y="555" on="1"/>
        <pt x="52" y="555" on="1"/>
        <pt x="53" y="593" on="0"/>
        <pt x="80" y="651" on="0"/>
        <pt x="123" y="690" on="0"/>
        <pt x="176" y="710" on="0"/>
        <pt x="203" y="710" on="1"/>
        <pt x="242" y="710" on="0"/>
        <pt x="297" y="677" on="0"/>
        <pt x="335" y="621" on="0"/>
        <pt x="359" y="546" on="0"/>
        <pt x="365" y="504" on="1"/>
        <pt x="366" y="504" on="1"/>
        <pt x="372" y="543" on="0"/>
        <pt x="393" y="617" on="0"/>
        <pt x="430" y="675" on="0"/>
        <pt x="487" y="710" on="0"/>
        <pt x="527" y="710" on="1"/>
        <pt x="554" y="710" on="0"/>
        <pt x="607" y="690" on="0"/>
        <pt x="650" y="651" on="0"/>
        <pt x="677" y="593" on="0"/>
        <pt x="678" y="555" on="1"/>
        <pt x="602" y="555" on="1"/>
        <pt x="600" y="598" on="0"/>
        <pt x="558" y="647" on="0"/>
        <pt x="526" y="647" on="1"/>
        <pt x="461" y="647" on="0"/>
        <pt x="407" y="522" on="0"/>
        <pt x="407" y="397" on="1"/>
      </contour>
    </TTGlyph>
    <TTGlyph name="V" xMin="13" yMin="0" xMax="611" yMax="694">
      <contour>
        <pt x="356" y="0" on="1"/>
        <pt x="268" y="0" on="1"/>
        <pt x="13" y="694" on="1"/>
        <pt x="101" y="694" on="1"/>
        <pt x="144" y="577" on="1"/>
        <pt x="260" y="252" on="1"/>
        <pt x="266" y="234" on="0"/>
        <pt x="284" y="185" on="0"/>
        <pt x="300" y="135" on="0"/>
        <pt x="314" y="90" on="0"/>
        <pt x="317" y="76" on="1"/>
        <pt x="318" y="76" on="1"/>
        <pt x="320" y="88" on="0"/>
        <pt x="333" y="130" on="0"/>
        <pt x="346" y="173" on="0"/>
        <pt x="358" y="209" on="0"/>
        <pt x="360" y="214" on="1"/>
        <pt x="533" y="694" on="1"/>
        <pt x="611" y="694" on="1"/>
      </contour>
    </TTGlyph>
    <TTGlyph name="W" xMin="13" yMin="0" xMax="872" yMax="694">
      <contour>
        <pt x="682" y="0" on="1"/>
        <pt x="595" y="0" on="1"/>
        <pt x="489" y="400" on="1"/>
        <pt x="460" y="510" on="0"/>
        <pt x="441" y="610" on="0"/>
        <pt x="441" y="613" on="1"/>
        <pt x="440" y="613" on="1"/>
        <pt x="439" y="604" on="0"/>
        <pt x="436" y="581" on="0"/>
        <pt x="428" y="545" on="0"/>
        <pt x="415" y="490" on="0"/>
        <pt x="405" y="448" on="1"/>
        <pt x="365" y="289" on="1"/>
        <pt x="286" y="0" on="1"/>
        <pt x="203" y="0" on="1"/>
        <pt x="13" y="694" on="1"/>
        <pt x="99" y="694" on="1"/>
        <pt x="176" y="409" on="1"/>
        <pt x="187" y="367" on="0"/>
        <pt x="208" y="280" on="0"/>
        <pt x="219" y="236" on="1"/>
        <pt x="230" y="192" on="0"/>
        <pt x="242" y="134" on="0"/>
        <pt x="249" y="99" on="0"/>
        <pt x="251" y="82" on="0"/>
        <pt x="251" y="80" on="1"/>
        <pt x="252" y="80" on="1"/>
        <pt x="253" y="88" on="0"/>
        <pt x="255" y="105" on="0"/>
        <pt x="261" y="139" on="0"/>
        <pt x="274" y="197" on="0"/>
        <pt x="285" y="244" on="1"/>
        <pt x="325" y="403" on="1"/>
        <pt x="404" y="694" on="1"/>
        <pt x="488" y="694" on="1"/>
        <pt x="571" y="387" on="1"/>
        <pt x="582" y="348" on="0"/>
        <pt x="601" y="269" on="0"/>
        <pt x="610" y="229" on="1"/>
        <pt x="622" y="181" on="0"/>
        <pt x="639" y="101" on="0"/>
        <pt x="641" y="81" on="1"/>
        <pt x="642" y="81" on="1"/>
        <pt x="644" y="101" on="0"/>
        <pt x="661" y="177" on="0"/>
        <pt x="675" y="233" on="1"/>
        <pt x="684" y="271" on="0"/>
        <pt x="702" y="345" on="0"/>
        <pt x="712" y="383" on="1"/>
        <pt x="796" y="694" on="1"/>
        <pt x="872" y="694" on="1"/>
      </contour>
    </TTGlyph>
    <TTGlyph name="X" xMin="13" yMin="0" xMax="611" yMax="694">
      <contour>
        <pt x="611" y="0" on="1"/>
        <pt x="512" y="0" on="1"/>
        <pt x="305" y="305" on="1"/>
        <pt x="105" y="0" on="1"/>
        <pt x="13" y="0" on="1"/>
        <pt x="264" y="366" on="1"/>
        <pt x="26" y="694" on="1"/>
        <pt x="125" y="694" on="1"/>
        <pt x="305" y="434" on="1"/>
        <pt x="480" y="694" on="1"/>
        <pt x="572" y="694" on="1"/>
        <pt x="346" y="366" on="1"/>
      </contour>
    </TTGlyph>
    <TTGlyph name="Xi" xMin="39" yMin="0" xMax="587" yMax="691">
      <contour>
        <pt x="44" y="620" on="1"/>
        <pt x="44" y="691" on="1"/>
        <pt x="582" y="691" on="1"/>
        <pt x="582" y="620" on="1"/>
        <pt x="465" y="620" on="1"/>
        <pt x="161" y="620" on="1"/>
      </contour>
      <contour>
        <pt x="587" y="71" on="1"/>
        <pt x="587" y="0" on="1"/>
        <pt x="39" y="0" on="1"/>
        <pt x="39" y="71" on="1"/>
        <pt x="158" y="71" on="1"/>
        <pt x="468" y="71" on="1"/>
      </contour>
      <contour>
        <pt x="522" y="394" on="1"/>
        <pt x="522" y="324" on="1"/>
        <pt x="104" y="324" on="1"/>
        <pt x="104" y="394" on="1"/>
      </contour>
    </TTGlyph>
    <TTGlyph name="Y" xMin="3" yMin="0" xMax="621" yMax="694">
      <contour>
        <pt x="353" y="277" on="1"/>
        <pt x="353" y="0" on="1"/>
        <pt x="271" y="0" on="1"/>
        <pt x="271" y="278" on="1"/>
        <pt x="3" y="694" on="1"/>
        <pt x="101" y="694" on="1"/>
        <pt x="269" y="431" on="1"/>
        <pt x="318" y="352" on="1"/>
        <pt x="324" y="363" on="0"/>
        <pt x="342" y="392" on="0"/>
        <pt x="360" y="420" on="0"/>
        <pt x="376" y="445" on="0"/>
        <pt x="380" y="452" on="1"/>
        <pt x="535" y="694" on="1"/>
        <pt x="621" y="694" on="1"/>
      </contour>
    </TTGlyph>
    <TTGlyph name="Z" xMin="52" yMin="0" xMax="527" yMax="694">
      <contour>
        <pt x="158" y="64" on="1"/>
        <pt x="188" y="64" on="1"/>
        <pt x="251" y="64" on="0"/>
        <pt x="375" y="66" on="0"/>
        <pt x="438" y="66" on="1"/>
        <pt x="527" y="66" on="1"/>
        <pt x="527" y="0" on="1"/>
        <pt x="52" y="0" on="1"/>
        <pt x="52" y="43" on="1"/>
        <pt x="416" y="632" on="1"/>
        <pt x="288" y="632" on="1"/>
        <pt x="279" y="632" on="0"/>
        <pt x="261" y="631" on="0"/>
        <pt x="252" y="631" on="1"/>
        <pt x="65" y="631" on="1"/>
        <pt x="65" y="694" on="1"/>
        <pt x="522" y="694" on="1"/>
        <pt x="522" y="653" on="1"/>
      </contour>
    </TTGlyph>
    <TTGlyph name="a" xMin="40" yMin="-8" xMax="376" yMax="442">
      <contour>
        <pt x="376" y="0" on="1"/>
        <pt x="302" y="0" on="1"/>
        <pt x="302" y="37" on="1"/>
        <pt x="280" y="21" on="0"/>
        <pt x="231" y="3" on="0"/>
        <pt x="187" y="-6" on="0"/>
        <pt x="154" y="-8" on="0"/>
        <pt x="148" y="-8" on="1"/>
        <pt x="117" y="-8" on="0"/>
        <pt x="75" y="19" on="0"/>
        <pt x="50" y="57" on="0"/>
        <pt x="40" y="99" on="0"/>
        <pt x="40" y="114" on="1"/>
        <pt x="40" y="173" on="0"/>
        <pt x="180" y="240" on="0"/>
        <pt x="300" y="244" on="1"/>
        <pt x="300" y="282" on="1"/>
        <pt x="300" y="329" on="0"/>
        <pt x="256" y="383" on="0"/>
        <pt x="218" y="383" on="1"/>
        <pt x="164" y="383" on="0"/>
        <pt x="97" y="350" on="0"/>
        <pt x="78" y="336" on="1"/>
        <pt x="72" y="402" on="1"/>
        <pt x="114" y="426" on="0"/>
        <pt x="186" y="442" on="0"/>
        <pt x="219" y="442" on="1"/>
        <pt x="253" y="442" on="0"/>
        <pt x="310" y="419" on="0"/>
        <pt x="352" y="377" on="0"/>
        <pt x="376" y="318" on="0"/>
        <pt x="376" y="283" on="1"/>
      </contour>
      <contour>
        <pt x="300" y="194" on="1"/>
        <pt x="288" y="194" on="0"/>
        <pt x="227" y="189" on="0"/>
        <pt x="163" y="173" on="0"/>
        <pt x="113" y="142" on="0"/>
        <pt x="113" y="116" on="1"/>
        <pt x="113" y="90" on="0"/>
        <pt x="159" y="53" on="0"/>
        <pt x="197" y="53" on="1"/>
        <pt x="208" y="53" on="0"/>
        <pt x="250" y="59" on="0"/>
        <pt x="270" y="72" on="1"/>
        <pt x="293" y="86" on="0"/>
        <pt x="300" y="118" on="0"/>
        <pt x="300" y="132" on="1"/>
      </contour>
    </TTGlyph>
    <TTGlyph name="acute" xMin="191" yMin="518" xMax="391" yMax="694">
      <contour>
        <pt x="252" y="518" on="1"/>
        <pt x="191" y="518" on="1"/>
        <pt x="315" y="694" on="1"/>
        <pt x="391" y="694" on="1"/>
      </contour>
    </TTGlyph>
    <TTGlyph name="ae" xMin="42" yMin="-8" xMax="652" yMax="442">
      <contour>
        <pt x="377" y="219" on="1"/>
        <pt x="377" y="182" on="0"/>
        <pt x="399" y="121" on="0"/>
        <pt x="435" y="77" on="0"/>
        <pt x="482" y="53" on="0"/>
        <pt x="509" y="53" on="1"/>
        <pt x="536" y="53" on="0"/>
        <pt x="607" y="75" on="0"/>
        <pt x="641" y="105" on="1"/>
        <pt x="641" y="104" on="0"/>
        <pt x="642" y="92" on="0"/>
        <pt x="643" y="79" on="0"/>
        <pt x="644" y="69" on="0"/>
        <pt x="644" y="68" on="1"/>
        <pt x="645" y="67" on="0"/>
        <pt x="647" y="44" on="0"/>
        <pt x="647" y="41" on="1"/>
        <pt x="615" y="15" on="0"/>
        <pt x="543" y="-8" on="0"/>
        <pt x="508" y="-8" on="1"/>
        <pt x="473" y="-8" on="0"/>
        <pt x="418" y="13" on="0"/>
        <pt x="379" y="38" on="0"/>
        <pt x="358" y="61" on="0"/>
        <pt x="356" y="63" on="1"/>
        <pt x="340" y="42" on="0"/>
        <pt x="291" y="15" on="0"/>
        <pt x="234" y="-2" on="0"/>
        <pt x="175" y="-8" on="0"/>
        <pt x="151" y="-8" on="1"/>
        <pt x="117" y="-8" on="0"/>
        <pt x="74" y="21" on="0"/>
        <pt x="50" y="61" on="0"/>
        <pt x="42" y="103" on="0"/>
        <pt x="42" y="116" on="1"/>
        <pt x="42" y="152" on="0"/>
        <pt x="92" y="202" on="0"/>
        <pt x="168" y="232" on="0"/>
        <pt x="259" y="246" on="0"/>
        <pt x="301" y="246" on="1"/>
        <pt x="301" y="282" on="1"/>
        <pt x="301" y="330" on="0"/>
        <pt x="255" y="383" on="0"/>
        <pt x="219" y="383" on="1"/>
        <pt x="172" y="383" on="0"/>
        <pt x="106" y="356" on="0"/>
        <pt x="78" y="336" on="1"/>
        <pt x="72" y="402" on="1"/>
        <pt x="117" y="428" on="0"/>
        <pt x="193" y="442" on="0"/>
        <pt x="220" y="442" on="1"/>
        <pt x="268" y="442" on="0"/>
        <pt x="333" y="402" on="0"/>
        <pt x="353" y="371" on="1"/>
        <pt x="385" y="409" on="0"/>
        <pt x="460" y="442" on="0"/>
        <pt x="493" y="442" on="1"/>
        <pt x="533" y="442" on="0"/>
        <pt x="587" y="414" on="0"/>
        <pt x="623" y="369" on="0"/>
        <pt x="642" y="316" on="0"/>
        <pt x="651" y="267" on="0"/>
        <pt x="652" y="227" on="0"/>
        <pt x="652" y="219" on="1"/>
      </contour>
      <contour>
        <pt x="585" y="274" on="1"/>
        <pt x="581" y="304" on="0"/>
        <pt x="562" y="345" on="0"/>
        <pt x="536" y="370" on="0"/>
        <pt x="507" y="381" on="0"/>
        <pt x="493" y="381" on="1"/>
        <pt x="460" y="381" on="0"/>
        <pt x="398" y="325" on="0"/>
        <pt x="384" y="274" on="1"/>
      </contour>
      <contour>
        <pt x="302" y="192" on="1"/>
        <pt x="286" y="191" on="0"/>
        <pt x="223" y="186" on="0"/>
        <pt x="161" y="171" on="0"/>
        <pt x="115" y="142" on="0"/>
        <pt x="115" y="117" on="1"/>
        <pt x="115" y="91" on="0"/>
        <pt x="160" y="53" on="0"/>
        <pt x="198" y="53" on="1"/>
        <pt x="201" y="53" on="0"/>
        <pt x="236" y="55" on="0"/>
        <pt x="274" y="69" on="0"/>
        <pt x="305" y="98" on="0"/>
        <pt x="305" y="125" on="1"/>
        <pt x="305" y="138" on="0"/>
        <pt x="305" y="161" on="0"/>
        <pt x="303" y="175" on="1"/>
      </contour>
    </TTGlyph>
    <TTGlyph name="ampersand" xMin="39" yMin="-16" xMax="659" yMax="710">
      <contour>
        <pt x="626" y="377" on="1"/>
        <pt x="607" y="305" on="0"/>
        <pt x="551" y="197" on="0"/>
        <pt x="499" y="124" on="0"/>
        <pt x="459" y="86" on="0"/>
        <pt x="457" y="84" on="1"/>
        <pt x="492" y="59" on="0"/>
        <pt x="536" y="48" on="0"/>
        <pt x="552" y="48" on="1"/>
        <pt x="563" y="48" on="0"/>
        <pt x="621" y="54" on="0"/>
        <pt x="659" y="65" on="1"/>
        <pt x="659" y="-1" on="1"/>
        <pt x="619" y="-12" on="0"/>
        <pt x="561" y="-16" on="0"/>
        <pt x="550" y="-16" on="1"/>
        <pt x="518" y="-16" on="0"/>
        <pt x="442" y="6" on="0"/>
        <pt x="399" y="40" on="1"/>
        <pt x="361" y="15" on="0"/>
        <pt x="264" y="-16" on="0"/>
        <pt x="212" y="-16" on="1"/>
        <pt x="173" y="-16" on="0"/>
        <pt x="110" y="11" on="0"/>
        <pt x="64" y="56" on="0"/>
        <pt x="39" y="115" on="0"/>
        <pt x="39" y="147" on="1"/>
        <pt x="39" y="173" on="0"/>
        <pt x="52" y="212" on="0"/>
        <pt x="70" y="242" on="0"/>
        <pt x="89" y="262" on="0"/>
        <pt x="95" y="267" on="1"/>
        <pt x="103" y="275" on="0"/>
        <pt x="128" y="299" on="0"/>
        <pt x="154" y="323" on="0"/>
        <pt x="176" y="343" on="0"/>
        <pt x="181" y="347" on="1"/>
        <pt x="167" y="389" on="0"/>
        <pt x="150" y="470" on="0"/>
        <pt x="150" y="515" on="1"/>
        <pt x="150" y="553" on="0"/>
        <pt x="168" y="624" on="0"/>
        <pt x="202" y="678" on="0"/>
        <pt x="252" y="710" on="0"/>
        <pt x="284" y="710" on="1"/>
        <pt x="313" y="710" on="0"/>
        <pt x="361" y="683" on="0"/>
        <pt x="394" y="640" on="0"/>
        <pt x="412" y="585" on="0"/>
        <pt x="412" y="557" on="1"/>
        <pt x="412" y="522" on="0"/>
        <pt x="375" y="458" on="0"/>
        <pt x="350" y="429" on="1"/>
        <pt x="339" y="415" on="0"/>
        <pt x="310" y="385" on="0"/>
        <pt x="284" y="359" on="0"/>
        <pt x="265" y="342" on="0"/>
        <pt x="265" y="342" on="1"/>
        <pt x="285" y="302" on="0"/>
        <pt x="330" y="231" on="0"/>
        <pt x="371" y="175" on="0"/>
        <pt x="404" y="136" on="0"/>
        <pt x="411" y="128" on="1"/>
        <pt x="416" y="133" on="0"/>
        <pt x="451" y="166" on="0"/>
        <pt x="497" y="231" on="0"/>
        <pt x="545" y="328" on="0"/>
        <pt x="564" y="395" on="1"/>
      </contour>
      <contour>
        <pt x="241" y="404" on="1"/>
        <pt x="257" y="419" on="0"/>
        <pt x="291" y="455" on="0"/>
        <pt x="320" y="494" on="0"/>
        <pt x="339" y="536" on="0"/>
        <pt x="339" y="558" on="1"/>
        <pt x="339" y="564" on="0"/>
        <pt x="336" y="593" on="0"/>
        <pt x="325" y="625" on="0"/>
        <pt x="303" y="649" on="0"/>
        <pt x="283" y="649" on="1"/>
        <pt x="273" y="649" on="0"/>
        <pt x="249" y="639" on="0"/>
        <pt x="229" y="616" on="0"/>
        <pt x="216" y="578" on="0"/>
        <pt x="216" y="549" on="1"/>
        <pt x="216" y="523" on="0"/>
        <pt x="227" y="446" on="0"/>
      </contour>
      <contour>
        <pt x="207" y="288" on="1"/>
        <pt x="192" y="275" on="0"/>
        <pt x="164" y="249" on="0"/>
        <pt x="150" y="235" on="1"/>
        <pt x="142" y="228" on="0"/>
        <pt x="115" y="189" on="0"/>
        <pt x="115" y="153" on="1"/>
        <pt x="115" y="137" on="0"/>
        <pt x="126" y="100" on="0"/>
        <pt x="150" y="68" on="0"/>
        <pt x="187" y="48" on="0"/>
        <pt x="213" y="48" on="1"/>
        <pt x="249" y="48" on="0"/>
        <pt x="318" y="68" on="0"/>
        <pt x="350" y="85" on="1"/>
        <pt x="325" y="113" on="0"/>
        <pt x="280" y="170" on="0"/>
        <pt x="244" y="224" on="0"/>
        <pt x="216" y="270" on="0"/>
      </contour>
    </TTGlyph>
    <TTGlyph name="asterisk" xMin="59" yMin="319" xMax="410" yMax="749">
      <contour>
        <pt x="268" y="353" on="1"/>
        <pt x="268" y="335" on="0"/>
        <pt x="246" y="319" on="0"/>
        <pt x="235" y="319" on="1"/>
        <pt x="222" y="319" on="0"/>
        <pt x="201" y="336" on="0"/>
        <pt x="201" y="353" on="1"/>
        <pt x="209" y="488" on="1"/>
        <pt x="117" y="420" on="1"/>
        <pt x="104" y="410" on="0"/>
        <pt x="93" y="410" on="1"/>
        <pt x="81" y="410" on="0"/>
        <pt x="59" y="430" on="0"/>
        <pt x="59" y="445" on="1"/>
        <pt x="59" y="456" on="0"/>
        <pt x="71" y="471" on="0"/>
        <pt x="80" y="476" on="1"/>
        <pt x="188" y="534" on="1"/>
        <pt x="81" y="592" on="1"/>
        <pt x="75" y="595" on="0"/>
        <pt x="59" y="609" on="0"/>
        <pt x="59" y="623" on="1"/>
        <pt x="59" y="638" on="0"/>
        <pt x="81" y="658" on="0"/>
        <pt x="93" y="658" on="1"/>
        <pt x="100" y="658" on="0"/>
        <pt x="108" y="654" on="0"/>
        <pt x="117" y="647" on="1"/>
        <pt x="209" y="580" on="1"/>
        <pt x="201" y="715" on="1"/>
        <pt x="201" y="733" on="0"/>
        <pt x="223" y="749" on="0"/>
        <pt x="234" y="749" on="1"/>
        <pt x="247" y="749" on="0"/>
        <pt x="268" y="732" on="0"/>
        <pt x="268" y="715" on="1"/>
        <pt x="260" y="580" on="1"/>
        <pt x="352" y="648" on="1"/>
        <pt x="365" y="658" on="0"/>
        <pt x="376" y="658" on="1"/>
        <pt x="388" y="658" on="0"/>
        <pt x="410" y="638" on="0"/>
        <pt x="410" y="623" on="1"/>
        <pt x="410" y="612" on="0"/>
        <pt x="398" y="597" on="0"/>
        <pt x="389" y="592" on="1"/>
        <pt x="281" y="534" on="1"/>
        <pt x="388" y="476" on="1"/>
        <pt x="394" y="473" on="0"/>
        <pt x="410" y="459" on="0"/>
        <pt x="410" y="445" on="1"/>
        <pt x="410" y="430" on="0"/>
        <pt x="388" y="410" on="0"/>
        <pt x="376" y="410" on="1"/>
        <pt x="369" y="410" on="0"/>
        <pt x="361" y="414" on="0"/>
        <pt x="352" y="421" on="1"/>
        <pt x="260" y="488" on="1"/>
      </contour>
    </TTGlyph>
    <TTGlyph name="at" xMin="52" yMin="-8" xMax="573" yMax="702">
      <contour>
        <pt x="573" y="87" on="1"/>
        <pt x="563" y="75" on="0"/>
        <pt x="526" y="42" on="0"/>
        <pt x="473" y="12" on="0"/>
        <pt x="406" y="-8" on="0"/>
        <pt x="365" y="-8" on="1"/>
        <pt x="302" y="-8" on="0"/>
        <pt x="188" y="46" on="0"/>
        <pt x="103" y="141" on="0"/>
        <pt x="52" y="271" on="0"/>
        <pt x="52" y="347" on="1"/>
        <pt x="52" y="424" on="0"/>
        <pt x="104" y="555" on="0"/>
        <pt x="190" y="649" on="0"/>
        <pt x="303" y="702" on="0"/>
        <pt x="363" y="702" on="1"/>
        <pt x="416" y="702" on="0"/>
        <pt x="487" y="663" on="0"/>
        <pt x="534" y="602" on="0"/>
        <pt x="559" y="525" on="0"/>
        <pt x="571" y="450" on="0"/>
        <pt x="573" y="384" on="0"/>
        <pt x="573" y="363" on="1"/>
        <pt x="573" y="293" on="0"/>
        <pt x="535" y="200" on="0"/>
        <pt x="481" y="144" on="0"/>
        <pt x="421" y="122" on="0"/>
        <pt x="398" y="122" on="1"/>
        <pt x="364" y="122" on="0"/>
        <pt x="301" y="156" on="0"/>
        <pt x="252" y="216" on="0"/>
        <pt x="223" y="298" on="0"/>
        <pt x="223" y="347" on="1"/>
        <pt x="223" y="396" on="0"/>
        <pt x="252" y="478" on="0"/>
        <pt x="300" y="538" on="0"/>
        <pt x="364" y="572" on="0"/>
        <pt x="398" y="572" on="1"/>
        <pt x="435" y="572" on="0"/>
        <pt x="473" y="550" on="1"/>
        <pt x="454" y="603" on="0"/>
        <pt x="392" y="641" on="0"/>
        <pt x="363" y="641" on="1"/>
        <pt x="318" y="641" on="0"/>
        <pt x="233" y="598" on="0"/>
        <pt x="168" y="520" on="0"/>
        <pt x="128" y="412" on="0"/>
        <pt x="128" y="347" on="1"/>
        <pt x="128" y="286" on="0"/>
        <pt x="165" y="179" on="0"/>
        <pt x="230" y="99" on="0"/>
        <pt x="317" y="53" on="0"/>
        <pt x="367" y="53" on="1"/>
        <pt x="435" y="53" on="0"/>
        <pt x="499" y="82" on="1"/>
        <pt x="507" y="86" on="0"/>
        <pt x="515" y="87" on="0"/>
        <pt x="526" y="87" on="1"/>
      </contour>
      <contour>
        <pt x="398" y="183" on="1"/>
        <pt x="418" y="183" on="0"/>
        <pt x="454" y="208" on="0"/>
        <pt x="481" y="252" on="0"/>
        <pt x="497" y="312" on="0"/>
        <pt x="497" y="347" on="1"/>
        <pt x="497" y="382" on="0"/>
        <pt x="481" y="442" on="0"/>
        <pt x="454" y="486" on="0"/>
        <pt x="418" y="511" on="0"/>
        <pt x="398" y="511" on="1"/>
        <pt x="378" y="511" on="0"/>
        <pt x="342" y="486" on="0"/>
        <pt x="315" y="442" on="0"/>
        <pt x="299" y="382" on="0"/>
        <pt x="299" y="347" on="1"/>
        <pt x="299" y="312" on="0"/>
        <pt x="315" y="252" on="0"/>
        <pt x="342" y="208" on="0"/>
        <pt x="378" y="183" on="0"/>
      </contour>
    </TTGlyph>
    <TTGlyph name="b" xMin="75" yMin="-8" xMax="450" yMax="694">
      <contour>
        <pt x="149" y="385" on="1"/>
        <pt x="174" y="405" on="0"/>
        <pt x="253" y="438" on="0"/>
        <pt x="301" y="438" on="1"/>
        <pt x="334" y="438" on="0"/>
        <pt x="389" y="401" on="0"/>
        <pt x="428" y="340" on="0"/>
        <pt x="450" y="260" on="0"/>
        <pt x="450" y="216" on="1"/>
        <pt x="450" y="168" on="0"/>
        <pt x="423" y="86" on="0"/>
        <pt x="375" y="26" on="0"/>
        <pt x="312" y="-8" on="0"/>
        <pt x="276" y="-8" on="1"/>
        <pt x="245" y="-8" on="0"/>
        <pt x="180" y="17" on="0"/>
        <pt x="151" y="45" on="1"/>
        <pt x="151" y="0" on="1"/>
        <pt x="75" y="0" on="1"/>
        <pt x="75" y="694" on="1"/>
        <pt x="149" y="694" on="1"/>
      </contour>
      <contour>
        <pt x="151" y="128" on="1"/>
        <pt x="151" y="111" on="0"/>
        <pt x="167" y="83" on="0"/>
        <pt x="192" y="64" on="0"/>
        <pt x="223" y="53" on="0"/>
        <pt x="239" y="53" on="1"/>
        <pt x="260" y="53" on="0"/>
        <pt x="307" y="69" on="0"/>
        <pt x="347" y="106" on="0"/>
        <pt x="374" y="169" on="0"/>
        <pt x="374" y="216" on="1"/>
        <pt x="374" y="260" on="0"/>
        <pt x="351" y="322" on="0"/>
        <pt x="315" y="360" on="0"/>
        <pt x="270" y="377" on="0"/>
        <pt x="248" y="377" on="1"/>
        <pt x="215" y="377" on="0"/>
        <pt x="168" y="347" on="0"/>
        <pt x="151" y="326" on="1"/>
      </contour>
    </TTGlyph>
    <TTGlyph name="bracketleft" xMin="93" yMin="-249" xMax="252" yMax="749">
      <contour>
        <pt x="93" y="-249" on="1"/>
        <pt x="93" y="749" on="1"/>
        <pt x="252" y="749" on="1"/>
        <pt x="252" y="688" on="1"/>
        <pt x="166" y="688" on="1"/>
        <pt x="166" y="-188" on="1"/>
        <pt x="252" y="-188" on="1"/>
        <pt x="252" y="-249" on="1"/>
      </contour>
    </TTGlyph>
    <TTGlyph name="bracketright" xMin="20" yMin="-249" xMax="179" yMax="749">
      <contour>
        <pt x="179" y="-249" on="1"/>
        <pt x="20" y="-249" on="1"/>
        <pt x="20" y="-188" on="1"/>
        <pt x="106" y="-188" on="1"/>
        <pt x="106" y="688" on="1"/>
        <pt x="20" y="688" on="1"/>
        <pt x="20" y="749" on="1"/>
        <pt x="179" y="749" on="1"/>
      </contour>
    </TTGlyph>
    <TTGlyph name="breve" xMin="74" yMin="501" xMax="395" yMax="694">
      <contour>
        <pt x="395" y="694" on="1"/>
        <pt x="394" y="650" on="0"/>
        <pt x="367" y="579" on="0"/>
        <pt x="324" y="528" on="0"/>
        <pt x="266" y="501" on="0"/>
        <pt x="234" y="501" on="1"/>
        <pt x="203" y="501" on="0"/>
        <pt x="146" y="528" on="0"/>
        <pt x="102" y="577" on="0"/>
        <pt x="75" y="649" on="0"/>
        <pt x="74" y="694" on="1"/>
        <pt x="135" y="694" on="1"/>
        <pt x="137" y="635" on="0"/>
        <pt x="194" y="567" on="0"/>
        <pt x="235" y="567" on="1"/>
        <pt x="273" y="567" on="0"/>
        <pt x="332" y="634" on="0"/>
        <pt x="334" y="694" on="1"/>
      </contour>
    </TTGlyph>
    <TTGlyph name="c" xMin="33" yMin="-8" xMax="391" yMax="442">
      <contour>
        <pt x="374" y="337" on="1"/>
        <pt x="340" y="360" on="0"/>
        <pt x="283" y="379" on="0"/>
        <pt x="242" y="379" on="1"/>
        <pt x="205" y="379" on="0"/>
        <pt x="154" y="348" on="0"/>
        <pt x="122" y="301" on="0"/>
        <pt x="109" y="243" on="0"/>
        <pt x="109" y="216" on="1"/>
        <pt x="109" y="181" on="0"/>
        <pt x="127" y="122" on="0"/>
        <pt x="161" y="79" on="0"/>
        <pt x="209" y="55" on="0"/>
        <pt x="238" y="55" on="1"/>
        <pt x="319" y="55" on="0"/>
        <pt x="385" y="106" on="1"/>
        <pt x="391" y="40" on="1"/>
        <pt x="362" y="20" on="0"/>
        <pt x="288" y="-8" on="0"/>
        <pt x="237" y="-8" on="1"/>
        <pt x="193" y="-8" on="0"/>
        <pt x="118" y="28" on="0"/>
        <pt x="64" y="89" on="0"/>
        <pt x="33" y="170" on="0"/>
        <pt x="33" y="215" on="1"/>
        <pt x="33" y="258" on="0"/>
        <pt x="61" y="339" on="0"/>
        <pt x="115" y="403" on="0"/>
        <pt x="192" y="442" on="0"/>
        <pt x="241" y="442" on="1"/>
        <pt x="245" y="442" on="0"/>
        <pt x="264" y="442" on="0"/>
        <pt x="288" y="439" on="0"/>
        <pt x="315" y="435" on="0"/>
        <pt x="327" y="430" on="1"/>
        <pt x="332" y="429" on="0"/>
        <pt x="351" y="420" on="0"/>
        <pt x="370" y="411" on="0"/>
        <pt x="385" y="402" on="0"/>
        <pt x="385" y="399" on="1"/>
      </contour>
    </TTGlyph>
    <TTGlyph name="caron" xMin="72" yMin="468" xMax="397" yMax="644">
      <contour>
        <pt x="265" y="468" on="1"/>
        <pt x="204" y="468" on="1"/>
        <pt x="72" y="644" on="1"/>
        <pt x="133" y="644" on="1"/>
        <pt x="235" y="516" on="1"/>
        <pt x="336" y="644" on="1"/>
        <pt x="397" y="644" on="1"/>
      </contour>
    </TTGlyph>
    <TTGlyph name="cedilla" xMin="135" yMin="-186" xMax="265" yMax="-18">
      <contour>
        <pt x="203" y="-186" on="1"/>
        <pt x="135" y="-186" on="1"/>
        <pt x="204" y="-18" on="1"/>
        <pt x="265" y="-18" on="1"/>
      </contour>
    </TTGlyph>
    <TTGlyph name="circumflex" xMin="72" yMin="518" xMax="397" yMax="694">
      <contour>
        <pt x="397" y="518" on="1"/>
        <pt x="336" y="518" on="1"/>
        <pt x="234" y="646" on="1"/>
        <pt x="133" y="518" on="1"/>
        <pt x="72" y="518" on="1"/>
        <pt x="204" y="694" on="1"/>
        <pt x="265" y="694" on="1"/>
      </contour>
    </TTGlyph>
    <TTGlyph name="colon" xMin="90" yMin="0" xMax="170" yMax="430">
      <contour>
        <pt x="170" y="350" on="1"/>
        <pt x="90" y="350" on="1"/>
        <pt x="90" y="430" on="1"/>
        <pt x="170" y="430" on="1"/>
      </contour>
      <contour>
        <pt x="170" y="80" on="1"/>
        <pt x="170" y="0" on="1"/>
        <pt x="90" y="0" on="1"/>
        <pt x="90" y="80" on="1"/>
      </contour>
    </TTGlyph>
    <TTGlyph name="comma" xMin="89" yMin="-125" xMax="170" yMax="80">
      <contour>
        <pt x="129" y="-125" on="1"/>
        <pt x="89" y="-125" on="1"/>
        <pt x="115" y="0" on="1"/>
        <pt x="90" y="0" on="1"/>
        <pt x="90" y="80" on="1"/>
        <pt x="170" y="80" on="1"/>
        <pt x="170" y="1" on="1"/>
      </contour>
    </TTGlyph>
    <TTGlyph name="d" xMin="33" yMin="-8" xMax="408" yMax="694">
      <contour>
        <pt x="408" y="0" on="1"/>
        <pt x="332" y="0" on="1"/>
        <pt x="332" y="50" on="1"/>
        <pt x="323" y="42" on="0"/>
        <pt x="297" y="22" on="0"/>
        <pt x="262" y="4" on="0"/>
        <pt x="219" y="-8" on="0"/>
        <pt x="193" y="-8" on="1"/>
        <pt x="160" y="-8" on="0"/>
        <pt x="101" y="27" on="0"/>
        <pt x="58" y="87" on="0"/>
        <pt x="33" y="169" on="0"/>
        <pt x="33" y="215" on="1"/>
        <pt x="33" y="262" on="0"/>
        <pt x="58" y="343" on="0"/>
        <pt x="102" y="403" on="0"/>
        <pt x="162" y="438" on="0"/>
        <pt x="196" y="438" on="1"/>
        <pt x="238" y="438" on="0"/>
        <pt x="311" y="408" on="0"/>
        <pt x="334" y="388" on="1"/>
        <pt x="334" y="694" on="1"/>
        <pt x="408" y="694" on="1"/>
      </contour>
      <contour>
        <pt x="332" y="329" on="1"/>
        <pt x="316" y="352" on="0"/>
        <pt x="272" y="377" on="0"/>
        <pt x="244" y="377" on="1"/>
        <pt x="223" y="377" on="0"/>
        <pt x="176" y="362" on="0"/>
        <pt x="136" y="324" on="0"/>
        <pt x="109" y="261" on="0"/>
        <pt x="109" y="214" on="1"/>
        <pt x="109" y="169" on="0"/>
        <pt x="133" y="107" on="0"/>
        <pt x="170" y="69" on="0"/>
        <pt x="214" y="53" on="0"/>
        <pt x="234" y="53" on="1"/>
        <pt x="250" y="53" on="0"/>
        <pt x="285" y="65" on="0"/>
        <pt x="313" y="87" on="0"/>
        <pt x="332" y="116" on="0"/>
        <pt x="332" y="134" on="1"/>
      </contour>
    </TTGlyph>
    <TTGlyph name="dieresis" xMin="103" yMin="577" xMax="366" yMax="658">
      <contour>
        <pt x="184" y="577" on="1"/>
        <pt x="103" y="577" on="1"/>
        <pt x="103" y="658" on="1"/>
        <pt x="184" y="658" on="1"/>
      </contour>
      <contour>
        <pt x="366" y="577" on="1"/>
        <pt x="285" y="577" on="1"/>
        <pt x="285" y="658" on="1"/>
        <pt x="366" y="658" on="1"/>
      </contour>
    </TTGlyph>
    <TTGlyph name="dollar" xMin="42" yMin="-55" xMax="417" yMax="749">
      <contour>
        <pt x="264" y="396" on="1"/>
        <pt x="305" y="387" on="0"/>
        <pt x="363" y="345" on="0"/>
        <pt x="400" y="289" on="0"/>
        <pt x="417" y="225" on="0"/>
        <pt x="417" y="195" on="1"/>
        <pt x="417" y="162" on="0"/>
        <pt x="397" y="97" on="0"/>
        <pt x="359" y="42" on="0"/>
        <pt x="302" y="3" on="0"/>
        <pt x="264" y="-5" on="1"/>
        <pt x="264" y="-55" on="1"/>
        <pt x="206" y="-55" on="1"/>
        <pt x="206" y="-7" on="1"/>
        <pt x="151" y="-1" on="0"/>
        <pt x="71" y="38" on="0"/>
        <pt x="42" y="61" on="1"/>
        <pt x="54" y="128" on="1"/>
        <pt x="85" y="98" on="0"/>
        <pt x="163" y="63" on="0"/>
        <pt x="206" y="58" on="1"/>
        <pt x="206" y="325" on="1"/>
        <pt x="155" y="337" on="0"/>
        <pt x="94" y="387" on="0"/>
        <pt x="62" y="444" on="0"/>
        <pt x="52" y="497" on="0"/>
        <pt x="52" y="513" on="1"/>
        <pt x="52" y="546" on="0"/>
        <pt x="74" y="608" on="0"/>
        <pt x="114" y="658" on="0"/>
        <pt x="171" y="694" on="0"/>
        <pt x="206" y="700" on="1"/>
        <pt x="206" y="749" on="1"/>
        <pt x="264" y="749" on="1"/>
        <pt x="264" y="701" on="1"/>
        <pt x="296" y="698" on="0"/>
        <pt x="346" y="681" on="0"/>
        <pt x="381" y="661" on="0"/>
        <pt x="400" y="645" on="0"/>
        <pt x="400" y="643" on="1"/>
        <pt x="389" y="581" on="1"/>
        <pt x="366" y="601" on="0"/>
        <pt x="306" y="633" on="0"/>
        <pt x="264" y="637" on="1"/>
      </contour>
      <contour>
        <pt x="206" y="634" on="1"/>
        <pt x="163" y="622" on="0"/>
        <pt x="123" y="556" on="0"/>
        <pt x="123" y="523" on="1"/>
        <pt x="123" y="486" on="0"/>
        <pt x="166" y="423" on="0"/>
        <pt x="206" y="412" on="1"/>
      </contour>
      <contour>
        <pt x="264" y="61" on="1"/>
        <pt x="287" y="68" on="0"/>
        <pt x="318" y="96" on="0"/>
        <pt x="337" y="131" on="0"/>
        <pt x="346" y="168" on="0"/>
        <pt x="346" y="185" on="1"/>
        <pt x="346" y="202" on="0"/>
        <pt x="337" y="240" on="0"/>
        <pt x="318" y="274" on="0"/>
        <pt x="287" y="302" on="0"/>
        <pt x="264" y="309" on="1"/>
      </contour>
    </TTGlyph>
    <TTGlyph name="dotaccent" xMin="88" yMin="574" xMax="172" yMax="658">
      <contour>
        <pt x="172" y="574" on="1"/>
        <pt x="88" y="574" on="1"/>
        <pt x="88" y="658" on="1"/>
        <pt x="172" y="658" on="1"/>
      </contour>
    </TTGlyph>
    <TTGlyph name="dotlessi" xMin="74" yMin="0" xMax="148" yMax="430">
      <contour>
        <pt x="148" y="0" on="1"/>
        <pt x="74" y="0" on="1"/>
        <pt x="74" y="430" on="1"/>
        <pt x="148" y="430" on="1"/>
      </contour>
    </TTGlyph>
    <TTGlyph name="e" xMin="30" yMin="-8" xMax="391" yMax="442">
      <contour>
        <pt x="101" y="219" on="1"/>
        <pt x="102" y="177" on="0"/>
        <pt x="127" y="115" on="0"/>
        <pt x="165" y="73" on="0"/>
        <pt x="213" y="53" on="0"/>
        <pt x="237" y="53" on="1"/>
        <pt x="267" y="53" on="0"/>
        <pt x="344" y="76" on="0"/>
        <pt x="380" y="105" on="1"/>
        <pt x="380" y="104" on="0"/>
        <pt x="381" y="92" on="0"/>
        <pt x="382" y="79" on="0"/>
        <pt x="383" y="69" on="0"/>
        <pt x="383" y="68" on="1"/>
        <pt x="384" y="67" on="0"/>
        <pt x="386" y="44" on="0"/>
        <pt x="386" y="41" on="1"/>
        <pt x="348" y="14" on="0"/>
        <pt x="270" y="-8" on="0"/>
        <pt x="236" y="-8" on="1"/>
        <pt x="193" y="-8" on="0"/>
        <pt x="118" y="27" on="0"/>
        <pt x="62" y="89" on="0"/>
        <pt x="30" y="171" on="0"/>
        <pt x="30" y="217" on="1"/>
        <pt x="30" y="265" on="0"/>
        <pt x="61" y="347" on="0"/>
        <pt x="113" y="407" on="0"/>
        <pt x="183" y="442" on="0"/>
        <pt x="222" y="442" on="1"/>
        <pt x="270" y="442" on="0"/>
        <pt x="335" y="403" on="0"/>
        <pt x="374" y="340" on="0"/>
        <pt x="391" y="260" on="0"/>
        <pt x="391" y="219" on="1"/>
      </contour>
      <contour>
        <pt x="325" y="274" on="1"/>
        <pt x="318" y="313" on="0"/>
        <pt x="289" y="357" on="0"/>
        <pt x="256" y="377" on="0"/>
        <pt x="228" y="381" on="0"/>
        <pt x="222" y="381" on="1"/>
        <pt x="201" y="381" on="0"/>
        <pt x="164" y="363" on="0"/>
        <pt x="135" y="333" on="0"/>
        <pt x="114" y="295" on="0"/>
        <pt x="109" y="274" on="1"/>
      </contour>
    </TTGlyph>
    <TTGlyph name="eight" xMin="39" yMin="-16" xMax="430" yMax="672">
      <contour>
        <pt x="302" y="355" on="1"/>
        <pt x="335" y="342" on="0"/>
        <pt x="384" y="304" on="0"/>
        <pt x="415" y="259" on="0"/>
        <pt x="430" y="209" on="0"/>
        <pt x="430" y="184" on="1"/>
        <pt x="430" y="144" on="0"/>
        <pt x="400" y="71" on="0"/>
        <pt x="347" y="16" on="0"/>
        <pt x="275" y="-16" on="0"/>
        <pt x="234" y="-16" on="1"/>
        <pt x="194" y="-16" on="0"/>
        <pt x="123" y="16" on="0"/>
        <pt x="70" y="70" on="0"/>
        <pt x="39" y="143" on="0"/>
        <pt x="39" y="184" on="1"/>
        <pt x="39" y="205" on="0"/>
        <pt x="51" y="253" on="0"/>
        <pt x="81" y="300" on="0"/>
        <pt x="130" y="341" on="0"/>
        <pt x="167" y="355" on="1"/>
        <pt x="109" y="375" on="0"/>
        <pt x="52" y="455" on="0"/>
        <pt x="52" y="499" on="1"/>
        <pt x="52" y="533" on="0"/>
        <pt x="79" y="595" on="0"/>
        <pt x="128" y="643" on="0"/>
        <pt x="195" y="672" on="0"/>
        <pt x="235" y="672" on="1"/>
        <pt x="273" y="672" on="0"/>
        <pt x="340" y="644" on="0"/>
        <pt x="389" y="597" on="0"/>
        <pt x="417" y="534" on="0"/>
        <pt x="417" y="499" on="1"/>
        <pt x="417" y="454" on="0"/>
        <pt x="359" y="374" on="0"/>
      </contour>
      <contour>
        <pt x="235" y="385" on="1"/>
        <pt x="283" y="385" on="0"/>
        <pt x="346" y="444" on="0"/>
        <pt x="346" y="498" on="1"/>
        <pt x="346" y="553" on="0"/>
        <pt x="282" y="611" on="0"/>
        <pt x="235" y="611" on="1"/>
        <pt x="184" y="611" on="0"/>
        <pt x="123" y="550" on="0"/>
        <pt x="123" y="498" on="1"/>
        <pt x="123" y="447" on="0"/>
        <pt x="184" y="385" on="0"/>
      </contour>
      <contour>
        <pt x="235" y="46" on="1"/>
        <pt x="254" y="46" on="0"/>
        <pt x="295" y="60" on="0"/>
        <pt x="330" y="93" on="0"/>
        <pt x="352" y="146" on="0"/>
        <pt x="352" y="185" on="1"/>
        <pt x="352" y="223" on="0"/>
        <pt x="330" y="276" on="0"/>
        <pt x="296" y="309" on="0"/>
        <pt x="254" y="324" on="0"/>
        <pt x="234" y="324" on="1"/>
        <pt x="216" y="324" on="0"/>
        <pt x="174" y="310" on="0"/>
        <pt x="140" y="277" on="0"/>
        <pt x="117" y="224" on="0"/>
        <pt x="117" y="185" on="1"/>
        <pt x="117" y="148" on="0"/>
        <pt x="138" y="95" on="0"/>
        <pt x="171" y="61" on="0"/>
        <pt x="214" y="46" on="0"/>
      </contour>
    </TTGlyph>
    <TTGlyph name="emdash" xMin="0" yMin="235" xMax="939" yMax="296">
      <contour>
        <pt x="0" y="235" on="1"/>
        <pt x="0" y="296" on="1"/>
        <pt x="939" y="296" on="1"/>
        <pt x="939" y="235" on="1"/>
      </contour>
    </TTGlyph>
    <TTGlyph name="endash" xMin="0" yMin="235" xMax="469" yMax="296">
      <contour>
        <pt x="0" y="235" on="1"/>
        <pt x="0" y="296" on="1"/>
        <pt x="469" y="296" on="1"/>
        <pt x="469" y="235" on="1"/>
      </contour>
    </TTGlyph>
    <TTGlyph name="equal" xMin="52" yMin="143" xMax="678" yMax="356">
      <contour>
        <pt x="82" y="321" on="1"/>
        <pt x="71" y="321" on="0"/>
        <pt x="52" y="325" on="0"/>
        <pt x="52" y="338" on="1"/>
        <pt x="52" y="352" on="0"/>
        <pt x="73" y="356" on="0"/>
        <pt x="86" y="356" on="1"/>
        <pt x="644" y="356" on="1"/>
        <pt x="657" y="356" on="0"/>
        <pt x="678" y="352" on="0"/>
        <pt x="678" y="338" on="1"/>
        <pt x="678" y="325" on="0"/>
        <pt x="659" y="321" on="0"/>
        <pt x="648" y="321" on="1"/>
      </contour>
      <contour>
        <pt x="86" y="143" on="1"/>
        <pt x="73" y="143" on="0"/>
        <pt x="52" y="147" on="0"/>
        <pt x="52" y="161" on="1"/>
        <pt x="52" y="174" on="0"/>
        <pt x="71" y="178" on="0"/>
        <pt x="82" y="178" on="1"/>
        <pt x="648" y="178" on="1"/>
        <pt x="659" y="178" on="0"/>
        <pt x="678" y="174" on="0"/>
        <pt x="678" y="161" on="1"/>
        <pt x="678" y="147" on="0"/>
        <pt x="657" y="143" on="0"/>
        <pt x="644" y="143" on="1"/>
      </contour>
    </TTGlyph>
    <TTGlyph name="exclam" xMin="110" yMin="0" xMax="190" yMax="694">
      <contour>
        <pt x="182" y="169" on="1"/>
        <pt x="118" y="169" on="1"/>
        <pt x="110" y="694" on="1"/>
        <pt x="190" y="694" on="1"/>
      </contour>
      <contour>
        <pt x="110" y="80" on="1"/>
        <pt x="190" y="80" on="1"/>
        <pt x="190" y="0" on="1"/>
        <pt x="110" y="0" on="1"/>
      </contour>
    </TTGlyph>
    <TTGlyph name="exclamdown" xMin="110" yMin="-195" xMax="190" yMax="500">
      <contour>
        <pt x="190" y="420" on="1"/>
        <pt x="110" y="420" on="1"/>
        <pt x="110" y="500" on="1"/>
        <pt x="190" y="500" on="1"/>
      </contour>
      <contour>
        <pt x="118" y="331" on="1"/>
        <pt x="182" y="331" on="1"/>
        <pt x="190" y="-195" on="1"/>
        <pt x="110" y="-195" on="1"/>
      </contour>
    </TTGlyph>
    <TTGlyph name="f" xMin="25" yMin="0" xMax="325" yMax="702">
      <contour>
        <pt x="168" y="0" on="1"/>
        <pt x="94" y="0" on="1"/>
        <pt x="94" y="372" on="1"/>
        <pt x="25" y="372" on="1"/>
        <pt x="25" y="430" on="1"/>
        <pt x="94" y="430" on="1"/>
        <pt x="94" y="527" on="1"/>
        <pt x="94" y="564" on="0"/>
        <pt x="117" y="628" on="0"/>
        <pt x="159" y="675" on="0"/>
        <pt x="217" y="702" on="0"/>
        <pt x="252" y="702" on="1"/>
        <pt x="269" y="702" on="0"/>
        <pt x="308" y="698" on="0"/>
        <pt x="325" y="694" on="1"/>
        <pt x="325" y="628" on="1"/>
        <pt x="298" y="638" on="0"/>
        <pt x="259" y="641" on="0"/>
        <pt x="251" y="641" on="1"/>
        <pt x="239" y="641" on="0"/>
        <pt x="210" y="635" on="0"/>
        <pt x="184" y="617" on="0"/>
        <pt x="166" y="585" on="0"/>
        <pt x="166" y="558" on="1"/>
        <pt x="166" y="430" on="1"/>
        <pt x="269" y="430" on="1"/>
        <pt x="269" y="372" on="1"/>
        <pt x="168" y="372" on="1"/>
      </contour>
    </TTGlyph>
    <TTGlyph name="f_f" xMin="25" yMin="0" xMax="587" yMax="702">
      <contour>
        <pt x="168" y="0" on="1"/>
        <pt x="94" y="0" on="1"/>
        <pt x="94" y="372" on="1"/>
        <pt x="25" y="372" on="1"/>
        <pt x="25" y="430" on="1"/>
        <pt x="94" y="430" on="1"/>
        <pt x="94" y="527" on="1"/>
        <pt x="94" y="565" on="0"/>
        <pt x="118" y="629" on="0"/>
        <pt x="160" y="675" on="0"/>
        <pt x="219" y="702" on="0"/>
        <pt x="253" y="702" on="1"/>
        <pt x="278" y="702" on="0"/>
        <pt x="319" y="696" on="0"/>
        <pt x="327" y="694" on="1"/>
        <pt x="327" y="628" on="1"/>
        <pt x="319" y="631" on="0"/>
        <pt x="278" y="641" on="0"/>
        <pt x="252" y="641" on="1"/>
        <pt x="239" y="641" on="0"/>
        <pt x="209" y="634" on="0"/>
        <pt x="183" y="616" on="0"/>
        <pt x="166" y="584" on="0"/>
        <pt x="166" y="558" on="1"/>
        <pt x="166" y="430" on="1"/>
        <pt x="271" y="430" on="1"/>
        <pt x="271" y="372" on="1"/>
        <pt x="168" y="372" on="1"/>
      </contour>
      <contour>
        <pt x="428" y="0" on="1"/>
        <pt x="354" y="0" on="1"/>
        <pt x="354" y="527" on="1"/>
        <pt x="354" y="565" on="0"/>
        <pt x="378" y="629" on="0"/>
        <pt x="420" y="675" on="0"/>
        <pt x="479" y="702" on="0"/>
        <pt x="513" y="702" on="1"/>
        <pt x="538" y="702" on="0"/>
        <pt x="579" y="696" on="0"/>
        <pt x="587" y="694" on="1"/>
        <pt x="587" y="628" on="1"/>
        <pt x="579" y="631" on="0"/>
        <pt x="538" y="641" on="0"/>
        <pt x="512" y="641" on="1"/>
        <pt x="499" y="641" on="0"/>
        <pt x="469" y="634" on="0"/>
        <pt x="443" y="616" on="0"/>
        <pt x="426" y="584" on="0"/>
        <pt x="426" y="558" on="1"/>
        <pt x="426" y="430" on="1"/>
        <pt x="531" y="430" on="1"/>
        <pt x="531" y="372" on="1"/>
        <pt x="428" y="372" on="1"/>
      </contour>
    </TTGlyph>
    <TTGlyph name="f_f_i" xMin="25" yMin="0" xMax="691" yMax="702">
      <contour>
        <pt x="691" y="615" on="1"/>
        <pt x="611" y="615" on="1"/>
        <pt x="611" y="695" on="1"/>
        <pt x="691" y="695" on="1"/>
      </contour>
      <contour>
        <pt x="688" y="0" on="1"/>
        <pt x="614" y="0" on="1"/>
        <pt x="614" y="430" on="1"/>
        <pt x="688" y="430" on="1"/>
      </contour>
      <contour>
        <pt x="428" y="0" on="1"/>
        <pt x="354" y="0" on="1"/>
        <pt x="354" y="529" on="1"/>
        <pt x="354" y="565" on="0"/>
        <pt x="373" y="629" on="0"/>
        <pt x="407" y="675" on="0"/>
        <pt x="454" y="702" on="0"/>
        <pt x="482" y="702" on="1"/>
        <pt x="504" y="702" on="0"/>
        <pt x="523" y="699" on="0"/>
        <pt x="537" y="695" on="1"/>
        <pt x="537" y="627" on="1"/>
        <pt x="528" y="632" on="0"/>
        <pt x="499" y="641" on="0"/>
        <pt x="482" y="641" on="1"/>
        <pt x="458" y="641" on="0"/>
        <pt x="426" y="601" on="0"/>
        <pt x="426" y="561" on="1"/>
        <pt x="426" y="430" on="1"/>
        <pt x="537" y="430" on="1"/>
        <pt x="537" y="372" on="1"/>
        <pt x="428" y="372" on="1"/>
      </contour>
      <contour>
        <pt x="168" y="0" on="1"/>
        <pt x="94" y="0" on="1"/>
        <pt x="94" y="372" on="1"/>
        <pt x="25" y="372" on="1"/>
        <pt x="25" y="430" on="1"/>
        <pt x="94" y="430" on="1"/>
        <pt x="94" y="528" on="1"/>
        <pt x="94" y="565" on="0"/>
        <pt x="115" y="629" on="0"/>
        <pt x="153" y="675" on="0"/>
        <pt x="205" y="702" on="0"/>
        <pt x="236" y="702" on="1"/>
        <pt x="249" y="702" on="0"/>
        <pt x="265" y="701" on="0"/>
        <pt x="277" y="700" on="0"/>
        <pt x="290" y="697" on="0"/>
        <pt x="300" y="694" on="1"/>
        <pt x="300" y="628" on="1"/>
        <pt x="283" y="636" on="0"/>
        <pt x="249" y="641" on="0"/>
        <pt x="236" y="641" on="1"/>
        <pt x="225" y="641" on="0"/>
        <pt x="201" y="634" on="0"/>
        <pt x="180" y="616" on="0"/>
        <pt x="166" y="584" on="0"/>
        <pt x="166" y="559" on="1"/>
        <pt x="166" y="430" on="1"/>
        <pt x="277" y="430" on="1"/>
        <pt x="277" y="372" on="1"/>
        <pt x="168" y="372" on="1"/>
      </contour>
    </TTGlyph>
    <TTGlyph name="f_f_l" xMin="25" yMin="0" xMax="688" yMax="702">
      <contour>
        <pt x="168" y="0" on="1"/>
        <pt x="94" y="0" on="1"/>
        <pt x="94" y="372" on="1"/>
        <pt x="25" y="372" on="1"/>
        <pt x="25" y="430" on="1"/>
        <pt x="94" y="430" on="1"/>
        <pt x="94" y="528" on="1"/>
        <pt x="94" y="565" on="0"/>
        <pt x="115" y="629" on="0"/>
        <pt x="153" y="675" on="0"/>
        <pt x="205" y="702" on="0"/>
        <pt x="236" y="702" on="1"/>
        <pt x="249" y="702" on="0"/>
        <pt x="265" y="701" on="0"/>
        <pt x="277" y="700" on="0"/>
        <pt x="290" y="697" on="0"/>
        <pt x="300" y="694" on="1"/>
        <pt x="300" y="628" on="1"/>
        <pt x="283" y="636" on="0"/>
        <pt x="249" y="641" on="0"/>
        <pt x="236" y="641" on="1"/>
        <pt x="225" y="641" on="0"/>
        <pt x="201" y="634" on="0"/>
        <pt x="180" y="616" on="0"/>
        <pt x="166" y="584" on="0"/>
        <pt x="166" y="559" on="1"/>
        <pt x="166" y="430" on="1"/>
        <pt x="277" y="430" on="1"/>
        <pt x="277" y="372" on="1"/>
        <pt x="168" y="372" on="1"/>
      </contour>
      <contour>
        <pt x="688" y="0" on="1"/>
        <pt x="614" y="0" on="1"/>
        <pt x="614" y="694" on="1"/>
        <pt x="688" y="694" on="1"/>
      </contour>
      <contour>
        <pt x="428" y="0" on="1"/>
        <pt x="354" y="0" on="1"/>
        <pt x="354" y="529" on="1"/>
        <pt x="354" y="565" on="0"/>
        <pt x="373" y="629" on="0"/>
        <pt x="407" y="675" on="0"/>
        <pt x="454" y="702" on="0"/>
        <pt x="482" y="702" on="1"/>
        <pt x="500" y="702" on="0"/>
        <pt x="531" y="696" on="0"/>
        <pt x="537" y="694" on="1"/>
        <pt x="537" y="628" on="1"/>
        <pt x="535" y="630" on="0"/>
        <pt x="502" y="641" on="0"/>
        <pt x="482" y="641" on="1"/>
        <pt x="458" y="641" on="0"/>
        <pt x="426" y="601" on="0"/>
        <pt x="426" y="561" on="1"/>
        <pt x="426" y="430" on="1"/>
        <pt x="537" y="430" on="1"/>
        <pt x="537" y="372" on="1"/>
        <pt x="428" y="372" on="1"/>
      </contour>
    </TTGlyph>
    <TTGlyph name="fi" xMin="25" yMin="0" xMax="430" yMax="702">
      <contour>
        <pt x="430" y="615" on="1"/>
        <pt x="350" y="615" on="1"/>
        <pt x="350" y="695" on="1"/>
        <pt x="430" y="695" on="1"/>
      </contour>
      <contour>
        <pt x="427" y="0" on="1"/>
        <pt x="353" y="0" on="1"/>
        <pt x="353" y="430" on="1"/>
        <pt x="427" y="430" on="1"/>
      </contour>
      <contour>
        <pt x="168" y="0" on="1"/>
        <pt x="94" y="0" on="1"/>
        <pt x="94" y="372" on="1"/>
        <pt x="25" y="372" on="1"/>
        <pt x="25" y="430" on="1"/>
        <pt x="94" y="430" on="1"/>
        <pt x="94" y="529" on="1"/>
        <pt x="94" y="565" on="0"/>
        <pt x="113" y="629" on="0"/>
        <pt x="147" y="675" on="0"/>
        <pt x="194" y="702" on="0"/>
        <pt x="222" y="702" on="1"/>
        <pt x="240" y="702" on="0"/>
        <pt x="271" y="696" on="0"/>
        <pt x="277" y="694" on="1"/>
        <pt x="277" y="627" on="1"/>
        <pt x="251" y="641" on="0"/>
        <pt x="222" y="641" on="1"/>
        <pt x="198" y="641" on="0"/>
        <pt x="166" y="601" on="0"/>
        <pt x="166" y="561" on="1"/>
        <pt x="166" y="430" on="1"/>
        <pt x="277" y="430" on="1"/>
        <pt x="277" y="372" on="1"/>
        <pt x="168" y="372" on="1"/>
      </contour>
    </TTGlyph>
    <TTGlyph name="five" xMin="34" yMin="-16" xMax="422" yMax="656">
      <contour>
        <pt x="146" y="385" on="1"/>
        <pt x="190" y="421" on="0"/>
        <pt x="244" y="421" on="1"/>
        <pt x="280" y="421" on="0"/>
        <pt x="345" y="387" on="0"/>
        <pt x="394" y="329" on="0"/>
        <pt x="422" y="249" on="0"/>
        <pt x="422" y="203" on="1"/>
        <pt x="422" y="158" on="0"/>
        <pt x="390" y="78" on="0"/>
        <pt x="334" y="19" on="0"/>
        <pt x="259" y="-16" on="0"/>
        <pt x="215" y="-16" on="1"/>
        <pt x="193" y="-16" on="0"/>
        <pt x="143" y="-5" on="0"/>
        <pt x="95" y="19" on="0"/>
        <pt x="51" y="56" on="0"/>
        <pt x="34" y="83" on="1"/>
        <pt x="66" y="139" on="1"/>
        <pt x="86" y="98" on="0"/>
        <pt x="167" y="46" on="0"/>
        <pt x="215" y="46" on="1"/>
        <pt x="235" y="46" on="0"/>
        <pt x="278" y="61" on="0"/>
        <pt x="314" y="98" on="0"/>
        <pt x="338" y="159" on="0"/>
        <pt x="338" y="205" on="1"/>
        <pt x="338" y="248" on="0"/>
        <pt x="321" y="307" on="0"/>
        <pt x="294" y="344" on="0"/>
        <pt x="260" y="360" on="0"/>
        <pt x="243" y="360" on="1"/>
        <pt x="207" y="360" on="0"/>
        <pt x="154" y="319" on="0"/>
        <pt x="140" y="287" on="1"/>
        <pt x="73" y="287" on="1"/>
        <pt x="73" y="656" on="1"/>
        <pt x="391" y="656" on="1"/>
        <pt x="391" y="592" on="1"/>
        <pt x="146" y="592" on="1"/>
      </contour>
    </TTGlyph>
    <TTGlyph name="fl" xMin="25" yMin="0" xMax="427" yMax="702">
      <contour>
        <pt x="168" y="0" on="1"/>
        <pt x="94" y="0" on="1"/>
        <pt x="94" y="372" on="1"/>
        <pt x="25" y="372" on="1"/>
        <pt x="25" y="430" on="1"/>
        <pt x="94" y="430" on="1"/>
        <pt x="94" y="529" on="1"/>
        <pt x="94" y="565" on="0"/>
        <pt x="113" y="629" on="0"/>
        <pt x="147" y="675" on="0"/>
        <pt x="194" y="702" on="0"/>
        <pt x="222" y="702" on="1"/>
        <pt x="240" y="702" on="0"/>
        <pt x="271" y="696" on="0"/>
        <pt x="277" y="694" on="1"/>
        <pt x="277" y="628" on="1"/>
        <pt x="275" y="630" on="0"/>
        <pt x="242" y="641" on="0"/>
        <pt x="222" y="641" on="1"/>
        <pt x="198" y="641" on="0"/>
        <pt x="166" y="601" on="0"/>
        <pt x="166" y="561" on="1"/>
        <pt x="166" y="430" on="1"/>
        <pt x="277" y="430" on="1"/>
        <pt x="277" y="372" on="1"/>
        <pt x="168" y="372" on="1"/>
      </contour>
      <contour>
        <pt x="427" y="0" on="1"/>
        <pt x="353" y="0" on="1"/>
        <pt x="353" y="694" on="1"/>
        <pt x="427" y="694" on="1"/>
      </contour>
    </TTGlyph>
    <TTGlyph name="four" xMin="26" yMin="0" xMax="443" yMax="656">
      <contour>
        <pt x="352" y="0" on="1"/>
        <pt x="273" y="0" on="1"/>
        <pt x="273" y="171" on="1"/>
        <pt x="26" y="171" on="1"/>
        <pt x="26" y="232" on="1"/>
        <pt x="264" y="656" on="1"/>
        <pt x="352" y="656" on="1"/>
        <pt x="352" y="232" on="1"/>
        <pt x="443" y="232" on="1"/>
        <pt x="443" y="171" on="1"/>
        <pt x="352" y="171" on="1"/>
      </contour>
      <contour>
        <pt x="276" y="232" on="1"/>
        <pt x="276" y="610" on="1"/>
        <pt x="276" y="584" on="0"/>
        <pt x="238" y="488" on="0"/>
        <pt x="184" y="378" on="0"/>
        <pt x="125" y="270" on="0"/>
        <pt x="103" y="232" on="1"/>
      </contour>
    </TTGlyph>
    <TTGlyph name="g" xMin="26" yMin="-204" xMax="456" yMax="438">
      <contour>
        <pt x="456" y="376" on="1"/>
        <pt x="446" y="377" on="0"/>
        <pt x="432" y="379" on="0"/>
        <pt x="420" y="380" on="0"/>
        <pt x="405" y="380" on="0"/>
        <pt x="393" y="380" on="1"/>
        <pt x="387" y="380" on="0"/>
        <pt x="368" y="379" on="0"/>
        <pt x="349" y="378" on="0"/>
        <pt x="334" y="377" on="0"/>
        <pt x="333" y="377" on="1"/>
        <pt x="330" y="377" on="1"/>
        <pt x="337" y="368" on="0"/>
        <pt x="361" y="318" on="0"/>
        <pt x="361" y="282" on="1"/>
        <pt x="361" y="250" on="0"/>
        <pt x="337" y="193" on="0"/>
        <pt x="295" y="151" on="0"/>
        <pt x="240" y="126" on="0"/>
        <pt x="209" y="126" on="1"/>
        <pt x="178" y="126" on="0"/>
        <pt x="133" y="146" on="0"/>
        <pt x="122" y="154" on="1"/>
        <pt x="121" y="153" on="0"/>
        <pt x="112" y="135" on="0"/>
        <pt x="112" y="120" on="1"/>
        <pt x="112" y="101" on="0"/>
        <pt x="125" y="80" on="0"/>
        <pt x="143" y="71" on="0"/>
        <pt x="161" y="69" on="0"/>
        <pt x="167" y="69" on="1"/>
        <pt x="248" y="69" on="1"/>
        <pt x="264" y="69" on="0"/>
        <pt x="329" y="64" on="0"/>
        <pt x="394" y="38" on="0"/>
        <pt x="443" y="-18" on="0"/>
        <pt x="443" y="-70" on="1"/>
        <pt x="443" y="-98" on="0"/>
        <pt x="411" y="-147" on="0"/>
        <pt x="355" y="-183" on="0"/>
        <pt x="278" y="-204" on="0"/>
        <pt x="234" y="-204" on="1"/>
        <pt x="190" y="-204" on="0"/>
        <pt x="114" y="-183" on="0"/>
        <pt x="58" y="-147" on="0"/>
        <pt x="26" y="-98" on="0"/>
        <pt x="26" y="-71" on="1"/>
        <pt x="26" y="-64" on="0"/>
        <pt x="30" y="-40" on="0"/>
        <pt x="42" y="-12" on="0"/>
        <pt x="66" y="17" on="0"/>
        <pt x="85" y="29" on="1"/>
        <pt x="77" y="40" on="0"/>
        <pt x="60" y="77" on="0"/>
        <pt x="60" y="103" on="1"/>
        <pt x="60" y="146" on="0"/>
        <pt x="88" y="185" on="1"/>
        <pt x="87" y="186" on="0"/>
        <pt x="77" y="201" on="0"/>
        <pt x="65" y="227" on="0"/>
        <pt x="56" y="262" on="0"/>
        <pt x="56" y="282" on="1"/>
        <pt x="56" y="314" on="0"/>
        <pt x="79" y="370" on="0"/>
        <pt x="120" y="413" on="0"/>
        <pt x="176" y="438" on="0"/>
        <pt x="209" y="438" on="1"/>
        <pt x="226" y="438" on="0"/>
        <pt x="274" y="427" on="0"/>
        <pt x="299" y="407" on="1"/>
        <pt x="361" y="437" on="0"/>
        <pt x="445" y="438" on="1"/>
      </contour>
      <contour>
        <pt x="209" y="181" on="1"/>
        <pt x="219" y="181" on="0"/>
        <pt x="247" y="188" on="0"/>
        <pt x="272" y="210" on="0"/>
        <pt x="290" y="249" on="0"/>
        <pt x="290" y="282" on="1"/>
        <pt x="290" y="312" on="0"/>
        <pt x="274" y="351" on="0"/>
        <pt x="250" y="374" on="0"/>
        <pt x="221" y="383" on="0"/>
        <pt x="208" y="383" on="1"/>
        <pt x="198" y="383" on="0"/>
        <pt x="171" y="376" on="0"/>
        <pt x="145" y="354" on="0"/>
        <pt x="127" y="315" on="0"/>
        <pt x="127" y="282" on="1"/>
        <pt x="127" y="252" on="0"/>
        <pt x="143" y="213" on="0"/>
        <pt x="167" y="190" on="0"/>
        <pt x="196" y="181" on="0"/>
      </contour>
      <contour>
        <pt x="166" y="-4" on="1"/>
        <pt x="140" y="-4" on="0"/>
        <pt x="112" y="-24" on="0"/>
        <pt x="99" y="-48" on="0"/>
        <pt x="97" y="-69" on="0"/>
        <pt x="97" y="-71" on="1"/>
        <pt x="97" y="-88" on="0"/>
        <pt x="119" y="-116" on="0"/>
        <pt x="156" y="-137" on="0"/>
        <pt x="207" y="-149" on="0"/>
        <pt x="235" y="-149" on="1"/>
        <pt x="263" y="-149" on="0"/>
        <pt x="313" y="-137" on="0"/>
        <pt x="350" y="-116" on="0"/>
        <pt x="372" y="-88" on="0"/>
        <pt x="372" y="-72" on="1"/>
        <pt x="372" y="-47" on="0"/>
        <pt x="340" y="-19" on="0"/>
        <pt x="297" y="-6" on="0"/>
        <pt x="256" y="-4" on="0"/>
        <pt x="247" y="-4" on="1"/>
      </contour>
    </TTGlyph>
    <TTGlyph name="germandbls" xMin="75" yMin="-8" xMax="424" yMax="702">
      <contour>
        <pt x="309" y="399" on="1"/>
        <pt x="323" y="390" on="0"/>
        <pt x="363" y="352" on="0"/>
        <pt x="399" y="296" on="0"/>
        <pt x="424" y="221" on="0"/>
        <pt x="424" y="174" on="1"/>
        <pt x="424" y="135" on="0"/>
        <pt x="398" y="69" on="0"/>
        <pt x="353" y="20" on="0"/>
        <pt x="293" y="-8" on="0"/>
        <pt x="258" y="-8" on="1"/>
        <pt x="229" y="-8" on="0"/>
        <pt x="181" y="5" on="0"/>
        <pt x="176" y="7" on="1"/>
        <pt x="198" y="65" on="1"/>
        <pt x="220" y="56" on="0"/>
        <pt x="256" y="53" on="0"/>
        <pt x="258" y="53" on="1"/>
        <pt x="295" y="53" on="0"/>
        <pt x="349" y="114" on="0"/>
        <pt x="349" y="174" on="1"/>
        <pt x="349" y="212" on="0"/>
        <pt x="329" y="281" on="0"/>
        <pt x="291" y="335" on="0"/>
        <pt x="236" y="368" on="0"/>
        <pt x="201" y="369" on="1"/>
        <pt x="201" y="430" on="1"/>
        <pt x="233" y="431" on="0"/>
        <pt x="279" y="453" on="0"/>
        <pt x="309" y="487" on="0"/>
        <pt x="323" y="529" on="0"/>
        <pt x="323" y="550" on="1"/>
        <pt x="323" y="595" on="0"/>
        <pt x="271" y="641" on="0"/>
        <pt x="236" y="641" on="1"/>
        <pt x="233" y="641" on="0"/>
        <pt x="205" y="638" on="0"/>
        <pt x="174" y="620" on="0"/>
        <pt x="149" y="580" on="0"/>
        <pt x="149" y="543" on="1"/>
        <pt x="149" y="0" on="1"/>
        <pt x="75" y="0" on="1"/>
        <pt x="75" y="545" on="1"/>
        <pt x="75" y="584" on="0"/>
        <pt x="104" y="642" on="0"/>
        <pt x="150" y="682" on="0"/>
        <pt x="208" y="702" on="0"/>
        <pt x="236" y="702" on="1"/>
        <pt x="270" y="702" on="0"/>
        <pt x="329" y="678" on="0"/>
        <pt x="373" y="637" on="0"/>
        <pt x="398" y="582" on="0"/>
        <pt x="398" y="550" on="1"/>
        <pt x="398" y="533" on="0"/>
        <pt x="390" y="494" on="0"/>
        <pt x="369" y="453" on="0"/>
        <pt x="335" y="415" on="0"/>
      </contour>
    </TTGlyph>
    <TTGlyph name="grave" xMin="78" yMin="518" xMax="278" yMax="694">
      <contour>
        <pt x="78" y="694" on="1"/>
        <pt x="154" y="694" on="1"/>
        <pt x="278" y="518" on="1"/>
        <pt x="217" y="518" on="1"/>
      </contour>
    </TTGlyph>
    <TTGlyph name="h" xMin="74" yMin="0" xMax="409" yMax="694">
      <contour>
        <pt x="409" y="0" on="1"/>
        <pt x="333" y="0" on="1"/>
        <pt x="333" y="284" on="1"/>
        <pt x="333" y="297" on="0"/>
        <pt x="329" y="329" on="0"/>
        <pt x="312" y="358" on="0"/>
        <pt x="275" y="377" on="0"/>
        <pt x="242" y="377" on="1"/>
        <pt x="217" y="377" on="0"/>
        <pt x="181" y="353" on="0"/>
        <pt x="160" y="314" on="0"/>
        <pt x="150" y="266" on="0"/>
        <pt x="150" y="242" on="1"/>
        <pt x="150" y="0" on="1"/>
        <pt x="74" y="0" on="1"/>
        <pt x="74" y="694" on="1"/>
        <pt x="148" y="694" on="1"/>
        <pt x="148" y="373" on="1"/>
        <pt x="170" y="399" on="0"/>
        <pt x="233" y="438" on="0"/>
        <pt x="281" y="438" on="1"/>
        <pt x="323" y="438" on="0"/>
        <pt x="374" y="410" on="0"/>
        <pt x="401" y="367" on="0"/>
        <pt x="409" y="316" on="0"/>
        <pt x="409" y="292" on="1"/>
      </contour>
    </TTGlyph>
    <TTGlyph name="hungarumlaut" xMin="99" yMin="518" xMax="391" yMax="694">
      <contour>
        <pt x="160" y="518" on="1"/>
        <pt x="99" y="518" on="1"/>
        <pt x="158" y="694" on="1"/>
        <pt x="234" y="694" on="1"/>
      </contour>
      <contour>
        <pt x="317" y="518" on="1"/>
        <pt x="256" y="518" on="1"/>
        <pt x="315" y="694" on="1"/>
        <pt x="391" y="694" on="1"/>
      </contour>
    </TTGlyph>
    <TTGlyph name="hyphen" xMin="10" yMin="186" xMax="260" yMax="244">
      <contour>
        <pt x="10" y="186" on="1"/>
        <pt x="10" y="244" on="1"/>
        <pt x="260" y="244" on="1"/>
        <pt x="260" y="186" on="1"/>
      </contour>
    </TTGlyph>
    <TTGlyph name="i" xMin="69" yMin="0" xMax="153" yMax="658">
      <contour>
        <pt x="153" y="574" on="1"/>
        <pt x="69" y="574" on="1"/>
        <pt x="69" y="658" on="1"/>
        <pt x="153" y="658" on="1"/>
      </contour>
      <contour>
        <pt x="148" y="0" on="1"/>
        <pt x="74" y="0" on="1"/>
        <pt x="74" y="430" on="1"/>
        <pt x="148" y="430" on="1"/>
      </contour>
    </TTGlyph>
    <TTGlyph name="j" xMin="-58" yMin="-203" xMax="174" yMax="658">
      <contour>
        <pt x="174" y="574" on="1"/>
        <pt x="90" y="574" on="1"/>
        <pt x="90" y="658" on="1"/>
        <pt x="174" y="658" on="1"/>
      </contour>
      <contour>
        <pt x="-43" y="-108" on="1"/>
        <pt x="-26" y="-126" on="0"/>
        <pt x="11" y="-139" on="0"/>
        <pt x="28" y="-139" on="1"/>
        <pt x="38" y="-139" on="0"/>
        <pt x="63" y="-134" on="0"/>
        <pt x="85" y="-119" on="0"/>
        <pt x="100" y="-92" on="0"/>
        <pt x="100" y="-69" on="1"/>
        <pt x="100" y="430" on="1"/>
        <pt x="174" y="430" on="1"/>
        <pt x="174" y="-60" on="1"/>
        <pt x="174" y="-93" on="0"/>
        <pt x="155" y="-146" on="0"/>
        <pt x="122" y="-183" on="0"/>
        <pt x="79" y="-203" on="0"/>
        <pt x="55" y="-203" on="1"/>
        <pt x="23" y="-203" on="0"/>
        <pt x="-34" y="-184" on="0"/>
        <pt x="-58" y="-169" on="1"/>
      </contour>
    </TTGlyph>
    <TTGlyph name="k" xMin="75" yMin="0" xMax="441" yMax="694">
      <contour>
        <pt x="441" y="0" on="1"/>
        <pt x="356" y="0" on="1"/>
        <pt x="215" y="211" on="1"/>
        <pt x="148" y="140" on="1"/>
        <pt x="148" y="0" on="1"/>
        <pt x="75" y="0" on="1"/>
        <pt x="75" y="694" on="1"/>
        <pt x="149" y="694" on="1"/>
        <pt x="149" y="244" on="1"/>
        <pt x="324" y="430" on="1"/>
        <pt x="420" y="430" on="1"/>
        <pt x="265" y="265" on="1"/>
      </contour>
    </TTGlyph>
    <TTGlyph name="l" xMin="74" yMin="0" xMax="148" yMax="694">
      <contour>
        <pt x="148" y="0" on="1"/>
        <pt x="74" y="0" on="1"/>
        <pt x="74" y="694" on="1"/>
        <pt x="148" y="694" on="1"/>
      </contour>
    </TTGlyph>
    <TTGlyph name="m" xMin="74" yMin="0" xMax="670" yMax="438">
      <contour>
        <pt x="670" y="0" on="1"/>
        <pt x="594" y="0" on="1"/>
        <pt x="594" y="284" on="1"/>
        <pt x="594" y="295" on="0"/>
        <pt x="591" y="327" on="0"/>
        <pt x="574" y="356" on="0"/>
        <pt x="537" y="377" on="0"/>
        <pt x="503" y="377" on="1"/>
        <pt x="476" y="377" on="0"/>
        <pt x="441" y="351" on="0"/>
        <pt x="419" y="312" on="0"/>
        <pt x="410" y="264" on="0"/>
        <pt x="410" y="242" on="1"/>
        <pt x="410" y="0" on="1"/>
        <pt x="334" y="0" on="1"/>
        <pt x="334" y="284" on="1"/>
        <pt x="334" y="295" on="0"/>
        <pt x="331" y="327" on="0"/>
        <pt x="314" y="356" on="0"/>
        <pt x="277" y="377" on="0"/>
        <pt x="243" y="377" on="1"/>
        <pt x="216" y="377" on="0"/>
        <pt x="181" y="351" on="0"/>
        <pt x="159" y="312" on="0"/>
        <pt x="150" y="264" on="0"/>
        <pt x="150" y="242" on="1"/>
        <pt x="150" y="0" on="1"/>
        <pt x="74" y="0" on="1"/>
        <pt x="74" y="433" on="1"/>
        <pt x="147" y="433" on="1"/>
        <pt x="147" y="371" on="1"/>
        <pt x="156" y="382" on="0"/>
        <pt x="181" y="405" on="0"/>
        <pt x="214" y="425" on="0"/>
        <pt x="256" y="438" on="0"/>
        <pt x="281" y="438" on="1"/>
        <pt x="326" y="438" on="0"/>
        <pt x="387" y="402" on="0"/>
        <pt x="401" y="362" on="1"/>
        <pt x="409" y="373" on="0"/>
        <pt x="433" y="399" on="0"/>
        <pt x="468" y="422" on="0"/>
        <pt x="513" y="438" on="0"/>
        <pt x="541" y="438" on="1"/>
        <pt x="583" y="438" on="0"/>
        <pt x="634" y="411" on="0"/>
        <pt x="661" y="369" on="0"/>
        <pt x="670" y="317" on="0"/>
        <pt x="670" y="292" on="1"/>
      </contour>
    </TTGlyph>
    <TTGlyph name="macron" xMin="65" yMin="552" xMax="404" yMax="616">
      <contour>
        <pt x="65" y="552" on="1"/>
        <pt x="65" y="616" on="1"/>
        <pt x="404" y="616" on="1"/>
        <pt x="404" y="552" on="1"/>
      </contour>
    </TTGlyph>
    <TTGlyph name="n" xMin="74" yMin="0" xMax="409" yMax="438">
      <contour>
        <pt x="409" y="0" on="1"/>
        <pt x="333" y="0" on="1"/>
        <pt x="333" y="284" on="1"/>
        <pt x="333" y="297" on="0"/>
        <pt x="329" y="329" on="0"/>
        <pt x="312" y="358" on="0"/>
        <pt x="275" y="377" on="0"/>
        <pt x="242" y="377" on="1"/>
        <pt x="217" y="377" on="0"/>
        <pt x="181" y="353" on="0"/>
        <pt x="160" y="314" on="0"/>
        <pt x="150" y="266" on="0"/>
        <pt x="150" y="242" on="1"/>
        <pt x="150" y="0" on="1"/>
        <pt x="74" y="0" on="1"/>
        <pt x="74" y="433" on="1"/>
        <pt x="147" y="433" on="1"/>
        <pt x="147" y="371" on="1"/>
        <pt x="168" y="397" on="0"/>
        <pt x="233" y="438" on="0"/>
        <pt x="281" y="438" on="1"/>
        <pt x="323" y="438" on="0"/>
        <pt x="374" y="410" on="0"/>
        <pt x="401" y="367" on="0"/>
        <pt x="409" y="316" on="0"/>
        <pt x="409" y="292" on="1"/>
      </contour>
    </TTGlyph>
    <TTGlyph name="nine" xMin="39" yMin="-16" xMax="430" yMax="672">
      <contour>
        <pt x="99" y="84" on="1"/>
        <pt x="121" y="64" on="0"/>
        <pt x="166" y="46" on="0"/>
        <pt x="193" y="46" on="1"/>
        <pt x="226" y="46" on="0"/>
        <pt x="281" y="81" on="0"/>
        <pt x="322" y="143" on="0"/>
        <pt x="346" y="228" on="0"/>
        <pt x="349" y="279" on="1"/>
        <pt x="319" y="241" on="0"/>
        <pt x="236" y="200" on="0"/>
        <pt x="191" y="200" on="1"/>
        <pt x="162" y="200" on="0"/>
        <pt x="108" y="229" on="0"/>
        <pt x="79" y="275" on="1"/>
        <pt x="58" y="311" on="0"/>
        <pt x="39" y="382" on="0"/>
        <pt x="39" y="433" on="1"/>
        <pt x="39" y="476" on="0"/>
        <pt x="58" y="552" on="0"/>
        <pt x="91" y="594" on="1"/>
        <pt x="119" y="630" on="0"/>
        <pt x="187" y="672" on="0"/>
        <pt x="238" y="672" on="1"/>
        <pt x="263" y="672" on="0"/>
        <pt x="329" y="648" on="0"/>
        <pt x="389" y="576" on="0"/>
        <pt x="430" y="444" on="0"/>
        <pt x="430" y="335" on="1"/>
        <pt x="430" y="254" on="0"/>
        <pt x="390" y="124" on="0"/>
        <pt x="324" y="33" on="0"/>
        <pt x="238" y="-16" on="0"/>
        <pt x="193" y="-16" on="1"/>
        <pt x="147" y="-16" on="0"/>
        <pt x="89" y="13" on="0"/>
        <pt x="68" y="31" on="1"/>
      </contour>
      <contour>
        <pt x="346" y="435" on="1"/>
        <pt x="346" y="450" on="0"/>
        <pt x="338" y="509" on="0"/>
        <pt x="315" y="568" on="0"/>
        <pt x="273" y="611" on="0"/>
        <pt x="238" y="611" on="1"/>
        <pt x="204" y="611" on="0"/>
        <pt x="162" y="581" on="0"/>
        <pt x="146" y="558" on="1"/>
        <pt x="125" y="526" on="0"/>
        <pt x="118" y="462" on="0"/>
        <pt x="118" y="433" on="1"/>
        <pt x="118" y="403" on="0"/>
        <pt x="124" y="345" on="0"/>
        <pt x="141" y="316" on="1"/>
        <pt x="155" y="293" on="0"/>
        <pt x="194" y="261" on="0"/>
        <pt x="229" y="261" on="1"/>
        <pt x="255" y="261" on="0"/>
        <pt x="299" y="284" on="0"/>
        <pt x="330" y="325" on="0"/>
        <pt x="347" y="380" on="0"/>
        <pt x="347" y="411" on="1"/>
        <pt x="347" y="414" on="0"/>
        <pt x="347" y="430" on="0"/>
      </contour>
    </TTGlyph>
    <TTGlyph name="numbersign" xMin="52" yMin="-195" xMax="731" yMax="694">
      <contour>
        <pt x="411" y="-173" on="1"/>
        <pt x="409" y="-179" on="0"/>
        <pt x="403" y="-195" on="0"/>
        <pt x="392" y="-195" on="1"/>
        <pt x="384" y="-195" on="0"/>
        <pt x="374" y="-185" on="0"/>
        <pt x="374" y="-177" on="1"/>
        <pt x="374" y="-172" on="0"/>
        <pt x="378" y="-159" on="1"/>
        <pt x="455" y="143" on="1"/>
        <pt x="274" y="143" on="1"/>
        <pt x="194" y="-173" on="1"/>
        <pt x="192" y="-179" on="0"/>
        <pt x="186" y="-195" on="0"/>
        <pt x="175" y="-195" on="1"/>
        <pt x="167" y="-195" on="0"/>
        <pt x="157" y="-185" on="0"/>
        <pt x="157" y="-177" on="1"/>
        <pt x="157" y="-172" on="0"/>
        <pt x="161" y="-159" on="1"/>
        <pt x="238" y="143" on="1"/>
        <pt x="86" y="143" on="1"/>
        <pt x="73" y="143" on="0"/>
        <pt x="52" y="147" on="0"/>
        <pt x="52" y="161" on="1"/>
        <pt x="52" y="174" on="0"/>
        <pt x="71" y="178" on="0"/>
        <pt x="82" y="178" on="1"/>
        <pt x="248" y="178" on="1"/>
        <pt x="282" y="321" on="1"/>
        <pt x="82" y="321" on="1"/>
        <pt x="71" y="321" on="0"/>
        <pt x="52" y="325" on="0"/>
        <pt x="52" y="338" on="1"/>
        <pt x="52" y="352" on="0"/>
        <pt x="73" y="356" on="0"/>
        <pt x="86" y="356" on="1"/>
        <pt x="292" y="356" on="1"/>
        <pt x="372" y="672" on="1"/>
        <pt x="374" y="678" on="0"/>
        <pt x="380" y="694" on="0"/>
        <pt x="391" y="694" on="1"/>
        <pt x="399" y="694" on="0"/>
        <pt x="409" y="684" on="0"/>
        <pt x="409" y="676" on="1"/>
        <pt x="409" y="671" on="0"/>
        <pt x="405" y="658" on="1"/>
        <pt x="328" y="356" on="1"/>
        <pt x="509" y="356" on="1"/>
        <pt x="589" y="672" on="1"/>
        <pt x="591" y="678" on="0"/>
        <pt x="597" y="694" on="0"/>
        <pt x="608" y="694" on="1"/>
        <pt x="616" y="694" on="0"/>
        <pt x="626" y="684" on="0"/>
        <pt x="626" y="676" on="1"/>
        <pt x="626" y="671" on="0"/>
        <pt x="622" y="658" on="1"/>
        <pt x="545" y="356" on="1"/>
        <pt x="697" y="356" on="1"/>
        <pt x="710" y="356" on="0"/>
        <pt x="731" y="352" on="0"/>
        <pt x="731" y="338" on="1"/>
        <pt x="731" y="325" on="0"/>
        <pt x="712" y="321" on="0"/>
        <pt x="701" y="321" on="1"/>
        <pt x="535" y="321" on="1"/>
        <pt x="501" y="178" on="1"/>
        <pt x="701" y="178" on="1"/>
        <pt x="712" y="178" on="0"/>
        <pt x="731" y="174" on="0"/>
        <pt x="731" y="161" on="1"/>
        <pt x="731" y="147" on="0"/>
        <pt x="710" y="143" on="0"/>
        <pt x="697" y="143" on="1"/>
        <pt x="491" y="143" on="1"/>
      </contour>
      <contour>
        <pt x="465" y="178" on="1"/>
        <pt x="499" y="321" on="1"/>
        <pt x="318" y="321" on="1"/>
        <pt x="284" y="178" on="1"/>
      </contour>
    </TTGlyph>
    <TTGlyph name="o" xMin="27" yMin="-8" xMax="442" yMax="442">
      <contour>
        <pt x="442" y="214" on="1"/>
        <pt x="442" y="168" on="0"/>
        <pt x="409" y="87" on="0"/>
        <pt x="352" y="27" on="0"/>
        <pt x="277" y="-8" on="0"/>
        <pt x="234" y="-8" on="1"/>
        <pt x="192" y="-8" on="0"/>
        <pt x="117" y="26" on="0"/>
        <pt x="60" y="85" on="0"/>
        <pt x="27" y="166" on="0"/>
        <pt x="27" y="214" on="1"/>
        <pt x="27" y="261" on="0"/>
        <pt x="60" y="344" on="0"/>
        <pt x="116" y="406" on="0"/>
        <pt x="192" y="442" on="0"/>
        <pt x="235" y="442" on="1"/>
        <pt x="277" y="442" on="0"/>
        <pt x="352" y="407" on="0"/>
        <pt x="409" y="345" on="0"/>
        <pt x="442" y="262" on="0"/>
      </contour>
      <contour>
        <pt x="235" y="55" on="1"/>
        <pt x="260" y="55" on="0"/>
        <pt x="307" y="75" on="0"/>
        <pt x="344" y="117" on="0"/>
        <pt x="366" y="180" on="0"/>
        <pt x="366" y="222" on="1"/>
        <pt x="366" y="264" on="0"/>
        <pt x="343" y="324" on="0"/>
        <pt x="306" y="363" on="0"/>
        <pt x="258" y="381" on="0"/>
        <pt x="234" y="381" on="1"/>
        <pt x="212" y="381" on="0"/>
        <pt x="165" y="364" on="0"/>
        <pt x="127" y="326" on="0"/>
        <pt x="103" y="266" on="0"/>
        <pt x="103" y="222" on="1"/>
        <pt x="103" y="181" on="0"/>
        <pt x="124" y="119" on="0"/>
        <pt x="160" y="77" on="0"/>
        <pt x="208" y="55" on="0"/>
      </contour>
    </TTGlyph>
    <TTGlyph name="oe" xMin="27" yMin="-8" xMax="704" yMax="442">
      <contour>
        <pt x="429" y="219" on="1"/>
        <pt x="429" y="182" on="0"/>
        <pt x="451" y="121" on="0"/>
        <pt x="487" y="77" on="0"/>
        <pt x="534" y="53" on="0"/>
        <pt x="561" y="53" on="1"/>
        <pt x="588" y="53" on="0"/>
        <pt x="659" y="75" on="0"/>
        <pt x="693" y="105" on="1"/>
        <pt x="693" y="102" on="0"/>
        <pt x="695" y="79" on="0"/>
        <pt x="696" y="78" on="1"/>
        <pt x="696" y="77" on="0"/>
        <pt x="697" y="67" on="0"/>
        <pt x="698" y="54" on="0"/>
        <pt x="699" y="43" on="0"/>
        <pt x="699" y="41" on="1"/>
        <pt x="667" y="15" on="0"/>
        <pt x="595" y="-8" on="0"/>
        <pt x="560" y="-8" on="1"/>
        <pt x="520" y="-8" on="0"/>
        <pt x="430" y="31" on="0"/>
        <pt x="391" y="86" on="1"/>
        <pt x="372" y="58" on="0"/>
        <pt x="329" y="21" on="0"/>
        <pt x="285" y="0" on="0"/>
        <pt x="244" y="-8" on="0"/>
        <pt x="227" y="-8" on="1"/>
        <pt x="187" y="-8" on="0"/>
        <pt x="115" y="26" on="0"/>
        <pt x="60" y="87" on="0"/>
        <pt x="27" y="169" on="0"/>
        <pt x="27" y="217" on="1"/>
        <pt x="27" y="265" on="0"/>
        <pt x="59" y="347" on="0"/>
        <pt x="114" y="407" on="0"/>
        <pt x="187" y="442" on="0"/>
        <pt x="227" y="442" on="1"/>
        <pt x="268" y="442" on="0"/>
        <pt x="356" y="401" on="0"/>
        <pt x="390" y="350" on="1"/>
        <pt x="407" y="377" on="0"/>
        <pt x="448" y="413" on="0"/>
        <pt x="489" y="434" on="0"/>
        <pt x="529" y="442" on="0"/>
        <pt x="545" y="442" on="1"/>
        <pt x="585" y="442" on="0"/>
        <pt x="639" y="414" on="0"/>
        <pt x="675" y="369" on="0"/>
        <pt x="694" y="316" on="0"/>
        <pt x="703" y="267" on="0"/>
        <pt x="704" y="227" on="0"/>
        <pt x="704" y="219" on="1"/>
      </contour>
      <contour>
        <pt x="637" y="274" on="1"/>
        <pt x="633" y="304" on="0"/>
        <pt x="614" y="345" on="0"/>
        <pt x="588" y="370" on="0"/>
        <pt x="559" y="381" on="0"/>
        <pt x="545" y="381" on="1"/>
        <pt x="512" y="381" on="0"/>
        <pt x="450" y="325" on="0"/>
        <pt x="436" y="274" on="1"/>
      </contour>
      <contour>
        <pt x="227" y="53" on="1"/>
        <pt x="250" y="53" on="0"/>
        <pt x="295" y="72" on="0"/>
        <pt x="331" y="114" on="0"/>
        <pt x="353" y="178" on="0"/>
        <pt x="353" y="223" on="1"/>
        <pt x="353" y="265" on="0"/>
        <pt x="331" y="324" on="0"/>
        <pt x="295" y="363" on="0"/>
        <pt x="250" y="381" on="0"/>
        <pt x="227" y="381" on="1"/>
        <pt x="205" y="381" on="0"/>
        <pt x="159" y="363" on="0"/>
        <pt x="123" y="325" on="0"/>
        <pt x="100" y="265" on="0"/>
        <pt x="100" y="223" on="1"/>
        <pt x="100" y="178" on="0"/>
        <pt x="123" y="114" on="0"/>
        <pt x="159" y="73" on="0"/>
        <pt x="204" y="53" on="0"/>
      </contour>
    </TTGlyph>
    <TTGlyph name="one" xMin="84" yMin="0" xMax="402" yMax="672">
      <contour>
        <pt x="284" y="58" on="1"/>
        <pt x="402" y="58" on="1"/>
        <pt x="402" y="0" on="1"/>
        <pt x="89" y="0" on="1"/>
        <pt x="89" y="58" on="1"/>
        <pt x="207" y="58" on="1"/>
        <pt x="207" y="572" on="1"/>
        <pt x="172" y="556" on="0"/>
        <pt x="106" y="549" on="0"/>
        <pt x="84" y="548" on="1"/>
        <pt x="84" y="606" on="1"/>
        <pt x="108" y="607" on="0"/>
        <pt x="155" y="612" on="0"/>
        <pt x="201" y="626" on="0"/>
        <pt x="245" y="651" on="0"/>
        <pt x="265" y="672" on="1"/>
        <pt x="284" y="672" on="1"/>
      </contour>
    </TTGlyph>
    <TTGlyph name="oslash" xMin="27" yMin="-112" xMax="442" yMax="543">
      <contour>
        <pt x="365" y="392" on="1"/>
        <pt x="401" y="358" on="0"/>
        <pt x="442" y="266" on="0"/>
        <pt x="442" y="214" on="1"/>
        <pt x="442" y="168" on="0"/>
        <pt x="409" y="87" on="0"/>
        <pt x="352" y="27" on="0"/>
        <pt x="277" y="-8" on="0"/>
        <pt x="234" y="-8" on="1"/>
        <pt x="209" y="-8" on="0"/>
        <pt x="169" y="3" on="0"/>
        <pt x="157" y="8" on="1"/>
        <pt x="92" y="-112" on="1"/>
        <pt x="38" y="-82" on="1"/>
        <pt x="105" y="41" on="1"/>
        <pt x="71" y="68" on="0"/>
        <pt x="27" y="159" on="0"/>
        <pt x="27" y="214" on="1"/>
        <pt x="27" y="261" on="0"/>
        <pt x="60" y="344" on="0"/>
        <pt x="116" y="406" on="0"/>
        <pt x="192" y="442" on="0"/>
        <pt x="235" y="442" on="1"/>
        <pt x="261" y="442" on="0"/>
        <pt x="304" y="430" on="0"/>
        <pt x="314" y="425" on="1"/>
        <pt x="377" y="543" on="1"/>
        <pt x="431" y="513" on="1"/>
      </contour>
      <contour>
        <pt x="284" y="371" on="1"/>
        <pt x="263" y="381" on="0"/>
        <pt x="235" y="381" on="1"/>
        <pt x="210" y="381" on="0"/>
        <pt x="162" y="361" on="0"/>
        <pt x="125" y="320" on="0"/>
        <pt x="103" y="257" on="0"/>
        <pt x="103" y="214" on="1"/>
        <pt x="103" y="192" on="0"/>
        <pt x="114" y="130" on="0"/>
        <pt x="137" y="101" on="1"/>
      </contour>
      <contour>
        <pt x="187" y="62" on="1"/>
        <pt x="210" y="53" on="0"/>
        <pt x="234" y="53" on="1"/>
        <pt x="258" y="53" on="0"/>
        <pt x="305" y="72" on="0"/>
        <pt x="343" y="111" on="0"/>
        <pt x="366" y="172" on="0"/>
        <pt x="366" y="214" on="1"/>
        <pt x="366" y="237" on="0"/>
        <pt x="354" y="302" on="0"/>
        <pt x="332" y="331" on="1"/>
      </contour>
    </TTGlyph>
    <TTGlyph name="p" xMin="75" yMin="-195" xMax="450" yMax="438">
      <contour>
        <pt x="151" y="-195" on="1"/>
        <pt x="75" y="-195" on="1"/>
        <pt x="75" y="430" on="1"/>
        <pt x="149" y="430" on="1"/>
        <pt x="149" y="384" on="1"/>
        <pt x="183" y="411" on="0"/>
        <pt x="266" y="438" on="0"/>
        <pt x="304" y="438" on="1"/>
        <pt x="336" y="438" on="0"/>
        <pt x="390" y="402" on="0"/>
        <pt x="429" y="341" on="0"/>
        <pt x="450" y="260" on="0"/>
        <pt x="450" y="216" on="1"/>
        <pt x="450" y="168" on="0"/>
        <pt x="422" y="86" on="0"/>
        <pt x="375" y="26" on="0"/>
        <pt x="312" y="-8" on="0"/>
        <pt x="277" y="-8" on="1"/>
        <pt x="241" y="-8" on="0"/>
        <pt x="176" y="21" on="0"/>
        <pt x="151" y="45" on="1"/>
      </contour>
      <contour>
        <pt x="151" y="128" on="1"/>
        <pt x="151" y="111" on="0"/>
        <pt x="167" y="83" on="0"/>
        <pt x="192" y="64" on="0"/>
        <pt x="223" y="53" on="0"/>
        <pt x="239" y="53" on="1"/>
        <pt x="264" y="53" on="0"/>
        <pt x="313" y="76" on="0"/>
        <pt x="351" y="119" on="0"/>
        <pt x="374" y="179" on="0"/>
        <pt x="374" y="216" on="1"/>
        <pt x="374" y="249" on="0"/>
        <pt x="354" y="306" on="0"/>
        <pt x="320" y="350" on="0"/>
        <pt x="274" y="375" on="0"/>
        <pt x="248" y="375" on="1"/>
        <pt x="227" y="375" on="0"/>
        <pt x="194" y="363" on="0"/>
        <pt x="170" y="346" on="0"/>
        <pt x="154" y="330" on="0"/>
        <pt x="151" y="325" on="1"/>
      </contour>
    </TTGlyph>
    <TTGlyph name="parenleft" xMin="74" yMin="-250" xMax="313" yMax="749">
      <contour>
        <pt x="313" y="749" on="1"/>
        <pt x="266" y="701" on="0"/>
        <pt x="203" y="586" on="0"/>
        <pt x="166" y="459" on="0"/>
        <pt x="150" y="321" on="0"/>
        <pt x="150" y="249" on="1"/>
        <pt x="150" y="177" on="0"/>
        <pt x="166" y="39" on="0"/>
        <pt x="204" y="-88" on="0"/>
        <pt x="267" y="-202" on="0"/>
        <pt x="313" y="-250" on="1"/>
        <pt x="252" y="-250" on="1"/>
        <pt x="232" y="-229" on="0"/>
        <pt x="171" y="-157" on="0"/>
        <pt x="114" y="-39" on="0"/>
        <pt x="74" y="131" on="0"/>
        <pt x="74" y="250" on="1"/>
        <pt x="74" y="369" on="0"/>
        <pt x="114" y="539" on="0"/>
        <pt x="171" y="656" on="0"/>
        <pt x="232" y="728" on="0"/>
        <pt x="252" y="749" on="1"/>
      </contour>
    </TTGlyph>
    <TTGlyph name="parenright" xMin="52" yMin="-250" xMax="291" yMax="749">
      <contour>
        <pt x="52" y="-250" on="1"/>
        <pt x="99" y="-202" on="0"/>
        <pt x="162" y="-87" on="0"/>
        <pt x="199" y="41" on="0"/>
        <pt x="215" y="178" on="0"/>
        <pt x="215" y="250" on="1"/>
        <pt x="215" y="322" on="0"/>
        <pt x="199" y="460" on="0"/>
        <pt x="161" y="587" on="0"/>
        <pt x="98" y="701" on="0"/>
        <pt x="52" y="749" on="1"/>
        <pt x="113" y="749" on="1"/>
        <pt x="133" y="728" on="0"/>
        <pt x="194" y="656" on="0"/>
        <pt x="251" y="538" on="0"/>
        <pt x="291" y="368" on="0"/>
        <pt x="291" y="249" on="1"/>
        <pt x="291" y="131" on="0"/>
        <pt x="251" y="-40" on="0"/>
        <pt x="194" y="-157" on="0"/>
        <pt x="133" y="-229" on="0"/>
        <pt x="113" y="-250" on="1"/>
      </contour>
    </TTGlyph>
    <TTGlyph name="percent" xMin="52" yMin="-55" xMax="731" yMax="749">
      <contour>
        <pt x="203" y="-37" on="1"/>
        <pt x="197" y="-48" on="0"/>
        <pt x="191" y="-55" on="0"/>
        <pt x="184" y="-55" on="1"/>
        <pt x="177" y="-55" on="0"/>
        <pt x="166" y="-45" on="0"/>
        <pt x="166" y="-37" on="1"/>
        <pt x="166" y="-32" on="0"/>
        <pt x="170" y="-24" on="0"/>
        <pt x="172" y="-21" on="1"/>
        <pt x="581" y="731" on="1"/>
        <pt x="585" y="739" on="0"/>
        <pt x="594" y="749" on="0"/>
        <pt x="602" y="749" on="1"/>
        <pt x="608" y="749" on="0"/>
        <pt x="619" y="739" on="0"/>
        <pt x="619" y="731" on="1"/>
        <pt x="619" y="730" on="0"/>
        <pt x="618" y="723" on="0"/>
        <pt x="613" y="715" on="1"/>
      </contour>
      <contour>
        <pt x="731" y="146" on="1"/>
        <pt x="731" y="103" on="0"/>
        <pt x="710" y="29" on="0"/>
        <pt x="674" y="-25" on="0"/>
        <pt x="627" y="-55" on="0"/>
        <pt x="601" y="-55" on="1"/>
        <pt x="576" y="-55" on="0"/>
        <pt x="529" y="-25" on="0"/>
        <pt x="492" y="28" on="0"/>
        <pt x="470" y="102" on="0"/>
        <pt x="470" y="146" on="1"/>
        <pt x="470" y="190" on="0"/>
        <pt x="492" y="264" on="0"/>
        <pt x="529" y="317" on="0"/>
        <pt x="576" y="347" on="0"/>
        <pt x="601" y="347" on="1"/>
        <pt x="627" y="347" on="0"/>
        <pt x="674" y="317" on="0"/>
        <pt x="710" y="263" on="0"/>
        <pt x="731" y="190" on="0"/>
      </contour>
      <contour>
        <pt x="601" y="6" on="1"/>
        <pt x="615" y="6" on="0"/>
        <pt x="636" y="31" on="0"/>
        <pt x="651" y="71" on="0"/>
        <pt x="658" y="121" on="0"/>
        <pt x="658" y="146" on="1"/>
        <pt x="658" y="171" on="0"/>
        <pt x="651" y="221" on="0"/>
        <pt x="636" y="261" on="0"/>
        <pt x="615" y="286" on="0"/>
        <pt x="601" y="286" on="1"/>
        <pt x="593" y="286" on="0"/>
        <pt x="574" y="276" on="0"/>
        <pt x="557" y="246" on="0"/>
        <pt x="546" y="191" on="0"/>
        <pt x="546" y="146" on="1"/>
        <pt x="546" y="101" on="0"/>
        <pt x="557" y="46" on="0"/>
        <pt x="574" y="16" on="0"/>
        <pt x="593" y="6" on="0"/>
      </contour>
      <contour>
        <pt x="313" y="548" on="1"/>
        <pt x="313" y="505" on="0"/>
        <pt x="292" y="431" on="0"/>
        <pt x="256" y="377" on="0"/>
        <pt x="209" y="347" on="0"/>
        <pt x="183" y="347" on="1"/>
        <pt x="158" y="347" on="0"/>
        <pt x="111" y="377" on="0"/>
        <pt x="74" y="430" on="0"/>
        <pt x="52" y="504" on="0"/>
        <pt x="52" y="548" on="1"/>
        <pt x="52" y="592" on="0"/>
        <pt x="74" y="666" on="0"/>
        <pt x="111" y="719" on="0"/>
        <pt x="158" y="749" on="0"/>
        <pt x="183" y="749" on="1"/>
        <pt x="209" y="749" on="0"/>
        <pt x="256" y="719" on="0"/>
        <pt x="292" y="665" on="0"/>
        <pt x="313" y="592" on="0"/>
      </contour>
      <contour>
        <pt x="183" y="408" on="1"/>
        <pt x="197" y="408" on="0"/>
        <pt x="218" y="433" on="0"/>
        <pt x="233" y="473" on="0"/>
        <pt x="240" y="523" on="0"/>
        <pt x="240" y="548" on="1"/>
        <pt x="240" y="573" on="0"/>
        <pt x="233" y="623" on="0"/>
        <pt x="218" y="663" on="0"/>
        <pt x="197" y="688" on="0"/>
        <pt x="183" y="688" on="1"/>
        <pt x="175" y="688" on="0"/>
        <pt x="156" y="678" on="0"/>
        <pt x="139" y="648" on="0"/>
        <pt x="128" y="593" on="0"/>
        <pt x="128" y="548" on="1"/>
        <pt x="128" y="503" on="0"/>
        <pt x="139" y="448" on="0"/>
        <pt x="156" y="418" on="0"/>
        <pt x="175" y="408" on="0"/>
      </contour>
    </TTGlyph>
    <TTGlyph name="period" xMin="90" yMin="0" xMax="170" yMax="80">
      <contour>
        <pt x="170" y="0" on="1"/>
        <pt x="90" y="0" on="1"/>
        <pt x="90" y="80" on="1"/>
        <pt x="170" y="80" on="1"/>
      </contour>
    </TTGlyph>
    <TTGlyph name="plus" xMin="52" yMin="-64" xMax="678" yMax="563">
      <contour>
        <pt x="383" y="-33" on="1"/>
        <pt x="383" y="-44" on="0"/>
        <pt x="379" y="-64" on="0"/>
        <pt x="365" y="-64" on="1"/>
        <pt x="352" y="-64" on="0"/>
        <pt x="348" y="-44" on="0"/>
        <pt x="348" y="-33" on="1"/>
        <pt x="348" y="232" on="1"/>
        <pt x="83" y="232" on="1"/>
        <pt x="72" y="232" on="0"/>
        <pt x="52" y="236" on="0"/>
        <pt x="52" y="250" on="1"/>
        <pt x="52" y="263" on="0"/>
        <pt x="72" y="267" on="0"/>
        <pt x="83" y="267" on="1"/>
        <pt x="348" y="267" on="1"/>
        <pt x="348" y="532" on="1"/>
        <pt x="348" y="543" on="0"/>
        <pt x="352" y="563" on="0"/>
        <pt x="366" y="563" on="1"/>
        <pt x="379" y="563" on="0"/>
        <pt x="383" y="543" on="0"/>
        <pt x="383" y="532" on="1"/>
        <pt x="383" y="267" on="1"/>
        <pt x="647" y="267" on="1"/>
        <pt x="658" y="267" on="0"/>
        <pt x="678" y="263" on="0"/>
        <pt x="678" y="249" on="1"/>
        <pt x="678" y="236" on="0"/>
        <pt x="658" y="232" on="0"/>
        <pt x="647" y="232" on="1"/>
        <pt x="383" y="232" on="1"/>
      </contour>
    </TTGlyph>
    <TTGlyph name="q" xMin="33" yMin="-195" xMax="408" yMax="438">
      <contour>
        <pt x="408" y="-195" on="1"/>
        <pt x="332" y="-195" on="1"/>
        <pt x="332" y="50" on="1"/>
        <pt x="298" y="18" on="0"/>
        <pt x="224" y="-8" on="0"/>
        <pt x="192" y="-8" on="1"/>
        <pt x="158" y="-8" on="0"/>
        <pt x="100" y="27" on="0"/>
        <pt x="57" y="88" on="0"/>
        <pt x="33" y="169" on="0"/>
        <pt x="33" y="214" on="1"/>
        <pt x="33" y="263" on="0"/>
        <pt x="61" y="345" on="0"/>
        <pt x="109" y="405" on="0"/>
        <pt x="172" y="438" on="0"/>
        <pt x="206" y="438" on="1"/>
        <pt x="235" y="438" on="0"/>
        <pt x="281" y="420" on="0"/>
        <pt x="314" y="398" on="0"/>
        <pt x="333" y="379" on="0"/>
        <pt x="334" y="377" on="1"/>
        <pt x="334" y="438" on="1"/>
        <pt x="408" y="438" on="1"/>
      </contour>
      <contour>
        <pt x="334" y="277" on="1"/>
        <pt x="334" y="293" on="0"/>
        <pt x="322" y="327" on="0"/>
        <pt x="299" y="356" on="0"/>
        <pt x="265" y="375" on="0"/>
        <pt x="244" y="375" on="1"/>
        <pt x="219" y="375" on="0"/>
        <pt x="170" y="352" on="0"/>
        <pt x="132" y="310" on="0"/>
        <pt x="109" y="250" on="0"/>
        <pt x="109" y="214" on="1"/>
        <pt x="109" y="181" on="0"/>
        <pt x="128" y="123" on="0"/>
        <pt x="162" y="79" on="0"/>
        <pt x="208" y="53" on="0"/>
        <pt x="235" y="53" on="1"/>
        <pt x="252" y="53" on="0"/>
        <pt x="287" y="66" on="0"/>
        <pt x="315" y="89" on="0"/>
        <pt x="334" y="119" on="0"/>
        <pt x="334" y="137" on="1"/>
      </contour>
    </TTGlyph>
    <TTGlyph name="question" xMin="52" yMin="0" xMax="391" yMax="702">
      <contour>
        <pt x="240" y="169" on="1"/>
        <pt x="176" y="169" on="1"/>
        <pt x="176" y="221" on="1"/>
        <pt x="176" y="244" on="0"/>
        <pt x="183" y="303" on="0"/>
        <pt x="207" y="369" on="0"/>
        <pt x="250" y="440" on="0"/>
        <pt x="286" y="474" on="1"/>
        <pt x="293" y="481" on="0"/>
        <pt x="315" y="513" on="0"/>
        <pt x="315" y="548" on="1"/>
        <pt x="315" y="578" on="0"/>
        <pt x="297" y="615" on="0"/>
        <pt x="267" y="634" on="0"/>
        <pt x="230" y="641" on="0"/>
        <pt x="210" y="641" on="1"/>
        <pt x="181" y="641" on="0"/>
        <pt x="110" y="620" on="0"/>
        <pt x="74" y="587" on="1"/>
        <pt x="52" y="649" on="1"/>
        <pt x="90" y="677" on="0"/>
        <pt x="168" y="702" on="0"/>
        <pt x="210" y="702" on="1"/>
        <pt x="258" y="702" on="0"/>
        <pt x="327" y="677" on="0"/>
        <pt x="370" y="635" on="0"/>
        <pt x="391" y="578" on="0"/>
        <pt x="391" y="546" on="1"/>
        <pt x="391" y="519" on="0"/>
        <pt x="380" y="480" on="0"/>
        <pt x="364" y="452" on="0"/>
        <pt x="346" y="433" on="0"/>
        <pt x="339" y="427" on="1"/>
        <pt x="326" y="415" on="0"/>
        <pt x="291" y="377" on="0"/>
        <pt x="261" y="325" on="0"/>
        <pt x="240" y="258" on="0"/>
        <pt x="240" y="217" on="1"/>
      </contour>
      <contour>
        <pt x="168" y="80" on="1"/>
        <pt x="248" y="80" on="1"/>
        <pt x="248" y="0" on="1"/>
        <pt x="168" y="0" on="1"/>
      </contour>
    </TTGlyph>
    <TTGlyph name="questiondown" xMin="52" yMin="-203" xMax="391" yMax="500">
      <contour>
        <pt x="248" y="420" on="1"/>
        <pt x="168" y="420" on="1"/>
        <pt x="168" y="500" on="1"/>
        <pt x="248" y="500" on="1"/>
      </contour>
      <contour>
        <pt x="391" y="-150" on="1"/>
        <pt x="383" y="-155" on="0"/>
        <pt x="350" y="-173" on="0"/>
        <pt x="303" y="-190" on="0"/>
        <pt x="244" y="-203" on="0"/>
        <pt x="210" y="-203" on="1"/>
        <pt x="168" y="-203" on="0"/>
        <pt x="108" y="-178" on="0"/>
        <pt x="70" y="-136" on="0"/>
        <pt x="52" y="-79" on="0"/>
        <pt x="52" y="-47" on="1"/>
        <pt x="52" y="-20" on="0"/>
        <pt x="61" y="19" on="0"/>
        <pt x="75" y="47" on="0"/>
        <pt x="92" y="67" on="0"/>
        <pt x="99" y="74" on="1"/>
        <pt x="129" y="106" on="0"/>
        <pt x="176" y="211" on="0"/>
        <pt x="176" y="280" on="1"/>
        <pt x="176" y="331" on="1"/>
        <pt x="240" y="331" on="1"/>
        <pt x="240" y="278" on="1"/>
        <pt x="240" y="269" on="0"/>
        <pt x="237" y="220" on="0"/>
        <pt x="221" y="152" on="0"/>
        <pt x="187" y="72" on="0"/>
        <pt x="155" y="31" on="1"/>
        <pt x="144" y="17" on="0"/>
        <pt x="128" y="-15" on="0"/>
        <pt x="128" y="-50" on="1"/>
        <pt x="128" y="-71" on="0"/>
        <pt x="135" y="-105" on="0"/>
        <pt x="153" y="-129" on="0"/>
        <pt x="185" y="-142" on="0"/>
        <pt x="210" y="-142" on="1"/>
        <pt x="243" y="-142" on="0"/>
        <pt x="326" y="-120" on="0"/>
        <pt x="369" y="-88" on="1"/>
      </contour>
    </TTGlyph>
    <TTGlyph name="quotedblleft" xMin="175" yMin="489" xMax="439" yMax="694">
      <contour>
        <pt x="230" y="569" on="1"/>
        <pt x="255" y="569" on="1"/>
        <pt x="255" y="489" on="1"/>
        <pt x="175" y="489" on="1"/>
        <pt x="175" y="568" on="1"/>
        <pt x="216" y="694" on="1"/>
        <pt x="256" y="694" on="1"/>
      </contour>
      <contour>
        <pt x="413" y="569" on="1"/>
        <pt x="438" y="569" on="1"/>
        <pt x="438" y="489" on="1"/>
        <pt x="358" y="489" on="1"/>
        <pt x="358" y="568" on="1"/>
        <pt x="399" y="694" on="1"/>
        <pt x="439" y="694" on="1"/>
      </contour>
    </TTGlyph>
    <TTGlyph name="quotedblright" xMin="30" yMin="489" xMax="294" yMax="694">
      <contour>
        <pt x="70" y="489" on="1"/>
        <pt x="30" y="489" on="1"/>
        <pt x="56" y="614" on="1"/>
        <pt x="31" y="614" on="1"/>
        <pt x="31" y="694" on="1"/>
        <pt x="111" y="694" on="1"/>
        <pt x="111" y="615" on="1"/>
      </contour>
      <contour>
        <pt x="253" y="489" on="1"/>
        <pt x="213" y="489" on="1"/>
        <pt x="239" y="614" on="1"/>
        <pt x="214" y="614" on="1"/>
        <pt x="214" y="694" on="1"/>
        <pt x="294" y="694" on="1"/>
        <pt x="294" y="615" on="1"/>
      </contour>
    </TTGlyph>
    <TTGlyph name="quoteleft" xMin="90" yMin="489" xMax="171" yMax="694">
      <contour>
        <pt x="145" y="569" on="1"/>
        <pt x="170" y="569" on="1"/>
        <pt x="170" y="489" on="1"/>
        <pt x="90" y="489" on="1"/>
        <pt x="90" y="568" on="1"/>
        <pt x="131" y="694" on="1"/>
        <pt x="171" y="694" on="1"/>
      </contour>
    </TTGlyph>
    <TTGlyph name="quoteright" xMin="89" yMin="489" xMax="170" yMax="694">
      <contour>
        <pt x="129" y="489" on="1"/>
        <pt x="89" y="489" on="1"/>
        <pt x="115" y="614" on="1"/>
        <pt x="90" y="614" on="1"/>
        <pt x="90" y="694" on="1"/>
        <pt x="170" y="694" on="1"/>
        <pt x="170" y="615" on="1"/>
      </contour>
    </TTGlyph>
    <TTGlyph name="r" xMin="75" yMin="0" xMax="306" yMax="438">
      <contour>
        <pt x="149" y="0" on="1"/>
        <pt x="75" y="0" on="1"/>
        <pt x="75" y="433" on="1"/>
        <pt x="146" y="433" on="1"/>
        <pt x="146" y="353" on="1"/>
        <pt x="173" y="392" on="0"/>
        <pt x="258" y="437" on="0"/>
        <pt x="306" y="438" on="1"/>
        <pt x="306" y="372" on="1"/>
        <pt x="273" y="371" on="0"/>
        <pt x="216" y="348" on="0"/>
        <pt x="173" y="306" on="0"/>
        <pt x="149" y="248" on="0"/>
        <pt x="149" y="213" on="1"/>
      </contour>
    </TTGlyph>
    <TTGlyph name="ring" xMin="207" yMin="518" xMax="417" yMax="694">
      <contour>
        <pt x="417" y="606" on="1"/>
        <pt x="417" y="589" on="0"/>
        <pt x="401" y="557" on="0"/>
        <pt x="373" y="533" on="0"/>
        <pt x="335" y="518" on="0"/>
        <pt x="312" y="518" on="1"/>
        <pt x="290" y="518" on="0"/>
        <pt x="251" y="533" on="0"/>
        <pt x="223" y="557" on="0"/>
        <pt x="207" y="589" on="0"/>
        <pt x="207" y="606" on="1"/>
        <pt x="207" y="623" on="0"/>
        <pt x="223" y="655" on="0"/>
        <pt x="251" y="679" on="0"/>
        <pt x="290" y="694" on="0"/>
        <pt x="312" y="694" on="1"/>
        <pt x="335" y="694" on="0"/>
        <pt x="373" y="679" on="0"/>
        <pt x="401" y="655" on="0"/>
        <pt x="417" y="623" on="0"/>
      </contour>
      <contour>
        <pt x="312" y="563" on="1"/>
        <pt x="331" y="563" on="0"/>
        <pt x="364" y="580" on="0"/>
        <pt x="364" y="606" on="1"/>
        <pt x="364" y="620" on="0"/>
        <pt x="354" y="636" on="0"/>
        <pt x="339" y="646" on="0"/>
        <pt x="320" y="649" on="0"/>
        <pt x="312" y="649" on="1"/>
        <pt x="293" y="649" on="0"/>
        <pt x="260" y="632" on="0"/>
        <pt x="260" y="606" on="1"/>
        <pt x="260" y="593" on="0"/>
        <pt x="270" y="576" on="0"/>
        <pt x="285" y="566" on="0"/>
        <pt x="304" y="563" on="0"/>
      </contour>
    </TTGlyph>
    <TTGlyph name="s" xMin="26" yMin="-8" xMax="338" yMax="442">
      <contour>
        <pt x="310" y="347" on="1"/>
        <pt x="290" y="358" on="0"/>
        <pt x="227" y="382" on="0"/>
        <pt x="178" y="382" on="1"/>
        <pt x="173" y="382" on="0"/>
        <pt x="147" y="380" on="0"/>
        <pt x="121" y="370" on="0"/>
        <pt x="101" y="346" on="0"/>
        <pt x="101" y="325" on="1"/>
        <pt x="101" y="308" on="0"/>
        <pt x="117" y="286" on="0"/>
        <pt x="138" y="273" on="0"/>
        <pt x="159" y="268" on="0"/>
        <pt x="164" y="267" on="1"/>
        <pt x="195" y="261" on="0"/>
        <pt x="233" y="252" on="0"/>
        <pt x="259" y="243" on="0"/>
        <pt x="279" y="231" on="0"/>
        <pt x="291" y="221" on="1"/>
        <pt x="305" y="210" on="0"/>
        <pt x="338" y="161" on="0"/>
        <pt x="338" y="124" on="1"/>
        <pt x="338" y="103" on="0"/>
        <pt x="324" y="56" on="0"/>
        <pt x="290" y="17" on="0"/>
        <pt x="230" y="-8" on="0"/>
        <pt x="184" y="-8" on="1"/>
        <pt x="149" y="-8" on="0"/>
        <pt x="69" y="10" on="0"/>
        <pt x="26" y="35" on="1"/>
        <pt x="38" y="102" on="1"/>
        <pt x="76" y="75" on="0"/>
        <pt x="153" y="55" on="0"/>
        <pt x="183" y="55" on="1"/>
        <pt x="188" y="55" on="0"/>
        <pt x="216" y="57" on="0"/>
        <pt x="245" y="69" on="0"/>
        <pt x="268" y="94" on="0"/>
        <pt x="268" y="118" on="1"/>
        <pt x="268" y="137" on="0"/>
        <pt x="251" y="160" on="0"/>
        <pt x="223" y="175" on="0"/>
        <pt x="188" y="184" on="0"/>
        <pt x="171" y="187" on="1"/>
        <pt x="160" y="189" on="0"/>
        <pt x="113" y="202" on="0"/>
        <pt x="66" y="230" on="0"/>
        <pt x="31" y="278" on="0"/>
        <pt x="31" y="316" on="1"/>
        <pt x="31" y="354" on="0"/>
        <pt x="60" y="403" on="0"/>
        <pt x="105" y="431" on="0"/>
        <pt x="160" y="442" on="0"/>
        <pt x="187" y="442" on="1"/>
        <pt x="210" y="442" on="0"/>
        <pt x="277" y="433" on="0"/>
        <pt x="322" y="412" on="1"/>
      </contour>
    </TTGlyph>
    <TTGlyph name="semicolon" xMin="89" yMin="-125" xMax="170" yMax="430">
      <contour>
        <pt x="170" y="350" on="1"/>
        <pt x="90" y="350" on="1"/>
        <pt x="90" y="430" on="1"/>
        <pt x="170" y="430" on="1"/>
      </contour>
      <contour>
        <pt x="115" y="0" on="1"/>
        <pt x="90" y="0" on="1"/>
        <pt x="90" y="80" on="1"/>
        <pt x="170" y="80" on="1"/>
        <pt x="170" y="1" on="1"/>
        <pt x="129" y="-125" on="1"/>
        <pt x="89" y="-125" on="1"/>
      </contour>
    </TTGlyph>
    <TTGlyph name="seven" xMin="39" yMin="-8" xMax="430" yMax="656">
      <contour>
        <pt x="39" y="588" on="1"/>
        <pt x="39" y="656" on="1"/>
        <pt x="430" y="656" on="1"/>
        <pt x="430" y="591" on="1"/>
        <pt x="327" y="461" on="0"/>
        <pt x="223" y="152" on="0"/>
        <pt x="223" y="-8" on="1"/>
        <pt x="143" y="-8" on="1"/>
        <pt x="143" y="157" on="0"/>
        <pt x="260" y="463" on="0"/>
        <pt x="368" y="589" on="1"/>
        <pt x="253" y="589" on="1"/>
        <pt x="244" y="589" on="0"/>
        <pt x="226" y="588" on="0"/>
        <pt x="217" y="588" on="1"/>
      </contour>
    </TTGlyph>
    <TTGlyph name="six" xMin="39" yMin="-16" xMax="430" yMax="672">
      <contour>
        <pt x="390" y="590" on="1"/>
        <pt x="361" y="603" on="0"/>
        <pt x="311" y="611" on="0"/>
        <pt x="291" y="611" on="1"/>
        <pt x="255" y="611" on="0"/>
        <pt x="196" y="578" on="0"/>
        <pt x="151" y="516" on="0"/>
        <pt x="124" y="430" on="0"/>
        <pt x="120" y="377" on="1"/>
        <pt x="146" y="410" on="0"/>
        <pt x="228" y="456" on="0"/>
        <pt x="278" y="456" on="1"/>
        <pt x="312" y="456" on="0"/>
        <pt x="368" y="418" on="0"/>
        <pt x="408" y="353" on="0"/>
        <pt x="430" y="269" on="0"/>
        <pt x="430" y="222" on="1"/>
        <pt x="430" y="193" on="0"/>
        <pt x="423" y="146" on="0"/>
        <pt x="409" y="106" on="0"/>
        <pt x="386" y="68" on="0"/>
        <pt x="369" y="48" on="1"/>
        <pt x="337" y="10" on="0"/>
        <pt x="270" y="-16" on="0"/>
        <pt x="236" y="-16" on="1"/>
        <pt x="205" y="-16" on="0"/>
        <pt x="136" y="12" on="0"/>
        <pt x="78" y="87" on="0"/>
        <pt x="39" y="218" on="0"/>
        <pt x="39" y="321" on="1"/>
        <pt x="39" y="402" on="0"/>
        <pt x="81" y="531" on="0"/>
        <pt x="151" y="623" on="0"/>
        <pt x="241" y="672" on="0"/>
        <pt x="290" y="672" on="1"/>
        <pt x="311" y="672" on="0"/>
        <pt x="358" y="665" on="0"/>
        <pt x="390" y="652" on="1"/>
      </contour>
      <contour>
        <pt x="121" y="219" on="1"/>
        <pt x="123" y="204" on="0"/>
        <pt x="132" y="146" on="0"/>
        <pt x="157" y="89" on="0"/>
        <pt x="200" y="46" on="0"/>
        <pt x="236" y="46" on="1"/>
        <pt x="272" y="46" on="0"/>
        <pt x="314" y="81" on="0"/>
        <pt x="328" y="104" on="1"/>
        <pt x="345" y="134" on="0"/>
        <pt x="351" y="193" on="0"/>
        <pt x="351" y="222" on="1"/>
        <pt x="351" y="253" on="0"/>
        <pt x="345" y="310" on="0"/>
        <pt x="329" y="339" on="1"/>
        <pt x="315" y="362" on="0"/>
        <pt x="275" y="395" on="0"/>
        <pt x="240" y="395" on="1"/>
        <pt x="213" y="395" on="0"/>
        <pt x="169" y="371" on="0"/>
        <pt x="138" y="330" on="0"/>
        <pt x="122" y="276" on="0"/>
        <pt x="122" y="247" on="1"/>
        <pt x="121" y="236" on="0"/>
        <pt x="121" y="225" on="0"/>
      </contour>
    </TTGlyph>
    <TTGlyph name="slash" xMin="52" yMin="-249" xMax="417" yMax="749">
      <contour>
        <pt x="89" y="-229" on="1"/>
        <pt x="86" y="-238" on="0"/>
        <pt x="78" y="-249" on="0"/>
        <pt x="69" y="-249" on="1"/>
        <pt x="63" y="-249" on="0"/>
        <pt x="52" y="-240" on="0"/>
        <pt x="52" y="-231" on="1"/>
        <pt x="52" y="-229" on="0"/>
        <pt x="53" y="-224" on="0"/>
        <pt x="57" y="-214" on="1"/>
        <pt x="380" y="729" on="1"/>
        <pt x="383" y="738" on="0"/>
        <pt x="391" y="749" on="0"/>
        <pt x="400" y="749" on="1"/>
        <pt x="406" y="749" on="0"/>
        <pt x="417" y="740" on="0"/>
        <pt x="417" y="731" on="1"/>
        <pt x="417" y="729" on="0"/>
        <pt x="416" y="724" on="0"/>
        <pt x="412" y="714" on="1"/>
      </contour>
    </TTGlyph>
    <TTGlyph name="suppress" xMin="-9" yMin="262" xMax="231" yMax="386">
      <contour>
        <pt x="8" y="262" on="1"/>
        <pt x="-9" y="318" on="1"/>
        <pt x="214" y="386" on="1"/>
        <pt x="231" y="331" on="1"/>
      </contour>
    </TTGlyph>
    <TTGlyph name="t" xMin="17" yMin="-8" xMax="313" yMax="553">
      <contour>
        <pt x="167" y="136" on="1"/>
        <pt x="167" y="127" on="0"/>
        <pt x="169" y="99" on="0"/>
        <pt x="178" y="73" on="0"/>
        <pt x="197" y="55" on="0"/>
        <pt x="213" y="55" on="1"/>
        <pt x="259" y="55" on="0"/>
        <pt x="297" y="88" on="1"/>
        <pt x="313" y="29" on="1"/>
        <pt x="280" y="12" on="0"/>
        <pt x="211" y="-8" on="0"/>
        <pt x="173" y="-8" on="1"/>
        <pt x="148" y="-8" on="0"/>
        <pt x="117" y="16" on="0"/>
        <pt x="100" y="53" on="0"/>
        <pt x="94" y="98" on="0"/>
        <pt x="94" y="119" on="1"/>
        <pt x="94" y="372" on="1"/>
        <pt x="17" y="372" on="1"/>
        <pt x="17" y="430" on="1"/>
        <pt x="96" y="430" on="1"/>
        <pt x="96" y="553" on="1"/>
        <pt x="167" y="553" on="1"/>
        <pt x="167" y="430" on="1"/>
        <pt x="297" y="430" on="1"/>
        <pt x="297" y="372" on="1"/>
        <pt x="167" y="372" on="1"/>
      </contour>
    </TTGlyph>
    <TTGlyph name="three" xMin="39" yMin="-16" xMax="430" yMax="672">
      <contour>
        <pt x="157" y="385" on="1"/>
        <pt x="160" y="385" on="0"/>
        <pt x="183" y="388" on="0"/>
        <pt x="208" y="390" on="0"/>
        <pt x="230" y="392" on="0"/>
        <pt x="231" y="392" on="1"/>
        <pt x="253" y="397" on="0"/>
        <pt x="288" y="423" on="0"/>
        <pt x="312" y="459" on="0"/>
        <pt x="325" y="500" on="0"/>
        <pt x="325" y="521" on="1"/>
        <pt x="325" y="561" on="0"/>
        <pt x="274" y="611" on="0"/>
        <pt x="232" y="611" on="1"/>
        <pt x="181" y="611" on="0"/>
        <pt x="103" y="553" on="0"/>
        <pt x="86" y="508" on="1"/>
        <pt x="79" y="519" on="0"/>
        <pt x="57" y="554" on="0"/>
        <pt x="52" y="562" on="1"/>
        <pt x="63" y="583" on="0"/>
        <pt x="98" y="623" on="0"/>
        <pt x="144" y="654" on="0"/>
        <pt x="201" y="672" on="0"/>
        <pt x="233" y="672" on="1"/>
        <pt x="268" y="672" on="0"/>
        <pt x="331" y="648" on="0"/>
        <pt x="377" y="608" on="0"/>
        <pt x="404" y="553" on="0"/>
        <pt x="404" y="521" on="1"/>
        <pt x="404" y="467" on="0"/>
        <pt x="345" y="379" on="0"/>
        <pt x="300" y="354" on="1"/>
        <pt x="357" y="335" on="0"/>
        <pt x="430" y="244" on="0"/>
        <pt x="430" y="184" on="1"/>
        <pt x="430" y="145" on="0"/>
        <pt x="400" y="72" on="0"/>
        <pt x="347" y="17" on="0"/>
        <pt x="275" y="-16" on="0"/>
        <pt x="232" y="-16" on="1"/>
        <pt x="180" y="-16" on="0"/>
        <pt x="74" y="35" on="0"/>
        <pt x="39" y="87" on="1"/>
        <pt x="41" y="96" on="0"/>
        <pt x="42" y="107" on="0"/>
        <pt x="44" y="119" on="0"/>
        <pt x="47" y="135" on="0"/>
        <pt x="50" y="148" on="1"/>
        <pt x="67" y="120" on="0"/>
        <pt x="112" y="81" on="0"/>
        <pt x="160" y="57" on="0"/>
        <pt x="209" y="46" on="0"/>
        <pt x="230" y="46" on="1"/>
        <pt x="257" y="46" on="0"/>
        <pt x="300" y="68" on="0"/>
        <pt x="330" y="105" on="0"/>
        <pt x="346" y="156" on="0"/>
        <pt x="346" y="185" on="1"/>
        <pt x="346" y="206" on="0"/>
        <pt x="335" y="255" on="0"/>
        <pt x="307" y="297" on="0"/>
        <pt x="260" y="324" on="0"/>
        <pt x="225" y="324" on="1"/>
        <pt x="157" y="324" on="1"/>
      </contour>
    </TTGlyph>
    <TTGlyph name="tilde" xMin="78" yMin="538" xMax="391" yMax="655">
      <contour>
        <pt x="391" y="655" on="1"/>
        <pt x="390" y="625" on="0"/>
        <pt x="373" y="581" on="0"/>
        <pt x="346" y="552" on="0"/>
        <pt x="314" y="538" on="0"/>
        <pt x="299" y="538" on="1"/>
        <pt x="279" y="538" on="0"/>
        <pt x="246" y="557" on="0"/>
        <pt x="226" y="571" on="1"/>
        <pt x="195" y="594" on="0"/>
        <pt x="173" y="594" on="1"/>
        <pt x="152" y="594" on="0"/>
        <pt x="139" y="556" on="0"/>
        <pt x="139" y="538" on="1"/>
        <pt x="78" y="538" on="1"/>
        <pt x="79" y="568" on="0"/>
        <pt x="96" y="612" on="0"/>
        <pt x="123" y="641" on="0"/>
        <pt x="155" y="655" on="0"/>
        <pt x="170" y="655" on="1"/>
        <pt x="190" y="655" on="0"/>
        <pt x="223" y="636" on="0"/>
        <pt x="243" y="622" on="1"/>
        <pt x="274" y="599" on="0"/>
        <pt x="296" y="599" on="1"/>
        <pt x="317" y="599" on="0"/>
        <pt x="330" y="637" on="0"/>
        <pt x="330" y="655" on="1"/>
      </contour>
    </TTGlyph>
    <TTGlyph name="two" xMin="39" yMin="0" xMax="422" yMax="672">
      <contour>
        <pt x="116" y="68" on="1"/>
        <pt x="116" y="67" on="1"/>
        <pt x="216" y="67" on="1"/>
        <pt x="225" y="67" on="0"/>
        <pt x="243" y="68" on="0"/>
        <pt x="252" y="68" on="1"/>
        <pt x="422" y="68" on="1"/>
        <pt x="422" y="0" on="1"/>
        <pt x="47" y="0" on="1"/>
        <pt x="47" y="64" on="1"/>
        <pt x="89" y="111" on="0"/>
        <pt x="175" y="200" on="0"/>
        <pt x="220" y="245" on="1"/>
        <pt x="240" y="265" on="0"/>
        <pt x="283" y="311" on="0"/>
        <pt x="319" y="365" on="0"/>
        <pt x="343" y="427" on="0"/>
        <pt x="343" y="461" on="1"/>
        <pt x="343" y="490" on="0"/>
        <pt x="325" y="543" on="0"/>
        <pt x="291" y="584" on="0"/>
        <pt x="241" y="608" on="0"/>
        <pt x="209" y="608" on="1"/>
        <pt x="180" y="608" on="0"/>
        <pt x="138" y="587" on="0"/>
        <pt x="107" y="548" on="0"/>
        <pt x="86" y="493" on="0"/>
        <pt x="78" y="459" on="1"/>
        <pt x="39" y="513" on="1"/>
        <pt x="59" y="586" on="0"/>
        <pt x="147" y="672" on="0"/>
        <pt x="222" y="672" on="1"/>
        <pt x="269" y="672" on="0"/>
        <pt x="344" y="638" on="0"/>
        <pt x="395" y="580" on="0"/>
        <pt x="422" y="504" on="0"/>
        <pt x="422" y="463" on="1"/>
        <pt x="422" y="437" on="0"/>
        <pt x="410" y="392" on="0"/>
        <pt x="390" y="355" on="0"/>
        <pt x="368" y="324" on="0"/>
        <pt x="357" y="311" on="1"/>
        <pt x="335" y="285" on="0"/>
        <pt x="279" y="234" on="0"/>
        <pt x="258" y="212" on="1"/>
      </contour>
    </TTGlyph>
    <TTGlyph name="u" xMin="74" yMin="-8" xMax="409" yMax="430">
      <contour>
        <pt x="409" y="0" on="1"/>
        <pt x="335" y="0" on="1"/>
        <pt x="335" y="50" on="1"/>
        <pt x="315" y="31" on="0"/>
        <pt x="268" y="8" on="0"/>
        <pt x="222" y="-4" on="0"/>
        <pt x="183" y="-8" on="0"/>
        <pt x="170" y="-8" on="1"/>
        <pt x="118" y="-8" on="0"/>
        <pt x="74" y="49" on="0"/>
        <pt x="74" y="108" on="1"/>
        <pt x="74" y="430" on="1"/>
        <pt x="150" y="430" on="1"/>
        <pt x="150" y="113" on="1"/>
        <pt x="150" y="98" on="0"/>
        <pt x="154" y="74" on="0"/>
        <pt x="169" y="58" on="0"/>
        <pt x="197" y="50" on="0"/>
        <pt x="222" y="50" on="1"/>
        <pt x="243" y="50" on="0"/>
        <pt x="283" y="62" on="0"/>
        <pt x="314" y="87" on="0"/>
        <pt x="333" y="126" on="0"/>
        <pt x="333" y="154" on="1"/>
        <pt x="333" y="430" on="1"/>
        <pt x="409" y="430" on="1"/>
      </contour>
    </TTGlyph>
    <TTGlyph name="uni00AD" xMin="10" yMin="186" xMax="260" yMax="244">
      <contour>
        <pt x="10" y="186" on="1"/>
        <pt x="10" y="244" on="1"/>
        <pt x="260" y="244" on="1"/>
        <pt x="260" y="186" on="1"/>
      </contour>
    </TTGlyph>
    <TTGlyph name="uni0237" xMin="-58" yMin="-203" xMax="174" yMax="430">
      <contour>
        <pt x="174" y="-60" on="1"/>
        <pt x="174" y="-93" on="0"/>
        <pt x="155" y="-146" on="0"/>
        <pt x="122" y="-183" on="0"/>
        <pt x="79" y="-203" on="0"/>
        <pt x="55" y="-203" on="1"/>
        <pt x="23" y="-203" on="0"/>
        <pt x="-34" y="-184" on="0"/>
        <pt x="-58" y="-169" on="1"/>
        <pt x="-38" y="-108" on="1"/>
        <pt x="-10" y="-139" on="0"/>
        <pt x="31" y="-139" on="1"/>
        <pt x="41" y="-139" on="0"/>
        <pt x="65" y="-134" on="0"/>
        <pt x="86" y="-119" on="0"/>
        <pt x="100" y="-92" on="0"/>
        <pt x="100" y="-69" on="1"/>
        <pt x="100" y="430" on="1"/>
        <pt x="174" y="430" on="1"/>
      </contour>
    </TTGlyph>
    <TTGlyph name="uni0394" xMin="39" yMin="0" xMax="744" yMax="694">
      <contour>
        <pt x="744" y="0" on="1"/>
        <pt x="39" y="0" on="1"/>
        <pt x="347" y="694" on="1"/>
        <pt x="436" y="694" on="1"/>
      </contour>
      <contour>
        <pt x="152" y="79" on="1"/>
        <pt x="617" y="79" on="1"/>
        <pt x="472" y="407" on="1"/>
        <pt x="460" y="433" on="0"/>
        <pt x="434" y="492" on="0"/>
        <pt x="410" y="549" on="0"/>
        <pt x="390" y="601" on="0"/>
        <pt x="384" y="620" on="1"/>
        <pt x="379" y="602" on="0"/>
        <pt x="359" y="552" on="0"/>
        <pt x="336" y="496" on="0"/>
        <pt x="311" y="439" on="0"/>
        <pt x="300" y="414" on="1"/>
      </contour>
    </TTGlyph>
    <TTGlyph name="uni03A9" xMin="42" yMin="0" xMax="636" yMax="710">
      <contour>
        <pt x="636" y="0" on="1"/>
        <pt x="405" y="0" on="1"/>
        <pt x="405" y="30" on="0"/>
        <pt x="416" y="86" on="0"/>
        <pt x="434" y="142" on="0"/>
        <pt x="461" y="202" on="0"/>
        <pt x="477" y="238" on="1"/>
        <pt x="500" y="289" on="0"/>
        <pt x="542" y="401" on="0"/>
        <pt x="542" y="460" on="1"/>
        <pt x="542" y="503" on="0"/>
        <pt x="510" y="573" on="0"/>
        <pt x="454" y="622" on="0"/>
        <pt x="381" y="649" on="0"/>
        <pt x="339" y="649" on="1"/>
        <pt x="298" y="649" on="0"/>
        <pt x="224" y="622" on="0"/>
        <pt x="169" y="573" on="0"/>
        <pt x="136" y="503" on="0"/>
        <pt x="136" y="460" on="1"/>
        <pt x="136" y="410" on="0"/>
        <pt x="169" y="307" on="0"/>
        <pt x="198" y="245" on="1"/>
        <pt x="216" y="206" on="0"/>
        <pt x="244" y="142" on="0"/>
        <pt x="263" y="85" on="0"/>
        <pt x="273" y="30" on="0"/>
        <pt x="273" y="0" on="1"/>
        <pt x="42" y="0" on="1"/>
        <pt x="42" y="68" on="1"/>
        <pt x="120" y="68" on="1"/>
        <pt x="129" y="68" on="0"/>
        <pt x="147" y="67" on="0"/>
        <pt x="156" y="67" on="1"/>
        <pt x="204" y="67" on="1"/>
        <pt x="194" y="110" on="0"/>
        <pt x="150" y="197" on="0"/>
        <pt x="123" y="248" on="1"/>
        <pt x="94" y="302" on="0"/>
        <pt x="52" y="406" on="0"/>
        <pt x="52" y="461" on="1"/>
        <pt x="52" y="513" on="0"/>
        <pt x="97" y="604" on="0"/>
        <pt x="174" y="671" on="0"/>
        <pt x="279" y="710" on="0"/>
        <pt x="339" y="710" on="1"/>
        <pt x="399" y="710" on="0"/>
        <pt x="503" y="671" on="0"/>
        <pt x="581" y="604" on="0"/>
        <pt x="626" y="513" on="0"/>
        <pt x="626" y="461" on="1"/>
        <pt x="626" y="404" on="0"/>
        <pt x="582" y="297" on="0"/>
        <pt x="554" y="246" on="1"/>
        <pt x="528" y="198" on="0"/>
        <pt x="485" y="110" on="0"/>
        <pt x="474" y="67" on="1"/>
        <pt x="522" y="67" on="1"/>
        <pt x="531" y="67" on="0"/>
        <pt x="549" y="68" on="0"/>
        <pt x="558" y="68" on="1"/>
        <pt x="636" y="68" on="1"/>
      </contour>
    </TTGlyph>
    <TTGlyph name="v" xMin="13" yMin="0" xMax="418" yMax="430">
      <contour>
        <pt x="260" y="0" on="1"/>
        <pt x="171" y="0" on="1"/>
        <pt x="13" y="430" on="1"/>
        <pt x="93" y="430" on="1"/>
        <pt x="181" y="183" on="1"/>
        <pt x="186" y="169" on="0"/>
        <pt x="196" y="134" on="0"/>
        <pt x="201" y="117" on="1"/>
        <pt x="205" y="103" on="0"/>
        <pt x="214" y="69" on="0"/>
        <pt x="216" y="55" on="1"/>
        <pt x="217" y="55" on="1"/>
        <pt x="219" y="71" on="0"/>
        <pt x="231" y="117" on="0"/>
        <pt x="247" y="168" on="0"/>
        <pt x="265" y="220" on="0"/>
        <pt x="273" y="243" on="1"/>
        <pt x="340" y="430" on="1"/>
        <pt x="418" y="430" on="1"/>
      </contour>
    </TTGlyph>
    <TTGlyph name="w" xMin="13" yMin="0" xMax="627" yMax="430">
      <contour>
        <pt x="497" y="0" on="1"/>
        <pt x="409" y="0" on="1"/>
        <pt x="343" y="233" on="1"/>
        <pt x="339" y="246" on="0"/>
        <pt x="330" y="284" on="0"/>
        <pt x="321" y="323" on="0"/>
        <pt x="315" y="360" on="0"/>
        <pt x="314" y="372" on="1"/>
        <pt x="312" y="321" on="0"/>
        <pt x="258" y="130" on="0"/>
        <pt x="219" y="0" on="1"/>
        <pt x="143" y="0" on="1"/>
        <pt x="13" y="430" on="1"/>
        <pt x="91" y="430" on="1"/>
        <pt x="136" y="277" on="1"/>
        <pt x="138" y="269" on="0"/>
        <pt x="154" y="215" on="0"/>
        <pt x="171" y="148" on="0"/>
        <pt x="186" y="80" on="0"/>
        <pt x="187" y="58" on="1"/>
        <pt x="188" y="58" on="1"/>
        <pt x="190" y="88" on="0"/>
        <pt x="215" y="193" on="0"/>
        <pt x="234" y="259" on="1"/>
        <pt x="284" y="430" on="1"/>
        <pt x="353" y="430" on="1"/>
        <pt x="404" y="255" on="1"/>
        <pt x="425" y="183" on="0"/>
        <pt x="449" y="81" on="0"/>
        <pt x="451" y="58" on="1"/>
        <pt x="452" y="58" on="1"/>
        <pt x="454" y="76" on="0"/>
        <pt x="465" y="130" on="0"/>
        <pt x="480" y="186" on="0"/>
        <pt x="494" y="236" on="0"/>
        <pt x="498" y="250" on="1"/>
        <pt x="551" y="430" on="1"/>
        <pt x="627" y="430" on="1"/>
      </contour>
    </TTGlyph>
    <TTGlyph name="x" xMin="0" yMin="0" xMax="431" yMax="430">
      <contour>
        <pt x="431" y="0" on="1"/>
        <pt x="343" y="0" on="1"/>
        <pt x="213" y="176" on="1"/>
        <pt x="88" y="0" on="1"/>
        <pt x="0" y="0" on="1"/>
        <pt x="178" y="222" on="1"/>
        <pt x="5" y="430" on="1"/>
        <pt x="94" y="430" on="1"/>
        <pt x="213" y="279" on="1"/>
        <pt x="328" y="430" on="1"/>
        <pt x="415" y="430" on="1"/>
        <pt x="248" y="222" on="1"/>
      </contour>
    </TTGlyph>
    <TTGlyph name="y" xMin="13" yMin="-203" xMax="418" yMax="430">
      <contour>
        <pt x="228" y="-80" on="1"/>
        <pt x="211" y="-126" on="0"/>
        <pt x="176" y="-176" on="0"/>
        <pt x="144" y="-199" on="0"/>
        <pt x="116" y="-203" on="0"/>
        <pt x="107" y="-203" on="1"/>
        <pt x="79" y="-203" on="0"/>
        <pt x="39" y="-195" on="1"/>
        <pt x="33" y="-129" on="1"/>
        <pt x="60" y="-137" on="0"/>
        <pt x="102" y="-141" on="0"/>
        <pt x="105" y="-141" on="1"/>
        <pt x="111" y="-141" on="0"/>
        <pt x="123" y="-139" on="0"/>
        <pt x="136" y="-129" on="0"/>
        <pt x="150" y="-106" on="0"/>
        <pt x="158" y="-85" on="1"/>
        <pt x="160" y="-81" on="0"/>
        <pt x="167" y="-62" on="0"/>
        <pt x="176" y="-38" on="0"/>
        <pt x="186" y="-11" on="0"/>
        <pt x="190" y="0" on="1"/>
        <pt x="13" y="430" on="1"/>
        <pt x="94" y="430" on="1"/>
        <pt x="141" y="313" on="1"/>
        <pt x="154" y="281" on="0"/>
        <pt x="182" y="207" on="0"/>
        <pt x="206" y="136" on="0"/>
        <pt x="222" y="76" on="0"/>
        <pt x="223" y="58" on="1"/>
        <pt x="224" y="58" on="1"/>
        <pt x="225" y="77" on="0"/>
        <pt x="237" y="133" on="0"/>
        <pt x="264" y="220" on="0"/>
        <pt x="308" y="344" on="0"/>
        <pt x="340" y="430" on="1"/>
        <pt x="418" y="430" on="1"/>
      </contour>
    </TTGlyph>
    <TTGlyph name="z" xMin="26" yMin="0" xMax="378" yMax="430">
      <contour>
        <pt x="129" y="61" on="1"/>
        <pt x="206" y="61" on="1"/>
        <pt x="215" y="61" on="0"/>
        <pt x="233" y="62" on="0"/>
        <pt x="242" y="62" on="1"/>
        <pt x="378" y="62" on="1"/>
        <pt x="378" y="0" on="1"/>
        <pt x="26" y="0" on="1"/>
        <pt x="26" y="41" on="1"/>
        <pt x="273" y="371" on="1"/>
        <pt x="203" y="371" on="1"/>
        <pt x="194" y="371" on="0"/>
        <pt x="176" y="370" on="0"/>
        <pt x="167" y="370" on="1"/>
        <pt x="39" y="370" on="1"/>
        <pt x="39" y="430" on="1"/>
        <pt x="375" y="430" on="1"/>
        <pt x="375" y="391" on="1"/>
      </contour>
    </TTGlyph>
    <TTGlyph name="zero" xMin="38" yMin="-16" xMax="431" yMax="672">
      <contour>
        <pt x="431" y="327" on="1"/>
        <pt x="431" y="259" on="0"/>
        <pt x="416" y="140" on="0"/>
        <pt x="390" y="86" on="1"/>
        <pt x="364" y="34" on="0"/>
        <pt x="281" y="-16" on="0"/>
        <pt x="234" y="-16" on="1"/>
        <pt x="216" y="-16" on="0"/>
        <pt x="174" y="-7" on="0"/>
        <pt x="132" y="17" on="0"/>
        <pt x="92" y="58" on="0"/>
        <pt x="77" y="90" on="1"/>
        <pt x="50" y="148" on="0"/>
        <pt x="38" y="273" on="0"/>
        <pt x="38" y="327" on="1"/>
        <pt x="38" y="406" on="0"/>
        <pt x="55" y="518" on="0"/>
        <pt x="79" y="568" on="1"/>
        <pt x="102" y="616" on="0"/>
        <pt x="184" y="672" on="0"/>
        <pt x="235" y="672" on="1"/>
        <pt x="253" y="672" on="0"/>
        <pt x="294" y="663" on="0"/>
        <pt x="335" y="640" on="0"/>
        <pt x="374" y="602" on="0"/>
        <pt x="389" y="572" on="1"/>
        <pt x="404" y="541" on="0"/>
        <pt x="421" y="473" on="0"/>
        <pt x="429" y="407" on="0"/>
        <pt x="431" y="348" on="0"/>
      </contour>
      <contour>
        <pt x="234" y="45" on="1"/>
        <pt x="279" y="45" on="0"/>
        <pt x="329" y="110" on="0"/>
        <pt x="351" y="203" on="0"/>
        <pt x="355" y="303" on="0"/>
        <pt x="355" y="338" on="1"/>
        <pt x="355" y="382" on="0"/>
        <pt x="351" y="471" on="0"/>
        <pt x="340" y="511" on="1"/>
        <pt x="337" y="521" on="0"/>
        <pt x="324" y="554" on="0"/>
        <pt x="300" y="587" on="0"/>
        <pt x="262" y="611" on="0"/>
        <pt x="234" y="611" on="1"/>
        <pt x="205" y="611" on="0"/>
        <pt x="150" y="573" on="0"/>
        <pt x="133" y="525" on="1"/>
        <pt x="119" y="483" on="0"/>
        <pt x="114" y="385" on="0"/>
        <pt x="114" y="338" on="1"/>
        <pt x="114" y="308" on="0"/>
        <pt x="115" y="260" on="0"/>
        <pt x="118" y="218" on="0"/>
        <pt x="124" y="180" on="0"/>
        <pt x="128" y="161" on="1"/>
        <pt x="131" y="150" on="0"/>
        <pt x="143" y="111" on="0"/>
        <pt x="167" y="73" on="0"/>
        <pt x="206" y="45" on="0"/>
      </contour>
    </TTGlyph>
</ttFont>
